<?xml version="1.0" encoding="utf-8" standalone="no"?>
<!DOCTYPE svg PUBLIC "-//W3C//DTD SVG 1.1//EN"
  "http://www.w3.org/Graphics/SVG/1.1/DTD/svg11.dtd">
<svg xmlns:xlink="http://www.w3.org/1999/xlink" width="460.8pt" height="345.6pt" viewBox="0 0 460.8 345.6" xmlns="http://www.w3.org/2000/svg" version="1.1">
 <metadata>
  <rdf:RDF xmlns:dc="http://purl.org/dc/elements/1.1/" xmlns:cc="http://creativecommons.org/ns#" xmlns:rdf="http://www.w3.org/1999/02/22-rdf-syntax-ns#">
   <cc:Work>
    <dc:type rdf:resource="http://purl.org/dc/dcmitype/StillImage"/>
    <dc:date>2025-09-11T12:24:19.740559</dc:date>
    <dc:format>image/svg+xml</dc:format>
    <dc:creator>
     <cc:Agent>
      <dc:title>Matplotlib v3.9.1, https://matplotlib.org/</dc:title>
     </cc:Agent>
    </dc:creator>
   </cc:Work>
  </rdf:RDF>
 </metadata>
 <defs>
  <style type="text/css">*{stroke-linejoin: round; stroke-linecap: butt}</style>
 </defs>
 <g id="figure_1">
  <g id="patch_1">
   <path d="M 0 345.6 
L 460.8 345.6 
L 460.8 0 
L 0 0 
z
" style="fill: #ffffff"/>
  </g>
  <g id="axes_1">
   <g id="patch_2">
    <path d="M 57.6 307.584 
L 414.72 307.584 
L 414.72 41.472 
L 57.6 41.472 
z
" style="fill: #ffffff"/>
   </g>
   <g id="matplotlib.axis_1">
    <g id="xtick_1">
     <g id="line2d_1">
      <defs>
       <path id="me2b6442af9" d="M 0 0 
L 0 3.5 
" style="stroke: #000000; stroke-width: 0.8"/>
      </defs>
      <g>
       <use xlink:href="#me2b6442af9" x="73.626073" y="307.584" style="stroke: #000000; stroke-width: 0.8"/>
      </g>
     </g>
     <g id="text_1">
      <!-- 0.0 -->
      <g transform="translate(65.67451 322.182437) scale(0.1 -0.1)">
       <defs>
        <path id="DejaVuSans-30" d="M 2034 4250 
Q 1547 4250 1301 3770 
Q 1056 3291 1056 2328 
Q 1056 1369 1301 889 
Q 1547 409 2034 409 
Q 2525 409 2770 889 
Q 3016 1369 3016 2328 
Q 3016 3291 2770 3770 
Q 2525 4250 2034 4250 
z
M 2034 4750 
Q 2819 4750 3233 4129 
Q 3647 3509 3647 2328 
Q 3647 1150 3233 529 
Q 2819 -91 2034 -91 
Q 1250 -91 836 529 
Q 422 1150 422 2328 
Q 422 3509 836 4129 
Q 1250 4750 2034 4750 
z
" transform="scale(0.015625)"/>
        <path id="DejaVuSans-2e" d="M 684 794 
L 1344 794 
L 1344 0 
L 684 0 
L 684 794 
z
" transform="scale(0.015625)"/>
       </defs>
       <use xlink:href="#DejaVuSans-30"/>
       <use xlink:href="#DejaVuSans-2e" x="63.623047"/>
       <use xlink:href="#DejaVuSans-30" x="95.410156"/>
      </g>
     </g>
    </g>
    <g id="xtick_2">
     <g id="line2d_2">
      <g>
       <use xlink:href="#me2b6442af9" x="115.834959" y="307.584" style="stroke: #000000; stroke-width: 0.8"/>
      </g>
     </g>
     <g id="text_2">
      <!-- 0.2 -->
      <g transform="translate(107.883396 322.182437) scale(0.1 -0.1)">
       <defs>
        <path id="DejaVuSans-32" d="M 1228 531 
L 3431 531 
L 3431 0 
L 469 0 
L 469 531 
Q 828 903 1448 1529 
Q 2069 2156 2228 2338 
Q 2531 2678 2651 2914 
Q 2772 3150 2772 3378 
Q 2772 3750 2511 3984 
Q 2250 4219 1831 4219 
Q 1534 4219 1204 4116 
Q 875 4013 500 3803 
L 500 4441 
Q 881 4594 1212 4672 
Q 1544 4750 1819 4750 
Q 2544 4750 2975 4387 
Q 3406 4025 3406 3419 
Q 3406 3131 3298 2873 
Q 3191 2616 2906 2266 
Q 2828 2175 2409 1742 
Q 1991 1309 1228 531 
z
" transform="scale(0.015625)"/>
       </defs>
       <use xlink:href="#DejaVuSans-30"/>
       <use xlink:href="#DejaVuSans-2e" x="63.623047"/>
       <use xlink:href="#DejaVuSans-32" x="95.410156"/>
      </g>
     </g>
    </g>
    <g id="xtick_3">
     <g id="line2d_3">
      <g>
       <use xlink:href="#me2b6442af9" x="158.043845" y="307.584" style="stroke: #000000; stroke-width: 0.8"/>
      </g>
     </g>
     <g id="text_3">
      <!-- 0.4 -->
      <g transform="translate(150.092283 322.182437) scale(0.1 -0.1)">
       <defs>
        <path id="DejaVuSans-34" d="M 2419 4116 
L 825 1625 
L 2419 1625 
L 2419 4116 
z
M 2253 4666 
L 3047 4666 
L 3047 1625 
L 3713 1625 
L 3713 1100 
L 3047 1100 
L 3047 0 
L 2419 0 
L 2419 1100 
L 313 1100 
L 313 1709 
L 2253 4666 
z
" transform="scale(0.015625)"/>
       </defs>
       <use xlink:href="#DejaVuSans-30"/>
       <use xlink:href="#DejaVuSans-2e" x="63.623047"/>
       <use xlink:href="#DejaVuSans-34" x="95.410156"/>
      </g>
     </g>
    </g>
    <g id="xtick_4">
     <g id="line2d_4">
      <g>
       <use xlink:href="#me2b6442af9" x="200.252732" y="307.584" style="stroke: #000000; stroke-width: 0.8"/>
      </g>
     </g>
     <g id="text_4">
      <!-- 0.6 -->
      <g transform="translate(192.301169 322.182437) scale(0.1 -0.1)">
       <defs>
        <path id="DejaVuSans-36" d="M 2113 2584 
Q 1688 2584 1439 2293 
Q 1191 2003 1191 1497 
Q 1191 994 1439 701 
Q 1688 409 2113 409 
Q 2538 409 2786 701 
Q 3034 994 3034 1497 
Q 3034 2003 2786 2293 
Q 2538 2584 2113 2584 
z
M 3366 4563 
L 3366 3988 
Q 3128 4100 2886 4159 
Q 2644 4219 2406 4219 
Q 1781 4219 1451 3797 
Q 1122 3375 1075 2522 
Q 1259 2794 1537 2939 
Q 1816 3084 2150 3084 
Q 2853 3084 3261 2657 
Q 3669 2231 3669 1497 
Q 3669 778 3244 343 
Q 2819 -91 2113 -91 
Q 1303 -91 875 529 
Q 447 1150 447 2328 
Q 447 3434 972 4092 
Q 1497 4750 2381 4750 
Q 2619 4750 2861 4703 
Q 3103 4656 3366 4563 
z
" transform="scale(0.015625)"/>
       </defs>
       <use xlink:href="#DejaVuSans-30"/>
       <use xlink:href="#DejaVuSans-2e" x="63.623047"/>
       <use xlink:href="#DejaVuSans-36" x="95.410156"/>
      </g>
     </g>
    </g>
    <g id="xtick_5">
     <g id="line2d_5">
      <g>
       <use xlink:href="#me2b6442af9" x="242.461618" y="307.584" style="stroke: #000000; stroke-width: 0.8"/>
      </g>
     </g>
     <g id="text_5">
      <!-- 0.8 -->
      <g transform="translate(234.510055 322.182437) scale(0.1 -0.1)">
       <defs>
        <path id="DejaVuSans-38" d="M 2034 2216 
Q 1584 2216 1326 1975 
Q 1069 1734 1069 1313 
Q 1069 891 1326 650 
Q 1584 409 2034 409 
Q 2484 409 2743 651 
Q 3003 894 3003 1313 
Q 3003 1734 2745 1975 
Q 2488 2216 2034 2216 
z
M 1403 2484 
Q 997 2584 770 2862 
Q 544 3141 544 3541 
Q 544 4100 942 4425 
Q 1341 4750 2034 4750 
Q 2731 4750 3128 4425 
Q 3525 4100 3525 3541 
Q 3525 3141 3298 2862 
Q 3072 2584 2669 2484 
Q 3125 2378 3379 2068 
Q 3634 1759 3634 1313 
Q 3634 634 3220 271 
Q 2806 -91 2034 -91 
Q 1263 -91 848 271 
Q 434 634 434 1313 
Q 434 1759 690 2068 
Q 947 2378 1403 2484 
z
M 1172 3481 
Q 1172 3119 1398 2916 
Q 1625 2713 2034 2713 
Q 2441 2713 2670 2916 
Q 2900 3119 2900 3481 
Q 2900 3844 2670 4047 
Q 2441 4250 2034 4250 
Q 1625 4250 1398 4047 
Q 1172 3844 1172 3481 
z
" transform="scale(0.015625)"/>
       </defs>
       <use xlink:href="#DejaVuSans-30"/>
       <use xlink:href="#DejaVuSans-2e" x="63.623047"/>
       <use xlink:href="#DejaVuSans-38" x="95.410156"/>
      </g>
     </g>
    </g>
    <g id="xtick_6">
     <g id="line2d_6">
      <g>
       <use xlink:href="#me2b6442af9" x="284.670504" y="307.584" style="stroke: #000000; stroke-width: 0.8"/>
      </g>
     </g>
     <g id="text_6">
      <!-- 1.0 -->
      <g transform="translate(276.718942 322.182437) scale(0.1 -0.1)">
       <defs>
        <path id="DejaVuSans-31" d="M 794 531 
L 1825 531 
L 1825 4091 
L 703 3866 
L 703 4441 
L 1819 4666 
L 2450 4666 
L 2450 531 
L 3481 531 
L 3481 0 
L 794 0 
L 794 531 
z
" transform="scale(0.015625)"/>
       </defs>
       <use xlink:href="#DejaVuSans-31"/>
       <use xlink:href="#DejaVuSans-2e" x="63.623047"/>
       <use xlink:href="#DejaVuSans-30" x="95.410156"/>
      </g>
     </g>
    </g>
    <g id="xtick_7">
     <g id="line2d_7">
      <g>
       <use xlink:href="#me2b6442af9" x="326.879391" y="307.584" style="stroke: #000000; stroke-width: 0.8"/>
      </g>
     </g>
     <g id="text_7">
      <!-- 1.2 -->
      <g transform="translate(318.927828 322.182437) scale(0.1 -0.1)">
       <use xlink:href="#DejaVuSans-31"/>
       <use xlink:href="#DejaVuSans-2e" x="63.623047"/>
       <use xlink:href="#DejaVuSans-32" x="95.410156"/>
      </g>
     </g>
    </g>
    <g id="xtick_8">
     <g id="line2d_8">
      <g>
       <use xlink:href="#me2b6442af9" x="369.088277" y="307.584" style="stroke: #000000; stroke-width: 0.8"/>
      </g>
     </g>
     <g id="text_8">
      <!-- 1.4 -->
      <g transform="translate(361.136714 322.182437) scale(0.1 -0.1)">
       <use xlink:href="#DejaVuSans-31"/>
       <use xlink:href="#DejaVuSans-2e" x="63.623047"/>
       <use xlink:href="#DejaVuSans-34" x="95.410156"/>
      </g>
     </g>
    </g>
    <g id="xtick_9">
     <g id="line2d_9">
      <g>
       <use xlink:href="#me2b6442af9" x="411.297163" y="307.584" style="stroke: #000000; stroke-width: 0.8"/>
      </g>
     </g>
     <g id="text_9">
      <!-- 1.6 -->
      <g transform="translate(403.345601 322.182437) scale(0.1 -0.1)">
       <use xlink:href="#DejaVuSans-31"/>
       <use xlink:href="#DejaVuSans-2e" x="63.623047"/>
       <use xlink:href="#DejaVuSans-36" x="95.410156"/>
      </g>
     </g>
    </g>
    <g id="text_10">
     <!-- 1e10 -->
     <g transform="translate(389.479375 334.860562) scale(0.1 -0.1)">
      <defs>
       <path id="DejaVuSans-65" d="M 3597 1894 
L 3597 1613 
L 953 1613 
Q 991 1019 1311 708 
Q 1631 397 2203 397 
Q 2534 397 2845 478 
Q 3156 559 3463 722 
L 3463 178 
Q 3153 47 2828 -22 
Q 2503 -91 2169 -91 
Q 1331 -91 842 396 
Q 353 884 353 1716 
Q 353 2575 817 3079 
Q 1281 3584 2069 3584 
Q 2775 3584 3186 3129 
Q 3597 2675 3597 1894 
z
M 3022 2063 
Q 3016 2534 2758 2815 
Q 2500 3097 2075 3097 
Q 1594 3097 1305 2825 
Q 1016 2553 972 2059 
L 3022 2063 
z
" transform="scale(0.015625)"/>
      </defs>
      <use xlink:href="#DejaVuSans-31"/>
      <use xlink:href="#DejaVuSans-65" x="63.623047"/>
      <use xlink:href="#DejaVuSans-31" x="125.146484"/>
      <use xlink:href="#DejaVuSans-30" x="188.769531"/>
     </g>
    </g>
   </g>
   <g id="matplotlib.axis_2">
    <g id="ytick_1">
     <g id="line2d_10">
      <defs>
       <path id="ma68e277f94" d="M 0 0 
L -3.5 0 
" style="stroke: #000000; stroke-width: 0.8"/>
      </defs>
      <g>
       <use xlink:href="#ma68e277f94" x="57.6" y="293.507777" style="stroke: #000000; stroke-width: 0.8"/>
      </g>
     </g>
     <g id="text_11">
      <!-- 0.2 -->
      <g transform="translate(34.696875 297.306996) scale(0.1 -0.1)">
       <use xlink:href="#DejaVuSans-30"/>
       <use xlink:href="#DejaVuSans-2e" x="63.623047"/>
       <use xlink:href="#DejaVuSans-32" x="95.410156"/>
      </g>
     </g>
    </g>
    <g id="ytick_2">
     <g id="line2d_11">
      <g>
       <use xlink:href="#ma68e277f94" x="57.6" y="249.009565" style="stroke: #000000; stroke-width: 0.8"/>
      </g>
     </g>
     <g id="text_12">
      <!-- 0.3 -->
      <g transform="translate(34.696875 252.808784) scale(0.1 -0.1)">
       <defs>
        <path id="DejaVuSans-33" d="M 2597 2516 
Q 3050 2419 3304 2112 
Q 3559 1806 3559 1356 
Q 3559 666 3084 287 
Q 2609 -91 1734 -91 
Q 1441 -91 1130 -33 
Q 819 25 488 141 
L 488 750 
Q 750 597 1062 519 
Q 1375 441 1716 441 
Q 2309 441 2620 675 
Q 2931 909 2931 1356 
Q 2931 1769 2642 2001 
Q 2353 2234 1838 2234 
L 1294 2234 
L 1294 2753 
L 1863 2753 
Q 2328 2753 2575 2939 
Q 2822 3125 2822 3475 
Q 2822 3834 2567 4026 
Q 2313 4219 1838 4219 
Q 1578 4219 1281 4162 
Q 984 4106 628 3988 
L 628 4550 
Q 988 4650 1302 4700 
Q 1616 4750 1894 4750 
Q 2613 4750 3031 4423 
Q 3450 4097 3450 3541 
Q 3450 3153 3228 2886 
Q 3006 2619 2597 2516 
z
" transform="scale(0.015625)"/>
       </defs>
       <use xlink:href="#DejaVuSans-30"/>
       <use xlink:href="#DejaVuSans-2e" x="63.623047"/>
       <use xlink:href="#DejaVuSans-33" x="95.410156"/>
      </g>
     </g>
    </g>
    <g id="ytick_3">
     <g id="line2d_12">
      <g>
       <use xlink:href="#ma68e277f94" x="57.6" y="204.511353" style="stroke: #000000; stroke-width: 0.8"/>
      </g>
     </g>
     <g id="text_13">
      <!-- 0.4 -->
      <g transform="translate(34.696875 208.310572) scale(0.1 -0.1)">
       <use xlink:href="#DejaVuSans-30"/>
       <use xlink:href="#DejaVuSans-2e" x="63.623047"/>
       <use xlink:href="#DejaVuSans-34" x="95.410156"/>
      </g>
     </g>
    </g>
    <g id="ytick_4">
     <g id="line2d_13">
      <g>
       <use xlink:href="#ma68e277f94" x="57.6" y="160.013141" style="stroke: #000000; stroke-width: 0.8"/>
      </g>
     </g>
     <g id="text_14">
      <!-- 0.5 -->
      <g transform="translate(34.696875 163.81236) scale(0.1 -0.1)">
       <defs>
        <path id="DejaVuSans-35" d="M 691 4666 
L 3169 4666 
L 3169 4134 
L 1269 4134 
L 1269 2991 
Q 1406 3038 1543 3061 
Q 1681 3084 1819 3084 
Q 2600 3084 3056 2656 
Q 3513 2228 3513 1497 
Q 3513 744 3044 326 
Q 2575 -91 1722 -91 
Q 1428 -91 1123 -41 
Q 819 9 494 109 
L 494 744 
Q 775 591 1075 516 
Q 1375 441 1709 441 
Q 2250 441 2565 725 
Q 2881 1009 2881 1497 
Q 2881 1984 2565 2268 
Q 2250 2553 1709 2553 
Q 1456 2553 1204 2497 
Q 953 2441 691 2322 
L 691 4666 
z
" transform="scale(0.015625)"/>
       </defs>
       <use xlink:href="#DejaVuSans-30"/>
       <use xlink:href="#DejaVuSans-2e" x="63.623047"/>
       <use xlink:href="#DejaVuSans-35" x="95.410156"/>
      </g>
     </g>
    </g>
    <g id="ytick_5">
     <g id="line2d_14">
      <g>
       <use xlink:href="#ma68e277f94" x="57.6" y="115.51493" style="stroke: #000000; stroke-width: 0.8"/>
      </g>
     </g>
     <g id="text_15">
      <!-- 0.6 -->
      <g transform="translate(34.696875 119.314148) scale(0.1 -0.1)">
       <use xlink:href="#DejaVuSans-30"/>
       <use xlink:href="#DejaVuSans-2e" x="63.623047"/>
       <use xlink:href="#DejaVuSans-36" x="95.410156"/>
      </g>
     </g>
    </g>
    <g id="ytick_6">
     <g id="line2d_15">
      <g>
       <use xlink:href="#ma68e277f94" x="57.6" y="71.016718" style="stroke: #000000; stroke-width: 0.8"/>
      </g>
     </g>
     <g id="text_16">
      <!-- 0.7 -->
      <g transform="translate(34.696875 74.815937) scale(0.1 -0.1)">
       <defs>
        <path id="DejaVuSans-37" d="M 525 4666 
L 3525 4666 
L 3525 4397 
L 1831 0 
L 1172 0 
L 2766 4134 
L 525 4134 
L 525 4666 
z
" transform="scale(0.015625)"/>
       </defs>
       <use xlink:href="#DejaVuSans-30"/>
       <use xlink:href="#DejaVuSans-2e" x="63.623047"/>
       <use xlink:href="#DejaVuSans-37" x="95.410156"/>
      </g>
     </g>
    </g>
   </g>
   <g id="line2d_16">
    <path d="M 73.832727 53.568 
L 74.039382 132.554968 
L 74.246037 118.927159 
L 74.659346 162.908663 
L 74.866001 194.675583 
L 75.072656 245.182293 
L 75.69262 194.823812 
L 75.899274 202.384297 
L 76.312584 263.926739 
L 76.519238 248.797232 
L 76.725893 200.371169 
L 76.932548 193.902616 
L 77.139203 170.327127 
L 77.345857 218.708178 
L 77.552512 207.75859 
L 77.759167 172.02129 
L 77.965821 162.897022 
L 78.172476 215.139803 
L 78.379131 152.694015 
L 78.585786 164.761145 
L 78.79244 239.613206 
L 78.999095 238.026917 
L 79.20575 226.433966 
L 79.412404 192.257345 
L 79.619059 181.244896 
L 79.825714 189.933788 
L 80.032368 226.812689 
L 80.445678 192.917006 
L 80.858987 245.058121 
L 81.065642 202.736634 
L 81.478951 164.101484 
L 81.685606 138.37783 
L 82.098916 211.559011 
L 82.30557 200.423166 
L 82.512225 236.369229 
L 82.71888 145.468016 
L 82.925534 183.856375 
L 83.132189 172.740708 
L 83.338844 221.498154 
L 83.545499 187.184944 
L 83.752153 188.979221 
L 83.958808 141.973368 
L 84.165463 230.673643 
L 84.372117 198.42323 
L 84.578772 197.200918 
L 84.785427 170.760175 
L 84.992081 203.620579 
L 85.198736 197.750377 
L 85.405391 185.43956 
L 85.612046 134.814888 
L 85.8187 194.763279 
L 86.025355 201.862002 
L 86.23201 183.673222 
L 86.438664 190.32648 
L 86.645319 170.573918 
L 86.851974 222.985106 
L 87.265283 147.627822 
L 87.471938 187.628081 
L 87.885247 147.932818 
L 88.091902 145.865365 
L 88.298557 163.337054 
L 88.505212 157.422616 
L 88.711866 202.611686 
L 89.125176 173.829536 
L 89.33183 193.956165 
L 89.538485 148.672414 
L 89.74514 168.662454 
L 89.951794 215.641921 
L 90.158449 165.240757 
L 90.365104 177.36066 
L 90.571759 196.050005 
L 90.778413 181.70433 
L 90.985068 201.460773 
L 91.191723 172.615761 
L 91.398377 177.395583 
L 91.605032 152.766189 
L 91.811687 189.595421 
L 92.018342 181.390021 
L 92.224996 157.332592 
L 92.431651 179.142519 
L 92.638306 183.66779 
L 92.84496 144.462228 
L 93.25827 171.745785 
L 93.464924 177.288485 
L 93.671579 155.332656 
L 93.878234 168.532074 
L 94.084889 210.581161 
L 94.291543 166.87361 
L 94.498198 185.582357 
L 94.704853 217.387305 
L 95.118162 180.547984 
L 95.324817 167.466529 
L 95.531472 178.988081 
L 95.738126 202.044378 
L 95.944781 174.776343 
L 96.151436 227.006707 
L 96.564745 169.674451 
L 96.7714 148.512543 
L 96.978055 155.487871 
L 97.184709 202.262454 
L 97.391364 191.489035 
L 97.598019 201.903133 
L 97.804673 198.680886 
L 98.011328 142.556973 
L 98.217983 269.670441 
L 98.424637 187.530296 
L 98.631292 169.877782 
L 98.837947 172.291363 
L 99.044602 161.187337 
L 99.251256 182.984847 
L 99.87122 134.827305 
L 100.28453 179.530555 
L 100.491185 183.358137 
L 100.697839 190.750215 
L 100.904494 204.972495 
L 101.317803 155.768032 
L 101.524458 168.698154 
L 101.731113 153.557782 
L 102.351077 238.60897 
L 102.557732 210.713093 
L 102.764386 258.575728 
L 102.971041 242.223133 
L 103.177696 243.417507 
L 103.38435 181.687256 
L 103.591005 188.33353 
L 104.004315 219.463295 
L 104.210969 230.745041 
L 104.417624 177.518978 
L 104.624279 162.888485 
L 104.830933 213.173238 
L 105.037588 224.264071 
L 105.244243 249.68661 
L 105.450898 178.97644 
L 105.657552 166.168938 
L 105.864207 223.243538 
L 106.070862 178.491395 
L 106.277516 170.753966 
L 106.484171 192.414112 
L 106.690826 149.813238 
L 106.89748 176.493788 
L 107.104135 168.670991 
L 107.31079 203.646189 
L 107.517445 195.703101 
L 107.724099 182.12496 
L 107.930754 154.340061 
L 108.137409 173.6945 
L 108.344063 176.612527 
L 108.550718 149.76357 
L 108.757373 156.052074 
L 109.170682 194.615049 
L 109.377337 171.01395 
L 109.583992 177.88606 
L 109.790646 159.729876 
L 109.997301 186.425171 
L 110.203956 172.324734 
L 110.41061 169.759819 
L 110.617265 204.55264 
L 110.82392 191.799463 
L 111.030575 153.480951 
L 111.237229 208.346076 
L 111.443884 188.557038 
L 111.650539 194.545979 
L 111.857193 151.039431 
L 112.063848 195.806319 
L 112.270503 190.154968 
L 112.477158 166.629924 
L 112.890467 241.265462 
L 113.097122 180.231347 
L 113.303776 200.267951 
L 113.510431 190.567062 
L 113.717086 242.566933 
L 113.923741 209.885025 
L 114.130395 238.574047 
L 114.33705 213.728905 
L 114.543705 212.581872 
L 114.750359 230.796262 
L 114.957014 214.220935 
L 115.163669 164.834871 
L 115.370323 262.643117 
L 115.576978 179.743198 
L 115.783633 204.08855 
L 115.990288 242.573918 
L 116.196942 159.566124 
L 116.403597 190.361403 
L 116.610252 150.436424 
L 116.816906 172.63361 
L 117.023561 168.000466 
L 117.230216 156.621711 
L 117.643525 165.805736 
L 117.85018 173.748049 
L 118.056835 165.906626 
L 118.263489 165.81893 
L 118.470144 237.498412 
L 118.883454 193.877006 
L 119.090108 198.839981 
L 119.296763 217.148275 
L 119.503418 215.504556 
L 119.710072 228.834354 
L 119.916727 188.537636 
L 120.123382 190.562406 
L 120.330036 204.015599 
L 120.536691 201.252786 
L 120.743346 185.341775 
L 120.950001 187.732074 
L 121.156655 195.658865 
L 121.569965 160.807838 
L 121.776619 224.927612 
L 122.189929 180.114936 
L 122.396584 219.474936 
L 122.603238 173.706141 
L 122.809893 161.647547 
L 123.016548 180.87859 
L 123.223202 233.216828 
L 123.429857 182.92509 
L 123.636512 206.703909 
L 123.843166 155.98378 
L 124.049821 214.877491 
L 124.256476 211.352576 
L 124.463131 186.054209 
L 124.669785 185.379803 
L 124.87644 190.497216 
L 125.083095 219.914192 
L 125.289749 201.954354 
L 125.496404 173.900935 
L 125.703059 224.846124 
L 125.909714 174.665365 
L 126.116368 172.522632 
L 126.323023 153.620643 
L 126.529678 159.528873 
L 126.736332 207.601048 
L 126.942987 171.848226 
L 127.149642 187.680854 
L 127.562951 205.234807 
L 127.769606 186.023942 
L 127.976261 190.823942 
L 128.182915 227.48011 
L 128.596225 185.597103 
L 128.802879 172.940935 
L 129.009534 215.270959 
L 129.216189 215.070732 
L 129.422844 164.550053 
L 129.629498 230.089261 
L 129.836153 224.983489 
L 130.042808 157.390021 
L 130.249462 212.709148 
L 130.456117 185.864071 
L 130.662772 195.388016 
L 131.076081 170.431897 
L 131.282736 182.481953 
L 131.489391 131.129326 
L 131.696045 212.680433 
L 132.109355 198.086416 
L 132.316009 152.150765 
L 132.522664 219.268501 
L 132.729319 195.567289 
L 132.935974 195.974726 
L 133.142628 174.663036 
L 133.349283 195.460191 
L 133.555938 228.229795 
L 133.762592 240.885963 
L 133.969247 210.972301 
L 134.175902 201.314871 
L 134.382557 213.504621 
L 134.589211 177.079722 
L 134.795866 185.333238 
L 135.002521 175.521371 
L 135.209175 188.531428 
L 135.41583 189.160045 
L 135.622485 169.896407 
L 135.82914 202.025753 
L 136.035794 210.006868 
L 136.242449 175.156618 
L 136.449104 201.612883 
L 136.655758 170.338768 
L 136.862413 168.408679 
L 137.069068 193.222778 
L 137.275722 196.149342 
L 137.482377 217.270894 
L 137.689032 171.198655 
L 137.895687 175.33977 
L 138.102341 191.376504 
L 138.308996 187.234613 
L 138.515651 194.760951 
L 138.722305 185.24011 
L 138.92896 198.787208 
L 139.135615 189.733562 
L 139.34227 161.168711 
L 139.548924 195.084572 
L 139.755579 172.079496 
L 140.168888 190.807644 
L 140.375543 170.632899 
L 140.582198 173.501258 
L 140.788852 206.662002 
L 140.995507 178.710247 
L 141.202162 187.936957 
L 141.408817 182.668986 
L 141.615471 187.265656 
L 141.822126 172.680175 
L 142.028781 175.964508 
L 142.235435 183.056246 
L 142.44209 217.984103 
L 142.648745 207.246383 
L 142.8554 172.532721 
L 143.268709 210.76509 
L 143.682018 174.796521 
L 143.888673 184.029439 
L 144.095328 225.341258 
L 144.301983 190.452204 
L 144.715292 206.59914 
L 145.128601 186.318849 
L 145.335256 239.12661 
L 145.541911 182.440821 
L 145.748565 196.292915 
L 145.95522 246.119787 
L 146.161875 233.709633 
L 146.36853 200.390571 
L 146.575184 199.411169 
L 146.781839 200.436359 
L 146.988494 214.167386 
L 147.195148 185.053853 
L 147.401803 188.887644 
L 147.815113 203.568582 
L 148.021767 223.501969 
L 148.435077 209.91374 
L 148.641731 178.08163 
L 148.848386 195.404314 
L 149.055041 197.866787 
L 149.261696 183.396165 
L 149.88166 225.022293 
L 150.088314 199.387111 
L 150.294969 219.400433 
L 150.501624 223.92648 
L 150.708278 215.302002 
L 150.914933 223.389439 
L 151.328243 195.156747 
L 151.741552 208.380223 
L 151.948207 204.988792 
L 152.154861 205.190571 
L 152.361516 183.746949 
L 152.568171 182.353901 
L 152.774826 185.039884 
L 152.98148 185.316941 
L 153.188135 207.51956 
L 153.39479 252.233675 
L 153.601444 183.612689 
L 153.808099 198.479884 
L 154.014754 242.762503 
L 154.221408 184.322794 
L 154.428063 196.988275 
L 154.634718 181.787369 
L 154.841373 190.34821 
L 155.048027 221.95914 
L 155.254682 208.033319 
L 155.461337 246.300611 
L 155.667991 186.853562 
L 155.874646 250.686189 
L 156.081301 263.341581 
L 156.287956 223.138768 
L 156.49461 218.949536 
L 156.701265 198.29285 
L 156.90792 189.916715 
L 157.114574 189.763053 
L 157.321229 242.273578 
L 157.527884 204.847547 
L 157.734539 214.39167 
L 157.941193 210.890813 
L 158.147848 185.460514 
L 158.354503 185.252527 
L 158.561157 241.686868 
L 158.767812 265.060579 
L 158.974467 216.247256 
L 159.181121 214.072705 
L 159.387776 191.423845 
L 159.594431 193.68066 
L 159.801086 210.13104 
L 160.00774 207.254144 
L 160.214395 240.584847 
L 160.627704 172.095793 
L 160.834359 215.508437 
L 161.041014 223.047968 
L 161.247669 201.418865 
L 161.454323 207.641403 
L 161.660978 208.183877 
L 161.867633 216.289164 
L 162.074287 183.876553 
L 162.280942 210.795357 
L 162.487597 218.086545 
L 162.694251 272.782487 
L 162.900906 273.757232 
L 163.107561 271.500417 
L 163.314216 208.43222 
L 163.52087 248.047547 
L 163.727525 195.3042 
L 163.93418 207.440401 
L 164.140834 252.4145 
L 164.347489 225.215534 
L 164.554144 237.005607 
L 164.760799 226.430862 
L 164.967453 266.395421 
L 165.174108 255.991411 
L 165.380763 197.45547 
L 165.794072 254.377184 
L 166.000727 175.713837 
L 166.207382 192.099803 
L 166.414036 195.918849 
L 166.620691 180.755971 
L 166.827346 212.761921 
L 167.034 183.574661 
L 167.240655 229.567741 
L 167.653964 181.772624 
L 167.860619 186.058089 
L 168.067274 196.562212 
L 168.273929 179.061032 
L 168.480583 202.385074 
L 168.687238 246.110474 
L 169.100547 198.572236 
L 169.307202 279.265009 
L 169.513857 220.549019 
L 169.720512 234.880724 
L 169.927166 208.677458 
L 170.133821 236.446836 
L 170.340476 186.183036 
L 170.54713 208.838105 
L 170.753785 252.131234 
L 170.96044 180.446319 
L 171.167094 196.900579 
L 171.580404 180.788566 
L 171.787059 181.611201 
L 172.200368 224.312964 
L 172.407023 192.602697 
L 172.613677 207.88509 
L 173.026987 185.770943 
L 173.233642 223.510506 
L 173.440296 199.974597 
L 173.646951 257.694888 
L 173.853606 213.118914 
L 174.06026 227.708275 
L 174.266915 267.050425 
L 174.47357 221.793837 
L 174.680225 231.240175 
L 174.886879 175.682794 
L 175.093534 197.397264 
L 175.300189 259.233061 
L 175.713498 189.042082 
L 175.920153 181.148663 
L 176.126807 195.194774 
L 176.333462 222.800401 
L 176.540117 191.317523 
L 176.746772 241.345397 
L 176.953426 166.98226 
L 177.160081 253.377604 
L 177.366736 210.758881 
L 177.57339 203.532883 
L 177.780045 207.905268 
L 177.9867 209.871056 
L 178.193355 182.90724 
L 178.400009 200.591573 
L 178.606664 153.403344 
L 178.813319 182.605348 
L 179.019973 242.24952 
L 179.226628 174.048388 
L 179.433283 226.478202 
L 179.639938 198.769358 
L 179.846592 204.912737 
L 180.053247 182.837394 
L 180.673211 253.412527 
L 180.879866 200.922956 
L 181.08652 212.248938 
L 181.293175 215.777733 
L 181.49983 187.306787 
L 181.706485 232.588986 
L 181.913139 244.478396 
L 182.326449 192.080401 
L 182.739758 227.802179 
L 182.946413 195.537798 
L 183.153068 230.788501 
L 183.359722 221.998719 
L 183.566377 192.861905 
L 183.773032 187.357232 
L 183.979686 193.610037 
L 184.392996 230.065979 
L 184.59965 197.275421 
L 184.806305 238.792123 
L 185.01296 246.76315 
L 185.219615 248.319172 
L 185.426269 221.921888 
L 185.632924 243.887806 
L 185.839579 204.797879 
L 186.046233 237.226787 
L 186.252888 189.570587 
L 186.459543 218.01049 
L 186.666198 275.403279 
L 186.872852 251.619027 
L 187.079507 240.644605 
L 187.286162 203.472349 
L 187.492816 223.139544 
L 187.906126 177.414209 
L 188.112781 228.971719 
L 188.319435 175.48412 
L 188.52609 216.973659 
L 188.732745 180.716391 
L 188.939399 243.587466 
L 189.146054 235.240821 
L 189.352709 181.318622 
L 189.559363 216.729196 
L 189.766018 201.808453 
L 189.972673 201.326513 
L 190.385982 254.206448 
L 190.592637 187.903586 
L 190.799292 235.108889 
L 191.005946 216.202244 
L 191.212601 224.485251 
L 191.419256 253.703554 
L 191.625911 251.21935 
L 192.03922 200.999011 
L 192.452529 258.559431 
L 192.659184 214.710635 
L 192.865839 218.461387 
L 193.072493 253.115292 
L 193.279148 227.599625 
L 193.485803 242.94488 
L 193.692458 230.395033 
L 193.899112 184.675906 
L 194.105767 257.132236 
L 194.312422 242.439657 
L 194.519076 176.848453 
L 194.725731 183.330199 
L 194.932386 194.435777 
L 195.139041 197.190053 
L 195.345695 245.956036 
L 195.55235 223.26682 
L 195.759005 255.386852 
L 196.172314 231.742293 
L 196.378969 231.618897 
L 196.585624 182.090813 
L 196.792278 224.99125 
L 196.998933 192.543715 
L 197.205588 211.416213 
L 197.412242 213.183327 
L 197.618897 195.301872 
L 198.032206 216.400918 
L 198.238861 209.26184 
L 198.652171 235.167871 
L 198.858825 228.781581 
L 199.06548 242.487774 
L 199.272135 209.767062 
L 199.478789 202.345494 
L 199.685444 249.624524 
L 199.892099 216.400918 
L 200.098754 236.534532 
L 200.305408 195.596003 
L 200.718718 254.772204 
L 200.925372 252.41838 
L 201.132027 256.856731 
L 201.338682 235.052236 
L 201.545336 229.712867 
L 201.751991 196.432608 
L 201.958646 211.110441 
L 202.165301 186.973077 
L 202.371955 229.500999 
L 202.57861 182.466432 
L 202.785265 208.34918 
L 202.991919 215.169293 
L 203.198574 213.991994 
L 203.405229 230.174629 
L 203.611884 197.478752 
L 203.818538 235.039043 
L 204.025193 214.004411 
L 204.231848 212.428986 
L 204.438502 263.939932 
L 204.851812 202.257798 
L 205.265121 260.370005 
L 205.471776 215.172398 
L 205.678431 239.65201 
L 205.885085 217.669795 
L 206.09174 211.299027 
L 206.298395 176.33547 
L 206.505049 263.305106 
L 206.918359 206.353901 
L 207.125014 213.217475 
L 207.331668 232.872252 
L 207.538323 181.088129 
L 207.744978 228.416052 
L 207.951632 219.157523 
L 208.158287 265.129649 
L 208.778251 217.005478 
L 209.191561 228.085445 
L 209.398215 223.724702 
L 209.811525 265.351605 
L 210.01818 256.962276 
L 210.224834 261.176343 
L 210.638144 201.973756 
L 210.844798 233.27969 
L 211.051453 242.862616 
L 211.464762 277.07028 
L 211.671417 201.827078 
L 211.878072 244.30766 
L 212.084727 218.556068 
L 212.291381 260.363796 
L 212.498036 266.97049 
L 212.704691 211.166319 
L 212.911345 231.783424 
L 213.118 215.154548 
L 213.324655 224.111185 
L 213.53131 215.514645 
L 213.737964 240.549924 
L 213.944619 235.257119 
L 214.151274 208.676682 
L 214.357928 242.955745 
L 214.564583 246.500838 
L 214.771238 224.253206 
L 214.977892 245.002244 
L 215.184547 196.961888 
L 215.391202 243.910312 
L 215.597857 212.712252 
L 215.804511 209.621937 
L 216.011166 219.69534 
L 216.217821 192.934855 
L 216.424475 235.018089 
L 216.63113 204.569714 
L 216.837785 234.063521 
L 217.04444 247.142648 
L 217.251094 241.165348 
L 217.457749 201.449132 
L 217.664404 263.246901 
L 217.871058 224.384362 
L 218.077713 269.735631 
L 218.284368 233.00108 
L 218.491023 231.840078 
L 218.697677 237.487547 
L 218.904332 225.481727 
L 219.110987 255.899835 
L 219.317641 248.603214 
L 219.524296 260.886868 
L 219.730951 246.126771 
L 219.937605 258.515971 
L 220.14426 217.045057 
L 220.350915 268.535049 
L 220.55757 236.023101 
L 220.764224 263.868534 
L 220.970879 228.549536 
L 221.177534 244.121403 
L 221.384188 275.395518 
L 221.590843 266.739221 
L 222.004153 236.478655 
L 222.210807 241.555712 
L 222.417462 200.268728 
L 222.624117 217.827337 
L 222.830771 250.08939 
L 223.037426 240.61977 
L 223.244081 251.064912 
L 223.450735 235.22142 
L 223.65739 248.370393 
L 223.864045 235.791056 
L 224.0707 240.687289 
L 224.277354 254.936731 
L 224.484009 280.724799 
L 224.690664 274.177863 
L 224.897318 278.426076 
L 225.103973 243.699221 
L 225.310628 268.912996 
L 225.517283 263.207321 
L 225.723937 253.13547 
L 225.930592 256.524572 
L 226.137247 251.532883 
L 226.343901 228.003958 
L 226.757211 269.234289 
L 226.963866 250.019544 
L 227.17052 276.158396 
L 227.377175 239.10876 
L 227.58383 231.653821 
L 227.790484 247.626917 
L 227.997139 220.344136 
L 228.203794 245.201694 
L 228.410448 204.030344 
L 228.823758 249.678849 
L 229.030413 270.504718 
L 229.237067 256.716262 
L 229.443722 280.349956 
L 229.650377 231.748501 
L 229.857031 232.358493 
L 230.063686 251.420352 
L 230.270341 240.338057 
L 230.476996 248.244669 
L 230.890305 219.575825 
L 231.510269 273.64315 
L 231.716924 232.266917 
L 231.923578 259.542713 
L 232.130233 221.294047 
L 232.543543 257.561403 
L 232.750197 244.088032 
L 232.956852 245.228857 
L 233.163507 261.161597 
L 233.370161 259.591605 
L 233.576816 234.33049 
L 233.783471 234.263748 
L 233.990126 266.07956 
L 234.19678 234.027822 
L 234.403435 246.876456 
L 234.61009 227.951185 
L 234.816744 281.882697 
L 235.023399 190.314839 
L 235.230054 230.983295 
L 235.436709 246.704944 
L 235.643363 272.982713 
L 235.850018 273.219415 
L 236.056673 237.93146 
L 236.263327 254.2988 
L 236.469982 282.228049 
L 236.883291 244.057766 
L 237.089946 260.400272 
L 237.296601 253.438137 
L 237.503256 254.116424 
L 237.70991 291.777604 
L 237.916565 241.193287 
L 238.12322 261.564378 
L 238.329874 255.625106 
L 238.536529 241.39817 
L 238.743184 260.071994 
L 238.949839 252.138218 
L 239.156493 220.8253 
L 239.363148 258.536149 
L 239.569803 215.167741 
L 239.776457 239.476618 
L 239.983112 240.583295 
L 240.189767 255.347272 
L 240.396422 213.809617 
L 240.809731 261.728129 
L 241.016386 215.725736 
L 241.22304 271.77049 
L 241.429695 231.440401 
L 241.63635 225.928744 
L 241.843004 196.085704 
L 242.049659 254.40357 
L 242.256314 264.480854 
L 242.462969 256.170684 
L 242.669623 235.426302 
L 242.876278 226.30669 
L 243.289587 270.124443 
L 243.496242 242.40939 
L 243.702897 190.601209 
L 243.909552 244.313869 
L 244.116206 262.619835 
L 244.322861 218.658509 
L 244.529516 260.389407 
L 244.73617 255.373659 
L 244.942825 223.234225 
L 245.14948 238.745559 
L 245.356134 241.242179 
L 245.562789 219.580482 
L 245.769444 219.585138 
L 245.976099 245.709245 
L 246.389408 169.486642 
L 246.596063 260.459253 
L 246.802717 256.137313 
L 247.009372 237.946205 
L 247.422682 258.155098 
L 247.629336 241.062907 
L 247.835991 179.770361 
L 248.042646 219.335243 
L 248.2493 221.292495 
L 248.455955 264.816116 
L 248.66261 240.990732 
L 248.869265 258.875292 
L 249.075919 222.001048 
L 249.282574 214.424265 
L 249.489229 247.322697 
L 249.695883 204.781581 
L 249.902538 259.494597 
L 250.109193 227.232543 
L 250.315847 228.333788 
L 250.522502 242.440433 
L 250.935812 204.272479 
L 251.142466 258.966868 
L 251.349121 230.379512 
L 251.555776 257.56994 
L 251.969085 188.490296 
L 252.382395 245.319657 
L 252.589049 207.657701 
L 252.795704 252.405963 
L 253.002359 224.431703 
L 253.209013 261.478234 
L 253.415668 218.039205 
L 253.622323 267.119496 
L 253.828977 252.846771 
L 254.242287 194.199075 
L 254.448942 209.460514 
L 254.655596 258.043344 
L 255.068906 246.605607 
L 255.27556 232.604508 
L 255.482215 194.629019 
L 255.68887 184.967709 
L 256.102179 232.956068 
L 256.308834 213.146852 
L 256.515489 210.723182 
L 256.722143 215.982616 
L 256.928798 238.748663 
L 257.135453 226.946173 
L 257.342108 222.026658 
L 257.548762 256.615373 
L 257.755417 256.623133 
L 257.962072 195.064395 
L 258.168726 187.480627 
L 258.375381 261.89188 
L 258.582036 240.112996 
L 258.78869 242.440433 
L 258.995345 240.431961 
L 259.408655 189.063036 
L 259.615309 196.581614 
L 259.821964 235.428631 
L 260.028619 230.927418 
L 260.235273 202.901937 
L 260.441928 250.32842 
L 260.648583 261.094855 
L 260.855238 263.323732 
L 261.061892 236.165122 
L 261.268547 235.361112 
L 261.475202 192.868889 
L 261.681856 245.197814 
L 261.888511 255.113675 
L 262.095166 235.241597 
L 262.30182 235.008776 
L 262.508475 238.749439 
L 262.71513 205.07416 
L 262.921785 191.846027 
L 263.335094 238.370716 
L 263.541749 238.677264 
L 263.748403 259.504686 
L 263.955058 194.440433 
L 264.161713 212.874451 
L 264.368368 202.724993 
L 264.575022 247.928808 
L 264.781677 245.383295 
L 264.988332 216.475421 
L 265.194986 231.156359 
L 265.401641 254.638719 
L 265.608296 229.46142 
L 265.814951 223.35762 
L 266.021605 250.279528 
L 266.22826 196.491589 
L 266.434915 253.163408 
L 266.641569 266.05395 
L 266.848224 261.691654 
L 267.054879 240.55458 
L 267.261533 269.356133 
L 267.468188 229.622842 
L 267.674843 226.925995 
L 267.881498 241.108695 
L 268.088152 212.659479 
L 268.294807 208.025559 
L 268.501462 243.303424 
L 268.708116 229.663198 
L 268.914771 185.079463 
L 269.121426 196.137701 
L 269.534735 203.449843 
L 269.74139 198.385203 
L 269.948045 227.952737 
L 270.154699 233.746108 
L 270.361354 198.798849 
L 270.568009 235.236165 
L 270.774664 249.267531 
L 270.981318 182.393481 
L 271.187973 260.10226 
L 271.394628 210.130264 
L 271.601282 219.67361 
L 271.807937 185.779479 
L 272.014592 204.88247 
L 272.221246 269.837297 
L 272.427901 187.480627 
L 272.634556 257.175696 
L 272.841211 221.053465 
L 273.047865 277.710538 
L 273.25452 239.406771 
L 273.461175 241.807935 
L 273.874484 205.033028 
L 274.081139 213.595421 
L 274.287794 256.802406 
L 274.494448 229.731492 
L 274.701103 225.41188 
L 274.907758 236.619124 
L 275.114412 234.20011 
L 275.321067 243.661193 
L 275.527722 241.979447 
L 275.734376 253.807547 
L 275.941031 201.32496 
L 276.147686 190.889132 
L 276.354341 167.548792 
L 276.560995 234.119399 
L 276.76765 210.249778 
L 276.974305 256.239754 
L 277.387614 208.459382 
L 277.594269 235.448808 
L 277.800924 238.05796 
L 278.007578 209.50087 
L 278.214233 226.697054 
L 278.420888 213.940773 
L 278.834197 244.122179 
L 279.247507 203.460708 
L 279.660816 268.227725 
L 279.867471 260.212462 
L 280.074125 267.034128 
L 280.28078 238.286901 
L 280.487435 247.424362 
L 280.694089 245.809358 
L 281.107399 224.940029 
L 281.314054 224.867078 
L 281.520708 234.471735 
L 281.727363 203.618251 
L 282.140672 265.653497 
L 282.347327 253.96509 
L 282.553982 214.445219 
L 282.760637 245.991735 
L 282.967291 227.000498 
L 283.380601 258.596682 
L 283.587255 231.487741 
L 283.79391 220.275842 
L 284.000565 260.29395 
L 284.207219 223.694435 
L 284.413874 268.584718 
L 284.827184 229.939479 
L 285.033838 276.348534 
L 285.653802 220.365866 
L 285.860457 243.571169 
L 286.067112 232.373238 
L 286.480421 235.245478 
L 286.687076 261.276456 
L 286.893731 229.386141 
L 287.100385 241.725672 
L 287.30704 245.475648 
L 287.513695 230.770652 
L 287.72035 244.992155 
L 287.927004 243.928938 
L 288.133659 215.353222 
L 288.340314 231.118331 
L 288.546968 223.247418 
L 288.753623 264.217766 
L 288.960278 232.792317 
L 289.166932 224.656763 
L 289.373587 230.401242 
L 289.580242 284.26834 
L 289.786897 216.020643 
L 289.993551 235.368097 
L 290.406861 245.665009 
L 290.613515 215.30821 
L 290.82017 273.401015 
L 291.026825 240.497927 
L 291.23348 247.616052 
L 291.440134 186.366965 
L 291.646789 225.791379 
L 291.853444 212.789859 
L 292.060098 244.024395 
L 292.266753 236.161242 
L 292.473408 239.095567 
L 292.680062 223.075906 
L 292.886717 242.675583 
L 293.093372 228.627919 
L 293.300027 242.943327 
L 293.506681 240.928647 
L 293.713336 246.465914 
L 294.126645 230.606901 
L 294.3333 233.230797 
L 294.539955 207.648388 
L 294.74661 228.891783 
L 294.953264 221.473319 
L 295.159919 233.014273 
L 295.366574 212.401048 
L 295.573228 242.653077 
L 295.779883 222.250167 
L 295.986538 250.60703 
L 296.193193 241.111023 
L 296.399847 243.594451 
L 296.606502 237.938445 
L 296.813157 217.400498 
L 297.019811 230.537054 
L 297.226466 232.595195 
L 297.433121 241.870797 
L 297.639775 284.233416 
L 297.84643 263.405995 
L 298.053085 257.63513 
L 298.25974 245.98475 
L 298.466394 219.357749 
L 298.673049 245.526868 
L 298.879704 256.091525 
L 299.086358 252.879366 
L 299.293013 275.096731 
L 299.499668 225.38239 
L 299.706323 252.784686 
L 299.912977 231.323214 
L 300.119632 221.752705 
L 300.326287 253.386917 
L 300.532941 218.650749 
L 300.739596 257.28357 
L 300.946251 227.593416 
L 301.152906 253.171945 
L 301.35956 217.415243 
L 301.566215 217.019447 
L 301.77287 258.202438 
L 301.979524 210.605995 
L 302.392834 244.770975 
L 302.599488 253.376828 
L 303.012798 203.851848 
L 303.219453 178.717232 
L 303.426107 228.56661 
L 303.839417 246.230765 
L 304.046071 242.43112 
L 304.252726 246.687871 
L 304.459381 228.482794 
L 304.666036 240.358234 
L 304.87269 228.930587 
L 305.079345 250.928323 
L 305.286 237.700967 
L 305.492654 240.666335 
L 305.905964 200.288905 
L 306.112618 241.05437 
L 306.525928 238.683473 
L 306.732583 229.00897 
L 306.939237 209.601759 
L 307.145892 245.130296 
L 307.352547 204.917394 
L 307.559201 222.815922 
L 307.765856 229.289132 
L 307.972511 217.330652 
L 308.179166 220.897475 
L 308.38582 204.879366 
L 308.592475 213.900417 
L 308.79913 254.878525 
L 309.212439 199.601306 
L 309.419094 202.166222 
L 309.625749 264.123085 
L 310.039058 210.969196 
L 310.245713 244.985171 
L 310.452367 228.825041 
L 310.659022 244.846254 
L 310.865677 240.265882 
L 311.072331 217.416795 
L 311.278986 235.19969 
L 311.485641 239.896472 
L 311.692296 230.102454 
L 311.89895 229.301549 
L 312.105605 242.475357 
L 312.31226 229.542131 
L 312.518914 228.625591 
L 312.932224 247.334338 
L 313.138879 238.463845 
L 313.552188 245.117103 
L 313.758843 206.322082 
L 314.172152 234.610652 
L 314.378807 243.837361 
L 314.585461 226.819673 
L 314.792116 258.222616 
L 314.998771 266.578574 
L 315.205426 216.288388 
L 315.41208 247.029342 
L 315.618735 207.705817 
L 315.82539 232.064362 
L 316.032044 234.785268 
L 316.238699 250.323764 
L 316.445354 230.607677 
L 316.652009 238.791347 
L 316.858663 220.479172 
L 317.065318 220.606448 
L 317.271973 215.185591 
L 317.478627 240.897604 
L 317.891937 198.653724 
L 318.098592 249.426626 
L 318.305246 231.721339 
L 318.511901 251.726901 
L 318.718556 234.557879 
L 318.92521 247.916391 
L 319.131865 220.774079 
L 319.33852 250.053691 
L 319.751829 221.100029 
L 319.958484 279.30226 
L 320.165139 199.727806 
L 320.371793 246.825235 
L 320.578448 239.637264 
L 320.785103 268.160207 
L 321.198412 210.16053 
L 321.405067 230.724863 
L 321.611722 234.457766 
L 322.025031 203.477782 
L 322.231686 254.169973 
L 322.644995 258.37783 
L 322.85165 249.592705 
L 323.058304 210.497345 
L 323.264959 250.862357 
L 323.471614 250.544168 
L 323.678269 262.705203 
L 323.884923 250.08939 
L 324.091578 247.079011 
L 324.298233 211.844605 
L 324.504887 245.142713 
L 324.711542 242.915389 
L 324.918197 270.405381 
L 325.124852 239.523182 
L 325.331506 243.078364 
L 325.744816 215.038914 
L 325.95147 245.70226 
L 326.158125 247.827143 
L 326.571435 207.807483 
L 326.778089 244.925413 
L 326.984744 251.064912 
L 327.191399 246.697184 
L 327.398053 254.880078 
L 327.604708 283.964896 
L 327.811363 226.099479 
L 328.018017 225.165866 
L 328.224672 247.759625 
L 328.431327 202.662907 
L 328.637982 237.841436 
L 328.844636 206.809455 
L 329.051291 266.152511 
L 329.257946 253.857992 
L 329.4646 201.855793 
L 329.671255 251.479334 
L 330.291219 226.094823 
L 330.497874 243.849002 
L 330.704529 218.154839 
L 330.911183 238.002082 
L 331.324493 200.18336 
L 331.531148 248.770846 
L 331.737802 221.501258 
L 331.944457 242.3799 
L 332.151112 246.818251 
L 332.357766 241.388081 
L 332.564421 241.548728 
L 332.771076 220.127612 
L 332.97773 184.862163 
L 333.184385 219.763635 
L 333.597695 231.831541 
L 333.804349 214.80842 
L 334.217659 242.042309 
L 334.630968 191.542584 
L 335.044278 250.930652 
L 335.250932 226.464233 
L 335.457587 227.823133 
L 335.664242 228.278687 
L 335.870896 189.603958 
L 336.077551 234.887709 
L 336.284206 255.045381 
L 336.697515 229.483926 
L 336.90417 216.277523 
L 337.110825 250.13285 
L 337.317479 215.399787 
L 337.730789 245.976989 
L 337.937443 241.903392 
L 338.144098 224.134467 
L 338.350753 243.307305 
L 338.557408 234.040239 
L 338.764062 183.404702 
L 338.970717 231.854047 
L 339.590681 202.756812 
L 339.797336 197.273869 
L 340.003991 238.555421 
L 340.210645 252.672155 
L 340.4173 204.129681 
L 340.623955 199.806189 
L 340.830609 211.370425 
L 341.037264 207.759366 
L 341.243919 227.244184 
L 341.450573 232.733335 
L 341.657228 211.250134 
L 341.863883 265.987984 
L 342.070538 228.441662 
L 342.277192 235.92066 
L 342.483847 229.532818 
L 342.690502 212.147272 
L 342.897156 205.566189 
L 343.103811 214.045542 
L 343.310466 241.343069 
L 343.517121 215.951573 
L 343.723775 236.339738 
L 343.93043 206.152899 
L 344.137085 229.989148 
L 344.343739 228.046642 
L 344.550394 214.464621 
L 344.757049 228.887903 
L 344.963703 212.804605 
L 345.170358 219.204863 
L 345.377013 234.263748 
L 345.583668 224.022713 
L 345.790322 254.575082 
L 345.996977 230.839722 
L 346.203632 262.907757 
L 346.410286 257.542002 
L 346.616941 223.976149 
L 346.823596 263.393578 
L 347.030251 225.239593 
L 347.236905 223.008388 
L 347.44356 231.112899 
L 347.650215 251.63222 
L 347.856869 238.277588 
L 348.063524 244.86488 
L 348.270179 216.019867 
L 348.476834 247.540773 
L 348.683488 242.436553 
L 348.890143 228.978703 
L 349.096798 240.310894 
L 349.303452 219.073707 
L 349.510107 238.337345 
L 349.716762 269.944395 
L 350.130071 213.278008 
L 350.336726 211.357232 
L 350.543381 215.97796 
L 350.750035 246.597846 
L 350.95669 216.185947 
L 351.369999 230.310441 
L 351.576654 250.325316 
L 351.989964 204.196424 
L 352.196618 245.476424 
L 352.403273 232.990215 
L 352.609928 240.631411 
L 352.816582 222.608711 
L 353.023237 234.920304 
L 353.436546 236.182972 
L 353.643201 222.682438 
L 353.849856 238.494112 
L 354.056511 214.550765 
L 354.263165 224.188016 
L 354.46982 226.349374 
L 354.676475 233.819835 
L 354.883129 253.688808 
L 355.089784 232.065914 
L 355.296439 249.497248 
L 355.503094 236.358364 
L 355.709748 244.23471 
L 355.916403 221.106238 
L 356.123058 273.779738 
L 356.536367 230.05977 
L 356.743022 263.631832 
L 356.949677 239.046674 
L 357.156331 255.431088 
L 357.362986 257.32703 
L 357.569641 231.386852 
L 357.776295 239.748243 
L 357.98295 260.40648 
L 358.189605 212.515906 
L 358.396259 295.488 
L 358.602914 223.498865 
L 358.809569 260.255922 
L 359.016224 231.393837 
L 359.222878 268.76011 
L 359.429533 224.25631 
L 359.842842 237.590765 
L 360.049497 216.531298 
L 360.256152 242.157167 
L 360.462807 243.455534 
L 360.669461 215.285704 
L 360.876116 260.507369 
L 361.082771 256.963053 
L 361.289425 227.083538 
L 361.49608 248.707208 
L 361.702735 247.923376 
L 361.90939 267.496666 
L 362.116044 272.910538 
L 362.322699 220.735276 
L 362.529354 257.025138 
L 362.736008 228.040433 
L 362.942663 215.953125 
L 363.149318 251.760272 
L 363.355972 208.959172 
L 363.562627 260.345947 
L 363.975937 200.361856 
L 364.389246 256.113255 
L 364.595901 231.769455 
L 364.802555 233.659964 
L 365.00921 219.801662 
L 365.215865 245.564896 
L 365.629174 233.751541 
L 365.835829 237.772365 
L 366.042484 209.291331 
L 366.249138 234.443796 
L 366.662448 235.669989 
L 366.869102 264.221646 
L 367.075757 223.962179 
L 367.282412 270.11513 
L 367.489067 244.476844 
L 367.695721 238.212398 
L 367.902376 235.832964 
L 368.109031 214.494888 
L 368.315685 222.119787 
L 368.52234 212.22488 
L 368.728995 259.650587 
L 368.93565 246.512479 
L 369.142304 249.462325 
L 369.348959 241.433093 
L 369.762268 272.146884 
L 369.968923 206.18239 
L 370.175578 258.841921 
L 370.382233 253.521177 
L 370.588887 241.682988 
L 370.795542 248.638137 
L 371.002197 219.652656 
L 371.208851 260.705268 
L 371.415506 230.92509 
L 371.828815 286.809973 
L 372.03547 246.012689 
L 372.242125 242.656957 
L 372.44878 248.350991 
L 372.655434 235.758461 
L 372.862089 270.144621 
L 373.068744 235.090264 
L 373.275398 246.467466 
L 373.482053 225.359108 
L 373.688708 252.097086 
L 373.895363 261.515486 
L 374.308672 238.08745 
L 374.515327 256.777572 
L 374.721981 247.262939 
L 374.928636 246.569132 
L 375.135291 231.210684 
L 375.341945 225.130943 
L 375.5486 272.246222 
L 375.755255 244.424071 
L 375.96191 241.11956 
L 376.581874 290.142422 
L 376.788528 224.780158 
L 376.995183 252.572818 
L 377.201838 249.218639 
L 377.408493 251.07112 
L 377.615147 238.980708 
L 377.821802 271.948986 
L 378.028457 264.9853 
L 378.235111 261.898089 
L 378.441766 264.913901 
L 378.648421 269.699156 
L 378.855076 239.106432 
L 379.06173 254.760563 
L 379.268385 248.115065 
L 379.47504 236.892301 
L 379.681694 288.182842 
L 379.888349 268.398461 
L 380.095004 279.307693 
L 380.301658 258.120951 
L 380.508313 262.901549 
L 380.714968 253.201436 
L 380.921623 265.604605 
L 381.128277 267.829601 
L 381.334932 253.150215 
L 381.541587 255.5118 
L 381.748241 270.11513 
L 381.954896 250.478202 
L 382.368206 263.576731 
L 382.57486 262.83015 
L 382.781515 253.218509 
L 382.98817 226.620999 
L 383.194824 283.121306 
L 383.401479 251.120013 
L 383.608134 262.753319 
L 383.814788 263.055211 
L 384.021443 244.540482 
L 384.228098 240.364443 
L 384.434753 272.919851 
L 384.848062 229.307757 
L 385.054717 282.678946 
L 385.261371 222.798849 
L 385.468026 268.119075 
L 385.674681 268.451234 
L 385.881336 250.298154 
L 386.08799 253.285251 
L 386.294645 266.143198 
L 386.5013 266.846319 
L 386.707954 272.655987 
L 386.914609 268.966545 
L 387.121264 246.560595 
L 387.327919 255.951832 
L 387.534573 246.394516 
L 387.741228 230.209552 
L 387.947883 249.293918 
L 388.154537 252.111832 
L 388.361192 244.012753 
L 388.567847 202.55969 
L 388.774501 240.705914 
L 388.981156 248.631929 
L 389.187811 246.915259 
L 389.394466 246.29285 
L 389.60112 246.48454 
L 389.807775 248.102648 
L 390.01443 261.394419 
L 390.427739 258.137248 
L 390.634394 263.059091 
L 390.841049 248.964863 
L 391.047703 248.253206 
L 391.254358 268.514095 
L 391.461013 207.383748 
L 391.667667 244.76399 
L 391.874322 248.977281 
L 392.080977 247.193869 
L 392.287632 231.890522 
L 392.494286 259.490716 
L 392.700941 250.818121 
L 392.907596 216.48163 
L 393.11425 258.089908 
L 393.320905 240.044702 
L 393.52756 245.314225 
L 393.734214 229.887483 
L 393.940869 240.868113 
L 394.147524 238.027693 
L 394.354179 238.306302 
L 394.560833 228.194871 
L 394.767488 245.030959 
L 395.180797 230.291816 
L 395.387452 232.157491 
L 395.594107 242.659285 
L 395.800762 244.899803 
L 396.007416 270.022778 
L 396.214071 225.1907 
L 396.420726 238.582584 
L 396.62738 225.477846 
L 396.834035 258.776731 
L 397.247344 233.746884 
L 397.453999 224.505429 
L 397.660654 251.362147 
L 397.867309 248.063069 
L 398.073963 230.106335 
L 398.280618 234.20011 
L 398.487273 248.195001 
L 398.487273 248.195001 
" clip-path="url(#p4b2f2421ea)" style="fill: none; stroke: #1f77b4; stroke-width: 1.5; stroke-linecap: square"/>
   </g>
   <g id="patch_3">
    <path d="M 57.6 307.584 
L 57.6 41.472 
" style="fill: none; stroke: #000000; stroke-width: 0.8; stroke-linejoin: miter; stroke-linecap: square"/>
   </g>
   <g id="patch_4">
    <path d="M 414.72 307.584 
L 414.72 41.472 
" style="fill: none; stroke: #000000; stroke-width: 0.8; stroke-linejoin: miter; stroke-linecap: square"/>
   </g>
   <g id="patch_5">
    <path d="M 57.6 307.584 
L 414.72 307.584 
" style="fill: none; stroke: #000000; stroke-width: 0.8; stroke-linejoin: miter; stroke-linecap: square"/>
   </g>
   <g id="patch_6">
    <path d="M 57.6 41.472 
L 414.72 41.472 
" style="fill: none; stroke: #000000; stroke-width: 0.8; stroke-linejoin: miter; stroke-linecap: square"/>
   </g>
  </g>
 </g>
 <defs>
  <clipPath id="p4b2f2421ea">
   <rect x="57.6" y="41.472" width="357.12" height="266.112"/>
  </clipPath>
 </defs>
</svg>
