<?xml version="1.0" encoding="utf-8" standalone="no"?>
<!DOCTYPE svg PUBLIC "-//W3C//DTD SVG 1.1//EN"
  "http://www.w3.org/Graphics/SVG/1.1/DTD/svg11.dtd">
<svg xmlns:xlink="http://www.w3.org/1999/xlink" width="460.8pt" height="345.6pt" viewBox="0 0 460.8 345.6" xmlns="http://www.w3.org/2000/svg" version="1.1">
 <metadata>
  <rdf:RDF xmlns:dc="http://purl.org/dc/elements/1.1/" xmlns:cc="http://creativecommons.org/ns#" xmlns:rdf="http://www.w3.org/1999/02/22-rdf-syntax-ns#">
   <cc:Work>
    <dc:type rdf:resource="http://purl.org/dc/dcmitype/StillImage"/>
    <dc:date>2025-09-11T12:49:16.795105</dc:date>
    <dc:format>image/svg+xml</dc:format>
    <dc:creator>
     <cc:Agent>
      <dc:title>Matplotlib v3.9.1, https://matplotlib.org/</dc:title>
     </cc:Agent>
    </dc:creator>
   </cc:Work>
  </rdf:RDF>
 </metadata>
 <defs>
  <style type="text/css">*{stroke-linejoin: round; stroke-linecap: butt}</style>
 </defs>
 <g id="figure_1">
  <g id="patch_1">
   <path d="M 0 345.6 
L 460.8 345.6 
L 460.8 0 
L 0 0 
z
" style="fill: #ffffff"/>
  </g>
  <g id="axes_1">
   <g id="patch_2">
    <path d="M 57.6 307.584 
L 414.72 307.584 
L 414.72 41.472 
L 57.6 41.472 
z
" style="fill: #ffffff"/>
   </g>
   <g id="matplotlib.axis_1">
    <g id="xtick_1">
     <g id="line2d_1">
      <defs>
       <path id="mbea918de29" d="M 0 0 
L 0 3.5 
" style="stroke: #000000; stroke-width: 0.8"/>
      </defs>
      <g>
       <use xlink:href="#mbea918de29" x="87.53493" y="307.584" style="stroke: #000000; stroke-width: 0.8"/>
      </g>
     </g>
     <g id="text_1">
      <!-- 1.6 -->
      <g transform="translate(79.583368 322.182437) scale(0.1 -0.1)">
       <defs>
        <path id="DejaVuSans-31" d="M 794 531 
L 1825 531 
L 1825 4091 
L 703 3866 
L 703 4441 
L 1819 4666 
L 2450 4666 
L 2450 531 
L 3481 531 
L 3481 0 
L 794 0 
L 794 531 
z
" transform="scale(0.015625)"/>
        <path id="DejaVuSans-2e" d="M 684 794 
L 1344 794 
L 1344 0 
L 684 0 
L 684 794 
z
" transform="scale(0.015625)"/>
        <path id="DejaVuSans-36" d="M 2113 2584 
Q 1688 2584 1439 2293 
Q 1191 2003 1191 1497 
Q 1191 994 1439 701 
Q 1688 409 2113 409 
Q 2538 409 2786 701 
Q 3034 994 3034 1497 
Q 3034 2003 2786 2293 
Q 2538 2584 2113 2584 
z
M 3366 4563 
L 3366 3988 
Q 3128 4100 2886 4159 
Q 2644 4219 2406 4219 
Q 1781 4219 1451 3797 
Q 1122 3375 1075 2522 
Q 1259 2794 1537 2939 
Q 1816 3084 2150 3084 
Q 2853 3084 3261 2657 
Q 3669 2231 3669 1497 
Q 3669 778 3244 343 
Q 2819 -91 2113 -91 
Q 1303 -91 875 529 
Q 447 1150 447 2328 
Q 447 3434 972 4092 
Q 1497 4750 2381 4750 
Q 2619 4750 2861 4703 
Q 3103 4656 3366 4563 
z
" transform="scale(0.015625)"/>
       </defs>
       <use xlink:href="#DejaVuSans-31"/>
       <use xlink:href="#DejaVuSans-2e" x="63.623047"/>
       <use xlink:href="#DejaVuSans-36" x="95.410156"/>
      </g>
     </g>
    </g>
    <g id="xtick_2">
     <g id="line2d_2">
      <g>
       <use xlink:href="#mbea918de29" x="133.424315" y="307.584" style="stroke: #000000; stroke-width: 0.8"/>
      </g>
     </g>
     <g id="text_2">
      <!-- 1.8 -->
      <g transform="translate(125.472752 322.182437) scale(0.1 -0.1)">
       <defs>
        <path id="DejaVuSans-38" d="M 2034 2216 
Q 1584 2216 1326 1975 
Q 1069 1734 1069 1313 
Q 1069 891 1326 650 
Q 1584 409 2034 409 
Q 2484 409 2743 651 
Q 3003 894 3003 1313 
Q 3003 1734 2745 1975 
Q 2488 2216 2034 2216 
z
M 1403 2484 
Q 997 2584 770 2862 
Q 544 3141 544 3541 
Q 544 4100 942 4425 
Q 1341 4750 2034 4750 
Q 2731 4750 3128 4425 
Q 3525 4100 3525 3541 
Q 3525 3141 3298 2862 
Q 3072 2584 2669 2484 
Q 3125 2378 3379 2068 
Q 3634 1759 3634 1313 
Q 3634 634 3220 271 
Q 2806 -91 2034 -91 
Q 1263 -91 848 271 
Q 434 634 434 1313 
Q 434 1759 690 2068 
Q 947 2378 1403 2484 
z
M 1172 3481 
Q 1172 3119 1398 2916 
Q 1625 2713 2034 2713 
Q 2441 2713 2670 2916 
Q 2900 3119 2900 3481 
Q 2900 3844 2670 4047 
Q 2441 4250 2034 4250 
Q 1625 4250 1398 4047 
Q 1172 3844 1172 3481 
z
" transform="scale(0.015625)"/>
       </defs>
       <use xlink:href="#DejaVuSans-31"/>
       <use xlink:href="#DejaVuSans-2e" x="63.623047"/>
       <use xlink:href="#DejaVuSans-38" x="95.410156"/>
      </g>
     </g>
    </g>
    <g id="xtick_3">
     <g id="line2d_3">
      <g>
       <use xlink:href="#mbea918de29" x="179.313699" y="307.584" style="stroke: #000000; stroke-width: 0.8"/>
      </g>
     </g>
     <g id="text_3">
      <!-- 2.0 -->
      <g transform="translate(171.362137 322.182437) scale(0.1 -0.1)">
       <defs>
        <path id="DejaVuSans-32" d="M 1228 531 
L 3431 531 
L 3431 0 
L 469 0 
L 469 531 
Q 828 903 1448 1529 
Q 2069 2156 2228 2338 
Q 2531 2678 2651 2914 
Q 2772 3150 2772 3378 
Q 2772 3750 2511 3984 
Q 2250 4219 1831 4219 
Q 1534 4219 1204 4116 
Q 875 4013 500 3803 
L 500 4441 
Q 881 4594 1212 4672 
Q 1544 4750 1819 4750 
Q 2544 4750 2975 4387 
Q 3406 4025 3406 3419 
Q 3406 3131 3298 2873 
Q 3191 2616 2906 2266 
Q 2828 2175 2409 1742 
Q 1991 1309 1228 531 
z
" transform="scale(0.015625)"/>
        <path id="DejaVuSans-30" d="M 2034 4250 
Q 1547 4250 1301 3770 
Q 1056 3291 1056 2328 
Q 1056 1369 1301 889 
Q 1547 409 2034 409 
Q 2525 409 2770 889 
Q 3016 1369 3016 2328 
Q 3016 3291 2770 3770 
Q 2525 4250 2034 4250 
z
M 2034 4750 
Q 2819 4750 3233 4129 
Q 3647 3509 3647 2328 
Q 3647 1150 3233 529 
Q 2819 -91 2034 -91 
Q 1250 -91 836 529 
Q 422 1150 422 2328 
Q 422 3509 836 4129 
Q 1250 4750 2034 4750 
z
" transform="scale(0.015625)"/>
       </defs>
       <use xlink:href="#DejaVuSans-32"/>
       <use xlink:href="#DejaVuSans-2e" x="63.623047"/>
       <use xlink:href="#DejaVuSans-30" x="95.410156"/>
      </g>
     </g>
    </g>
    <g id="xtick_4">
     <g id="line2d_4">
      <g>
       <use xlink:href="#mbea918de29" x="225.203083" y="307.584" style="stroke: #000000; stroke-width: 0.8"/>
      </g>
     </g>
     <g id="text_4">
      <!-- 2.2 -->
      <g transform="translate(217.251521 322.182437) scale(0.1 -0.1)">
       <use xlink:href="#DejaVuSans-32"/>
       <use xlink:href="#DejaVuSans-2e" x="63.623047"/>
       <use xlink:href="#DejaVuSans-32" x="95.410156"/>
      </g>
     </g>
    </g>
    <g id="xtick_5">
     <g id="line2d_5">
      <g>
       <use xlink:href="#mbea918de29" x="271.092468" y="307.584" style="stroke: #000000; stroke-width: 0.8"/>
      </g>
     </g>
     <g id="text_5">
      <!-- 2.4 -->
      <g transform="translate(263.140905 322.182437) scale(0.1 -0.1)">
       <defs>
        <path id="DejaVuSans-34" d="M 2419 4116 
L 825 1625 
L 2419 1625 
L 2419 4116 
z
M 2253 4666 
L 3047 4666 
L 3047 1625 
L 3713 1625 
L 3713 1100 
L 3047 1100 
L 3047 0 
L 2419 0 
L 2419 1100 
L 313 1100 
L 313 1709 
L 2253 4666 
z
" transform="scale(0.015625)"/>
       </defs>
       <use xlink:href="#DejaVuSans-32"/>
       <use xlink:href="#DejaVuSans-2e" x="63.623047"/>
       <use xlink:href="#DejaVuSans-34" x="95.410156"/>
      </g>
     </g>
    </g>
    <g id="xtick_6">
     <g id="line2d_6">
      <g>
       <use xlink:href="#mbea918de29" x="316.981852" y="307.584" style="stroke: #000000; stroke-width: 0.8"/>
      </g>
     </g>
     <g id="text_6">
      <!-- 2.6 -->
      <g transform="translate(309.03029 322.182437) scale(0.1 -0.1)">
       <use xlink:href="#DejaVuSans-32"/>
       <use xlink:href="#DejaVuSans-2e" x="63.623047"/>
       <use xlink:href="#DejaVuSans-36" x="95.410156"/>
      </g>
     </g>
    </g>
    <g id="xtick_7">
     <g id="line2d_7">
      <g>
       <use xlink:href="#mbea918de29" x="362.871237" y="307.584" style="stroke: #000000; stroke-width: 0.8"/>
      </g>
     </g>
     <g id="text_7">
      <!-- 2.8 -->
      <g transform="translate(354.919674 322.182437) scale(0.1 -0.1)">
       <use xlink:href="#DejaVuSans-32"/>
       <use xlink:href="#DejaVuSans-2e" x="63.623047"/>
       <use xlink:href="#DejaVuSans-38" x="95.410156"/>
      </g>
     </g>
    </g>
    <g id="xtick_8">
     <g id="line2d_8">
      <g>
       <use xlink:href="#mbea918de29" x="408.760621" y="307.584" style="stroke: #000000; stroke-width: 0.8"/>
      </g>
     </g>
     <g id="text_8">
      <!-- 3.0 -->
      <g transform="translate(400.809058 322.182437) scale(0.1 -0.1)">
       <defs>
        <path id="DejaVuSans-33" d="M 2597 2516 
Q 3050 2419 3304 2112 
Q 3559 1806 3559 1356 
Q 3559 666 3084 287 
Q 2609 -91 1734 -91 
Q 1441 -91 1130 -33 
Q 819 25 488 141 
L 488 750 
Q 750 597 1062 519 
Q 1375 441 1716 441 
Q 2309 441 2620 675 
Q 2931 909 2931 1356 
Q 2931 1769 2642 2001 
Q 2353 2234 1838 2234 
L 1294 2234 
L 1294 2753 
L 1863 2753 
Q 2328 2753 2575 2939 
Q 2822 3125 2822 3475 
Q 2822 3834 2567 4026 
Q 2313 4219 1838 4219 
Q 1578 4219 1281 4162 
Q 984 4106 628 3988 
L 628 4550 
Q 988 4650 1302 4700 
Q 1616 4750 1894 4750 
Q 2613 4750 3031 4423 
Q 3450 4097 3450 3541 
Q 3450 3153 3228 2886 
Q 3006 2619 2597 2516 
z
" transform="scale(0.015625)"/>
       </defs>
       <use xlink:href="#DejaVuSans-33"/>
       <use xlink:href="#DejaVuSans-2e" x="63.623047"/>
       <use xlink:href="#DejaVuSans-30" x="95.410156"/>
      </g>
     </g>
    </g>
    <g id="text_9">
     <!-- 1e10 -->
     <g transform="translate(389.479375 334.860562) scale(0.1 -0.1)">
      <defs>
       <path id="DejaVuSans-65" d="M 3597 1894 
L 3597 1613 
L 953 1613 
Q 991 1019 1311 708 
Q 1631 397 2203 397 
Q 2534 397 2845 478 
Q 3156 559 3463 722 
L 3463 178 
Q 3153 47 2828 -22 
Q 2503 -91 2169 -91 
Q 1331 -91 842 396 
Q 353 884 353 1716 
Q 353 2575 817 3079 
Q 1281 3584 2069 3584 
Q 2775 3584 3186 3129 
Q 3597 2675 3597 1894 
z
M 3022 2063 
Q 3016 2534 2758 2815 
Q 2500 3097 2075 3097 
Q 1594 3097 1305 2825 
Q 1016 2553 972 2059 
L 3022 2063 
z
" transform="scale(0.015625)"/>
      </defs>
      <use xlink:href="#DejaVuSans-31"/>
      <use xlink:href="#DejaVuSans-65" x="63.623047"/>
      <use xlink:href="#DejaVuSans-31" x="125.146484"/>
      <use xlink:href="#DejaVuSans-30" x="188.769531"/>
     </g>
    </g>
   </g>
   <g id="matplotlib.axis_2">
    <g id="ytick_1">
     <g id="line2d_9">
      <defs>
       <path id="m730a21ecec" d="M 0 0 
L -3.5 0 
" style="stroke: #000000; stroke-width: 0.8"/>
      </defs>
      <g>
       <use xlink:href="#m730a21ecec" x="57.6" y="303.210352" style="stroke: #000000; stroke-width: 0.8"/>
      </g>
     </g>
     <g id="text_10">
      <!-- 0.3 -->
      <g transform="translate(34.696875 307.00957) scale(0.1 -0.1)">
       <use xlink:href="#DejaVuSans-30"/>
       <use xlink:href="#DejaVuSans-2e" x="63.623047"/>
       <use xlink:href="#DejaVuSans-33" x="95.410156"/>
      </g>
     </g>
    </g>
    <g id="ytick_2">
     <g id="line2d_10">
      <g>
       <use xlink:href="#m730a21ecec" x="57.6" y="258.310692" style="stroke: #000000; stroke-width: 0.8"/>
      </g>
     </g>
     <g id="text_11">
      <!-- 0.4 -->
      <g transform="translate(34.696875 262.109911) scale(0.1 -0.1)">
       <use xlink:href="#DejaVuSans-30"/>
       <use xlink:href="#DejaVuSans-2e" x="63.623047"/>
       <use xlink:href="#DejaVuSans-34" x="95.410156"/>
      </g>
     </g>
    </g>
    <g id="ytick_3">
     <g id="line2d_11">
      <g>
       <use xlink:href="#m730a21ecec" x="57.6" y="213.411033" style="stroke: #000000; stroke-width: 0.8"/>
      </g>
     </g>
     <g id="text_12">
      <!-- 0.5 -->
      <g transform="translate(34.696875 217.210252) scale(0.1 -0.1)">
       <defs>
        <path id="DejaVuSans-35" d="M 691 4666 
L 3169 4666 
L 3169 4134 
L 1269 4134 
L 1269 2991 
Q 1406 3038 1543 3061 
Q 1681 3084 1819 3084 
Q 2600 3084 3056 2656 
Q 3513 2228 3513 1497 
Q 3513 744 3044 326 
Q 2575 -91 1722 -91 
Q 1428 -91 1123 -41 
Q 819 9 494 109 
L 494 744 
Q 775 591 1075 516 
Q 1375 441 1709 441 
Q 2250 441 2565 725 
Q 2881 1009 2881 1497 
Q 2881 1984 2565 2268 
Q 2250 2553 1709 2553 
Q 1456 2553 1204 2497 
Q 953 2441 691 2322 
L 691 4666 
z
" transform="scale(0.015625)"/>
       </defs>
       <use xlink:href="#DejaVuSans-30"/>
       <use xlink:href="#DejaVuSans-2e" x="63.623047"/>
       <use xlink:href="#DejaVuSans-35" x="95.410156"/>
      </g>
     </g>
    </g>
    <g id="ytick_4">
     <g id="line2d_12">
      <g>
       <use xlink:href="#m730a21ecec" x="57.6" y="168.511373" style="stroke: #000000; stroke-width: 0.8"/>
      </g>
     </g>
     <g id="text_13">
      <!-- 0.6 -->
      <g transform="translate(34.696875 172.310592) scale(0.1 -0.1)">
       <use xlink:href="#DejaVuSans-30"/>
       <use xlink:href="#DejaVuSans-2e" x="63.623047"/>
       <use xlink:href="#DejaVuSans-36" x="95.410156"/>
      </g>
     </g>
    </g>
    <g id="ytick_5">
     <g id="line2d_13">
      <g>
       <use xlink:href="#m730a21ecec" x="57.6" y="123.611714" style="stroke: #000000; stroke-width: 0.8"/>
      </g>
     </g>
     <g id="text_14">
      <!-- 0.7 -->
      <g transform="translate(34.696875 127.410933) scale(0.1 -0.1)">
       <defs>
        <path id="DejaVuSans-37" d="M 525 4666 
L 3525 4666 
L 3525 4397 
L 1831 0 
L 1172 0 
L 2766 4134 
L 525 4134 
L 525 4666 
z
" transform="scale(0.015625)"/>
       </defs>
       <use xlink:href="#DejaVuSans-30"/>
       <use xlink:href="#DejaVuSans-2e" x="63.623047"/>
       <use xlink:href="#DejaVuSans-37" x="95.410156"/>
      </g>
     </g>
    </g>
    <g id="ytick_6">
     <g id="line2d_14">
      <g>
       <use xlink:href="#m730a21ecec" x="57.6" y="78.712055" style="stroke: #000000; stroke-width: 0.8"/>
      </g>
     </g>
     <g id="text_15">
      <!-- 0.8 -->
      <g transform="translate(34.696875 82.511273) scale(0.1 -0.1)">
       <use xlink:href="#DejaVuSans-30"/>
       <use xlink:href="#DejaVuSans-2e" x="63.623047"/>
       <use xlink:href="#DejaVuSans-38" x="95.410156"/>
      </g>
     </g>
    </g>
   </g>
   <g id="line2d_15">
    <path d="M 73.832727 111.901395 
L 74.057402 123.17225 
L 74.282076 182.260495 
L 74.506751 81.568218 
L 74.731425 117.166474 
L 74.956099 117.893017 
L 75.180774 172.22099 
L 75.405448 107.05856 
L 75.630123 118.846016 
L 75.854797 95.726374 
L 76.079472 107.077432 
L 76.304146 135.403179 
L 76.52882 94.681379 
L 76.753495 106.100844 
L 76.978169 82.849105 
L 77.202844 82.653315 
L 77.427518 58.299966 
L 77.652193 118.437925 
L 78.101541 85.092425 
L 78.326216 101.30047 
L 78.55089 78.895578 
L 79.000239 129.925799 
L 79.224913 135.754656 
L 79.449588 202.540013 
L 79.674262 53.568 
L 79.898937 65.938105 
L 80.123611 113.337969 
L 80.348286 197.15463 
L 80.57296 96.063698 
L 80.797634 113.514887 
L 81.022309 107.636493 
L 81.246983 151.618301 
L 81.471658 113.705959 
L 81.696332 96.018879 
L 81.921007 90.147561 
L 82.370355 113.29315 
L 82.59503 80.306204 
L 82.819704 79.909907 
L 83.044379 97.637088 
L 83.269053 101.64487 
L 83.493728 119.709375 
L 83.718402 84.851816 
L 83.943076 85.679792 
L 84.167751 168.085827 
L 84.392425 91.591212 
L 84.6171 173.310804 
L 85.066449 108.973992 
L 85.291123 113.521964 
L 85.515797 198.544026 
L 85.740472 72.840265 
L 85.965146 90.966101 
L 86.189821 60.425341 
L 86.414495 124.752717 
L 86.63917 59.809666 
L 86.863844 106.846259 
L 87.088518 107.40532 
L 87.313193 78.036936 
L 87.537867 90.595753 
L 87.762542 112.512352 
L 87.987216 76.803228 
L 88.211891 95.209774 
L 88.661239 177.271408 
L 88.885914 107.226043 
L 89.110588 112.929878 
L 89.335263 151.439025 
L 89.559937 118.758736 
L 89.784612 187.79213 
L 90.458635 103.010677 
L 90.683309 131.164225 
L 90.907984 103.010677 
L 91.132658 91.159532 
L 91.357332 202.320635 
L 91.806681 157.737305 
L 92.031356 115.222735 
L 92.25603 98.210303 
L 92.480705 102.821965 
L 92.705379 102.456334 
L 92.930053 131.388321 
L 93.379402 79.5372 
L 93.828751 162.57778 
L 94.053426 136.273616 
L 94.2781 136.101415 
L 94.502774 103.810346 
L 94.727449 162.591934 
L 94.952123 114.073948 
L 95.401472 140.951327 
L 95.626147 103.244209 
L 95.850821 85.224523 
L 96.30017 142.979986 
L 96.524844 80.747319 
L 96.749519 126.625689 
L 96.974193 74.505653 
L 97.198868 158.65256 
L 97.423542 168.600068 
L 97.648216 126.453489 
L 97.872891 179.142021 
L 98.32224 131.966253 
L 98.771589 96.077851 
L 98.996263 119.942907 
L 99.220937 114.899565 
L 99.445612 126.274212 
L 99.670286 121.070464 
L 99.894961 182.458643 
L 100.119635 187.667108 
L 100.34431 119.527739 
L 100.568984 177.983798 
L 100.793658 114.059795 
L 101.018333 148.32055 
L 101.243007 129.133206 
L 101.467682 184.119313 
L 101.692356 119.523022 
L 101.917031 109.948221 
L 102.141705 109.38916 
L 102.366379 178.986333 
L 102.591054 98.236251 
L 102.815728 120.292025 
L 103.040403 125.686844 
L 103.265077 103.215902 
L 103.489751 107.204813 
L 103.714426 120.103313 
L 103.9391 125.106553 
L 104.163775 118.572382 
L 104.388449 130.852849 
L 104.613124 182.611972 
L 105.287147 91.18548 
L 105.511821 77.442491 
L 105.736496 188.513956 
L 106.185845 108.787639 
L 106.635193 73.460657 
L 107.084542 163.799694 
L 107.309217 163.148636 
L 107.533891 108.403137 
L 107.758566 120.103313 
L 107.98324 120.466584 
L 108.207914 163.148636 
L 108.432589 147.605802 
L 108.657263 115.784155 
L 108.881938 158.140678 
L 109.106612 168.274539 
L 109.331287 125.866121 
L 109.555961 114.477321 
L 109.780635 65.261099 
L 110.00531 95.624941 
L 110.229984 95.624941 
L 110.454659 78.258673 
L 110.679333 71.191389 
L 111.128682 130.633471 
L 111.353356 78.633739 
L 111.578031 113.323816 
L 111.802705 119.341386 
L 112.02738 102.05532 
L 112.252054 97.03085 
L 112.476729 147.945484 
L 112.701403 102.043526 
L 112.926077 130.279635 
L 113.150752 107.990328 
L 113.375426 108.589491 
L 113.600101 84.245577 
L 113.824775 141.000864 
L 114.04945 84.245577 
L 114.274124 109.202806 
L 114.498798 83.87287 
L 114.723473 102.85263 
L 114.948147 97.471965 
L 115.172822 131.027408 
L 115.397496 132.129017 
L 115.62217 97.835237 
L 115.846845 85.873223 
L 116.071519 97.471965 
L 116.296194 95.47633 
L 116.520868 77.862377 
L 116.745543 119.565482 
L 116.970217 67.822871 
L 117.419566 141.005582 
L 117.64424 120.688321 
L 117.868915 114.875976 
L 118.093589 136.495353 
L 118.318264 202.452733 
L 118.542938 108.157811 
L 118.992287 73.234202 
L 119.216961 108.950403 
L 119.441636 95.653248 
L 119.66631 114.875976 
L 119.890985 119.921677 
L 120.115659 135.582456 
L 120.340333 78.435591 
L 120.789682 120.860522 
L 121.014357 74.048025 
L 121.239031 137.405891 
L 121.463706 108.403137 
L 121.68838 103.215902 
L 121.913054 109.375007 
L 122.137729 119.921677 
L 122.362403 85.049964 
L 122.811752 136.844471 
L 123.036427 124.387087 
L 123.261101 147.435961 
L 123.485775 66.265993 
L 123.71045 78.810657 
L 123.935124 102.043526 
L 124.159799 96.035391 
L 124.384473 114.274455 
L 124.609148 96.608605 
L 124.833822 96.40338 
L 125.058496 101.843019 
L 125.283171 141.3547 
L 125.507845 78.414361 
L 125.73252 110.177035 
L 126.181869 216.283001 
L 126.406543 126.439335 
L 126.631217 137.233691 
L 126.855892 178.356505 
L 127.080566 168.595351 
L 127.305241 125.502849 
L 127.529915 173.011223 
L 127.754589 163.299606 
L 127.979264 85.092425 
L 128.203938 66.619829 
L 128.428613 84.722076 
L 128.653287 89.451683 
L 129.102636 63.253669 
L 129.32731 123.679415 
L 129.551985 89.451683 
L 129.776659 146.737724 
L 130.001334 135.051702 
L 130.226008 90.449501 
L 130.450683 72.510018 
L 130.675357 90.274942 
L 130.900031 90.081511 
L 131.124706 77.133474 
L 131.34938 90.081511 
L 131.574055 84.330498 
L 131.798729 147.464267 
L 132.023404 147.464267 
L 132.248078 167.736709 
L 132.472752 152.028751 
L 132.697427 145.664422 
L 132.922101 101.951528 
L 133.146776 117.720817 
L 133.37145 150.422336 
L 133.596125 141.555207 
L 133.820799 95.681555 
L 134.045473 150.589818 
L 134.270148 140.647028 
L 134.494822 91.05574 
L 134.944171 152.580735 
L 135.168846 126.328466 
L 135.39352 147.851128 
L 135.618194 119.817885 
L 135.842869 177.863494 
L 136.067543 115.128379 
L 136.292218 157.310343 
L 136.516892 177.691293 
L 136.741567 146.780185 
L 136.966241 136.021213 
L 137.190915 167.934857 
L 137.41559 89.520092 
L 137.864939 123.912946 
L 138.089613 72.184489 
L 138.314288 134.749762 
L 138.538962 125.21978 
L 138.763636 124.276218 
L 138.988311 145.874365 
L 139.212985 146.044206 
L 139.43766 83.589801 
L 139.662334 83.198223 
L 139.887008 83.198223 
L 140.111683 82.558959 
L 140.336357 100.404086 
L 140.561032 77.38116 
L 140.785706 157.647666 
L 141.010381 95.377256 
L 141.235055 101.385391 
L 141.459729 89.520092 
L 141.684404 83.76436 
L 141.909078 134.523307 
L 142.133753 146.044206 
L 142.358427 123.738387 
L 142.583102 135.846654 
L 142.807776 125.040504 
L 143.03245 182.798326 
L 143.257125 118.496897 
L 143.481799 135.447998 
L 143.706474 162.299429 
L 143.931148 99.587904 
L 144.155823 93.749611 
L 144.380497 141.038606 
L 144.829846 167.465434 
L 145.05452 130.378709 
L 145.279195 129.623859 
L 145.503869 118.503974 
L 145.728544 128.864291 
L 145.953218 201.103439 
L 146.177892 127.375821 
L 146.402567 106.773133 
L 146.627241 148.589466 
L 146.851916 157.784483 
L 147.301265 121.0799 
L 147.525939 92.775383 
L 147.750613 121.664909 
L 147.975288 74.779286 
L 148.199962 79.353205 
L 148.424637 61.767558 
L 148.649311 143.621609 
L 148.873986 136.660476 
L 149.323334 79.548995 
L 149.548009 104.963852 
L 149.772683 79.744784 
L 149.997358 86.078447 
L 150.222032 138.137152 
L 150.446707 131.053356 
L 150.671381 153.297843 
L 150.896055 68.530543 
L 151.12073 91.581776 
L 151.345404 85.885017 
L 151.570079 136.273616 
L 151.794753 147.919536 
L 152.019427 203.094356 
L 152.468776 85.127808 
L 152.693451 103.201749 
L 152.918125 158.322313 
L 153.1428 98.469782 
L 153.367474 137.740855 
L 153.592148 207.984369 
L 153.816823 86.512486 
L 154.041497 109.511823 
L 154.266172 98.231533 
L 154.490846 164.158248 
L 154.715521 115.175557 
L 154.940195 92.218681 
L 155.164869 109.511823 
L 155.614218 121.12236 
L 155.838893 142.946962 
L 156.063567 115.524675 
L 156.288242 126.663431 
L 156.512916 116.468238 
L 156.73759 132.497007 
L 156.962265 133.412262 
L 157.186939 104.159465 
L 157.636288 149.316009 
L 157.860963 74.137663 
L 158.085637 158.720969 
L 158.310311 179.441602 
L 158.534986 180.097378 
L 158.75966 75.170864 
L 159.209009 103.612198 
L 159.433684 116.114402 
L 159.658358 120.40997 
L 159.883032 154.180074 
L 160.107707 142.611997 
L 160.332381 68.879661 
L 160.557056 122.014027 
L 160.78173 143.121521 
L 161.006405 143.286644 
L 161.231079 174.608203 
L 161.455753 189.997708 
L 161.680428 86.946525 
L 161.905102 115.942202 
L 162.129777 81.381865 
L 162.354451 159.263517 
L 162.579126 169.961157 
L 162.8038 122.476372 
L 163.028474 109.686382 
L 163.253149 153.684703 
L 163.477823 91.437883 
L 163.702498 86.753095 
L 163.927172 73.986693 
L 164.151846 169.569579 
L 164.601195 97.839954 
L 164.82587 114.986845 
L 165.050544 79.791962 
L 165.275219 153.510144 
L 165.499893 149.35611 
L 165.724567 116.114402 
L 165.949242 137.964952 
L 166.173916 99.191608 
L 166.398591 126.712968 
L 166.623265 86.753095 
L 166.84794 127.066804 
L 167.072614 91.628954 
L 167.297288 103.239491 
L 167.521963 103.84573 
L 167.746637 92.631489 
L 167.971312 153.557323 
L 168.645335 81.013875 
L 168.870009 85.738765 
L 169.094684 98.264558 
L 169.319358 127.644736 
L 169.544033 137.792751 
L 169.768707 179.292991 
L 169.993382 91.628954 
L 170.218056 199.20216 
L 170.44273 126.712968 
L 170.667405 125.203268 
L 171.116754 61.611871 
L 171.341428 120.589247 
L 171.566103 97.462529 
L 171.790777 126.488872 
L 172.015451 221.541004 
L 172.240126 91.246811 
L 172.4648 131.275093 
L 172.689475 86.753095 
L 172.914149 148.804126 
L 173.138824 142.819581 
L 173.363498 164.54039 
L 173.588172 86.946525 
L 173.812847 99.019408 
L 174.037521 174.792198 
L 174.262196 153.557323 
L 174.48687 148.804126 
L 174.711545 133.414621 
L 174.936219 137.964952 
L 175.385568 115.760566 
L 175.610242 167.989112 
L 175.834917 119.827321 
L 176.059591 125.02635 
L 176.284265 85.757636 
L 176.50894 169.980029 
L 176.733614 121.181333 
L 176.958289 115.770002 
L 177.182963 147.744977 
L 177.407638 163.195814 
L 177.632312 132.022866 
L 177.856986 183.378617 
L 178.081661 198.088757 
L 178.306335 158.046321 
L 178.53101 179.071254 
L 178.755684 163.516625 
L 178.980359 173.810892 
L 179.429707 136.021213 
L 179.654382 153.005338 
L 179.879056 207.271979 
L 180.103731 168.762833 
L 180.328405 158.37185 
L 180.55308 91.628954 
L 180.777754 126.488872 
L 181.002428 91.820025 
L 181.451777 131.79877 
L 181.676452 121.127078 
L 181.901126 158.383645 
L 182.125801 158.383645 
L 182.350475 79.791962 
L 182.575149 131.973329 
L 182.799824 103.612198 
L 183.024498 153.345021 
L 183.473847 120.230694 
L 183.698522 126.311954 
L 183.923196 184.006086 
L 184.14787 168.970417 
L 184.597219 80.082107 
L 184.821894 158.737481 
L 185.046568 188.044533 
L 185.271243 114.507987 
L 185.720591 90.831644 
L 185.945266 125.02635 
L 186.16994 130.52732 
L 186.394615 78.980498 
L 186.619289 113.262484 
L 186.843964 112.484045 
L 187.068638 102.68043 
L 187.293312 161.813495 
L 187.517987 162.27584 
L 187.742661 101.482106 
L 187.967336 112.717577 
L 188.19201 96.254769 
L 188.416684 153.335585 
L 188.641359 172.341294 
L 188.866033 136.320794 
L 189.090708 197.352778 
L 189.540057 152.130184 
L 189.764731 141.923196 
L 189.989405 141.706177 
L 190.21408 110.110985 
L 190.438754 193.517196 
L 190.663429 162.969359 
L 190.888103 188.565852 
L 191.112778 85.738765 
L 191.337452 108.775844 
L 191.562126 183.355028 
L 191.786801 113.859287 
L 192.011475 85.738765 
L 192.460824 158.173702 
L 192.685499 163.323195 
L 192.910173 152.802472 
L 193.134847 173.296651 
L 193.359522 158.173702 
L 193.584196 163.146277 
L 193.808871 163.677031 
L 194.033545 125.960477 
L 194.25822 158.534615 
L 194.482894 89.456401 
L 194.707568 124.266782 
L 194.932243 96.066057 
L 195.156917 124.264423 
L 195.381592 101.906709 
L 195.606266 130.524961 
L 195.830941 65.471041 
L 196.055615 95.688632 
L 196.504964 118.343568 
L 196.729638 112.717577 
L 196.954313 118.522845 
L 197.178987 136.316076 
L 197.628336 114.040923 
L 197.85301 135.966958 
L 198.077685 108.190836 
L 198.302359 124.446059 
L 198.527034 173.810892 
L 198.751708 101.897273 
L 198.976383 124.446059 
L 199.201057 107.766232 
L 199.425731 295.27334 
L 199.650406 113.859287 
L 200.099755 202.495194 
L 200.324429 178.611267 
L 200.549103 188.216734 
L 200.773778 158.046321 
L 200.998452 83.945996 
L 201.223127 77.18537 
L 201.447801 225.636065 
L 201.672476 221.498543 
L 201.89715 188.365345 
L 202.121824 203.061331 
L 202.346499 173.499517 
L 202.571173 295.488 
L 203.020522 82.912795 
L 203.245197 211.704364 
L 203.469871 107.398243 
L 203.694545 59.285989 
L 203.91922 188.766359 
L 204.143894 148.686181 
L 204.368569 193.545503 
L 204.593243 163.544932 
L 204.817918 108.940968 
L 205.042592 125.203268 
L 205.267266 113.257766 
L 205.491941 183.807938 
L 205.716615 172.626721 
L 205.94129 242.035182 
L 206.390639 157.211268 
L 206.615313 224.937829 
L 206.839987 89.062464 
L 207.064662 193.208179 
L 207.289336 197.673589 
L 207.514011 177.688935 
L 207.738685 197.053197 
L 207.96336 188.056328 
L 208.188034 197.484877 
L 208.412708 166.967705 
L 208.637383 246.465208 
L 208.862057 246.347263 
L 209.086732 177.797444 
L 209.311406 192.578351 
L 209.536081 101.475029 
L 209.760755 251.263224 
L 209.985429 179.771849 
L 210.210104 167.467793 
L 210.434778 163.209967 
L 210.659453 206.981834 
L 210.884127 168.321717 
L 211.108802 177.335099 
L 211.333476 162.66506 
L 211.55815 216.365563 
L 211.782825 192.561839 
L 212.007499 141.012659 
L 212.232174 238.084014 
L 212.456848 198.03922 
L 212.681522 274.269637 
L 212.906197 125.7812 
L 213.130871 147.202429 
L 213.355546 197.208885 
L 213.58022 157.907146 
L 213.804895 242.981103 
L 214.029569 119.464049 
L 214.254243 230.712432 
L 214.478918 221.097529 
L 214.928267 163.39868 
L 215.152941 162.875003 
L 215.377616 267.100921 
L 215.60229 202.834876 
L 215.826964 208.387742 
L 216.051639 125.203268 
L 216.276313 182.128396 
L 216.500988 192.724604 
L 216.725662 114.390041 
L 216.950337 173.006505 
L 217.175011 277.911789 
L 217.399685 114.208406 
L 217.62436 230.806788 
L 217.849034 78.923884 
L 218.073709 135.598968 
L 218.298383 102.01286 
L 218.523058 113.979592 
L 218.747732 202.650882 
L 218.972406 229.655641 
L 219.197081 164.054456 
L 219.421755 226.464041 
L 219.64643 158.419029 
L 219.871104 184.680733 
L 220.095779 159.395616 
L 220.320453 221.01025 
L 220.545127 202.799493 
L 220.769802 255.230904 
L 220.994476 234.125769 
L 221.219151 263.076627 
L 221.443825 152.991185 
L 221.6685 136.842112 
L 222.117848 238.683176 
L 222.342523 86.517204 
L 222.567197 167.644711 
L 222.791872 188.101147 
L 223.016546 142.04586 
L 223.241221 266.737649 
L 223.465895 220.878151 
L 223.690569 130.357479 
L 223.915244 141.883095 
L 224.139918 71.561738 
L 224.364593 125.380186 
L 224.589267 229.903327 
L 224.813941 178.455579 
L 225.038616 197.640564 
L 225.487965 136.148594 
L 225.712639 234.573961 
L 225.937314 229.648565 
L 226.161988 140.864047 
L 226.386662 246.510027 
L 226.611337 177.512017 
L 226.836011 216.231105 
L 227.060686 206.842658 
L 227.28536 152.48402 
L 227.510035 216.853857 
L 227.734709 207.715453 
L 227.959383 114.576395 
L 228.408732 207.576278 
L 228.858081 197.241909 
L 229.082756 197.961376 
L 229.30743 193.354432 
L 229.532104 216.542481 
L 229.756779 168.592992 
L 229.981453 187.803925 
L 230.206128 167.960805 
L 230.430802 192.285847 
L 230.655477 273.524223 
L 230.880151 171.541625 
L 231.104825 146.006463 
L 231.3295 157.140501 
L 231.554174 193.354432 
L 231.778849 125.557104 
L 232.003523 120.987902 
L 232.228198 96.082569 
L 232.452872 193.354432 
L 232.677546 212.018099 
L 232.902221 188.398369 
L 233.126895 207.437103 
L 233.35157 178.762237 
L 233.576244 202.37489 
L 233.800919 147.211864 
L 234.025593 197.385803 
L 234.250267 142.56246 
L 234.474942 147.211864 
L 234.699616 136.153311 
L 234.924291 192.330666 
L 235.37364 113.481862 
L 235.598314 153.363892 
L 235.822988 153.363892 
L 236.047663 199.475794 
L 236.272337 198.90022 
L 236.497012 213.058376 
L 236.721686 203.160405 
L 236.94636 142.781838 
L 237.171035 226.030002 
L 237.395709 194.158819 
L 237.620384 187.655314 
L 237.845058 119.643326 
L 238.069733 194.640036 
L 238.294407 184.053264 
L 238.519081 197.430622 
L 238.743756 148.646079 
L 239.193105 131.449652 
L 239.417779 267.207072 
L 239.642454 137.059131 
L 239.867128 207.158752 
L 240.091802 225.680884 
L 240.316477 141.883095 
L 240.541151 197.385803 
L 240.765826 203.127381 
L 240.9905 142.77712 
L 241.215175 230.45767 
L 241.439849 216.856216 
L 241.664523 216.273566 
L 241.889198 225.900263 
L 242.113872 173.339111 
L 242.563221 259.604317 
L 242.787896 136.023572 
L 243.01257 136.367972 
L 243.237244 119.87214 
L 243.461919 172.985275 
L 243.686593 135.804193 
L 243.911268 141.536336 
L 244.135942 192.738757 
L 244.360617 130.402298 
L 244.585291 158.383645 
L 244.809965 108.407855 
L 245.03464 172.985275 
L 245.259314 119.155032 
L 245.483989 114.078666 
L 245.708663 112.988851 
L 246.158012 182.751148 
L 246.382686 186.883951 
L 246.607361 182.298238 
L 246.832035 65.923951 
L 247.05671 166.993653 
L 247.281384 125.250446 
L 247.506059 157.732587 
L 247.730733 157.197115 
L 248.180082 183.100266 
L 248.404756 178.325839 
L 248.629431 163.179302 
L 248.854105 188.740411 
L 249.078779 152.528839 
L 249.303454 182.324185 
L 249.528128 183.727735 
L 249.752803 152.731705 
L 249.977477 152.859086 
L 250.202152 107.846435 
L 250.426826 163.384526 
L 250.6515 177.995592 
L 250.876175 97.320995 
L 251.100849 168.98457 
L 251.325524 153.887569 
L 251.550198 178.325839 
L 251.774873 168.305205 
L 251.999547 96.896392 
L 252.224221 167.673018 
L 252.448896 157.732587 
L 252.67357 255.603611 
L 252.898245 173.655205 
L 253.122919 192.785935 
L 253.347594 163.530779 
L 253.572268 202.103615 
L 253.796942 167.831065 
L 254.021617 259.493448 
L 254.246291 157.744381 
L 254.470966 207.621097 
L 254.69564 188.5918 
L 254.920315 282.051669 
L 255.144989 129.963541 
L 255.369663 173.032453 
L 255.594338 178.17251 
L 255.819012 152.693963 
L 256.268361 130.402298 
L 256.493036 178.17251 
L 256.71771 173.343829 
L 256.942384 198.119422 
L 257.167059 152.35428 
L 257.391733 202.669753 
L 257.616408 119.87214 
L 257.841082 221.715563 
L 258.065757 123.743105 
L 258.290431 118.164292 
L 258.515105 82.7288 
L 258.73978 113.255407 
L 258.964454 123.920023 
L 259.189129 123.51665 
L 259.413803 151.056882 
L 259.638478 152.141979 
L 260.087826 162.521167 
L 260.312501 207.39936 
L 260.537175 172.383754 
L 260.76185 224.902445 
L 260.986524 178.061642 
L 261.211198 182.298238 
L 261.435873 181.026787 
L 261.660547 150.773813 
L 261.885222 151.811732 
L 262.109896 112.528864 
L 262.559245 206.323699 
L 262.783919 216.139108 
L 263.008594 163.224121 
L 263.233268 147.089201 
L 263.457943 146.709417 
L 263.682617 228.532802 
L 263.907292 157.536798 
L 264.131966 201.301587 
L 264.35664 177.311509 
L 264.581315 219.333067 
L 264.805989 187.431218 
L 265.030664 191.667814 
L 265.255338 172.072378 
L 265.704687 200.365101 
L 265.929361 134.200137 
L 266.154036 160.320307 
L 266.37871 136.410432 
L 266.603385 208.368871 
L 266.828059 154.257918 
L 267.052734 214.702534 
L 267.277408 228.891356 
L 267.502082 215.112984 
L 267.726757 138.236226 
L 267.951431 200.608069 
L 268.176106 195.661442 
L 268.40078 165.679742 
L 268.625455 205.021582 
L 268.850129 209.94462 
L 269.299478 160.18349 
L 269.524152 149.14145 
L 269.748827 154.635343 
L 269.973501 185.423788 
L 270.198176 196.001125 
L 270.42285 154.423041 
L 270.647524 180.288449 
L 270.872199 127.095111 
L 271.096873 199.265851 
L 271.546222 148.47152 
L 271.995571 232.724579 
L 272.669594 127.625865 
L 272.894269 165.137194 
L 273.118943 180.595107 
L 273.343617 170.876413 
L 273.568292 195.51519 
L 274.017641 170.291404 
L 274.242315 170.14987 
L 274.46699 181.168321 
L 274.691664 143.293721 
L 274.916338 170.984923 
L 275.141013 161.216691 
L 275.365687 174.671893 
L 275.590362 154.257918 
L 275.815036 191.561663 
L 276.039711 155.515215 
L 276.264385 200.129211 
L 276.489059 219.229275 
L 276.713734 185.749318 
L 276.938408 257.813907 
L 277.163083 180.595107 
L 277.387757 180.288449 
L 277.612432 200.464175 
L 277.837106 258.040362 
L 278.06178 180.948943 
L 278.286455 175.653198 
L 278.511129 195.562368 
L 278.735804 170.607498 
L 278.960478 245.507492 
L 279.185153 175.497511 
L 279.409827 165.679742 
L 279.634501 223.831502 
L 279.859176 241.259102 
L 280.08385 180.970173 
L 280.308525 191.665455 
L 280.533199 149.698152 
L 280.757874 210.119179 
L 280.982548 236.395037 
L 281.207222 214.702534 
L 281.656571 205.47921 
L 281.881246 149.028222 
L 282.10592 195.883179 
L 282.555269 228.372396 
L 282.779943 160.402869 
L 283.004618 137.162923 
L 283.453967 213.791996 
L 283.903316 119.280054 
L 284.12799 203.889307 
L 284.352664 147.93369 
L 284.577339 142.746455 
L 284.802013 189.792483 
L 285.026688 164.306859 
L 285.251362 183.50128 
L 285.476036 120.761447 
L 285.700711 153.399276 
L 285.925385 142.576613 
L 286.15006 222.243958 
L 286.374734 104.095774 
L 286.599409 133.048991 
L 286.824083 144.919007 
L 287.048757 190.967218 
L 287.273432 127.13993 
L 287.498106 107.848794 
L 287.722781 118.716276 
L 287.947455 142.140216 
L 288.17213 244.571006 
L 288.396804 284.049663 
L 288.846153 114.732083 
L 289.070827 264.869396 
L 289.295502 152.854368 
L 289.744851 210.024823 
L 289.969525 193.446429 
L 290.194199 188.57057 
L 290.418874 189.32542 
L 290.643548 189.17445 
L 290.868223 186.126743 
L 291.092897 187.077382 
L 291.542246 164.318653 
L 291.76692 215.155444 
L 291.991595 173.603309 
L 292.216269 276.784232 
L 292.440944 272.698606 
L 292.665618 130.270199 
L 292.890293 231.323388 
L 293.114967 244.203017 
L 293.339641 153.021851 
L 293.564316 194.040873 
L 293.78899 256.919881 
L 294.013665 213.636308 
L 294.238339 227.04905 
L 294.463014 130.845772 
L 294.687688 208.8666 
L 294.912362 130.800953 
L 295.137037 284.445959 
L 295.361711 96.445841 
L 295.586386 114.180099 
L 295.81106 147.69544 
L 296.260409 163.504831 
L 296.485083 203.316093 
L 296.709758 217.934236 
L 296.934432 183.331439 
L 297.159107 113.399301 
L 297.383781 106.544319 
L 297.608455 118.353004 
L 297.83313 208.300462 
L 298.057804 167.814553 
L 298.282479 96.254769 
L 298.507153 130.845772 
L 298.731828 212.801256 
L 298.956502 184.404741 
L 299.181176 231.193648 
L 299.405851 131.376526 
L 299.630525 129.564886 
L 299.8552 147.650621 
L 300.079874 146.801415 
L 300.304549 162.32066 
L 300.529223 131.376526 
L 300.753897 124.165349 
L 300.978572 65.10777 
L 301.203246 203.415167 
L 301.427921 260.991353 
L 301.652595 252.579493 
L 301.87727 239.79658 
L 302.326618 112.479327 
L 302.551293 189.304189 
L 302.775967 192.981724 
L 303.225316 131.548726 
L 303.449991 118.171368 
L 303.674665 130.624035 
L 303.899339 244.743207 
L 304.124014 189.62736 
L 304.348688 88.758165 
L 304.573363 194.783929 
L 304.798037 183.791425 
L 305.022712 141.279215 
L 305.247386 183.944754 
L 305.47206 141.968016 
L 305.696735 257.26664 
L 305.921409 141.968016 
L 306.146084 230.62987 
L 306.370758 163.179302 
L 306.595433 162.808953 
L 306.820107 221.467878 
L 307.044781 193.40161 
L 307.269456 203.415167 
L 307.49413 95.827807 
L 307.718805 184.098083 
L 307.943479 141.406596 
L 308.168154 135.431486 
L 308.392828 113.215306 
L 308.617502 194.040873 
L 308.842177 100.562132 
L 309.066851 129.208691 
L 309.291526 183.286619 
L 309.5162 157.586335 
L 309.740874 167.814553 
L 309.965549 135.431486 
L 310.190223 157.256088 
L 310.414898 106.544319 
L 310.639572 183.746606 
L 310.864247 89.145026 
L 311.088921 106.730672 
L 311.313595 207.406437 
L 311.53827 256.643889 
L 311.762944 260.583263 
L 311.987619 135.606045 
L 312.212293 134.907809 
L 312.436968 117.996809 
L 312.661642 256.688708 
L 312.886316 111.936779 
L 313.110991 171.96151 
L 313.335665 129.034132 
L 313.785014 239.421514 
L 314.009689 257.106235 
L 314.234363 173.431109 
L 314.459037 151.071035 
L 314.683712 243.738312 
L 314.908386 197.489594 
L 315.133061 117.409442 
L 315.357735 111.889601 
L 315.58241 100.514954 
L 315.807084 112.073595 
L 316.031758 101.12827 
L 316.256433 112.672758 
L 316.705782 88.777036 
L 316.930456 264.491971 
L 317.155131 197.826918 
L 317.379805 187.92187 
L 317.604479 239.886218 
L 317.829154 108.31114 
L 318.053828 279.739941 
L 318.278503 167.17293 
L 318.503177 217.934236 
L 318.727852 184.296231 
L 318.952526 244.938996 
L 319.1772 173.603309 
L 319.401875 231.757427 
L 319.626549 244.203017 
L 319.851224 221.831149 
L 320.075898 247.977267 
L 320.300573 244.32568 
L 320.525247 216.931701 
L 320.749921 244.32568 
L 320.974596 212.801256 
L 321.19927 234.781545 
L 321.423945 147.016075 
L 321.648619 217.38697 
L 322.097968 173.287215 
L 322.322642 222.319443 
L 322.547317 157.631154 
L 322.771991 244.203017 
L 322.996666 203.962433 
L 323.22134 212.303526 
L 323.446014 252.742258 
L 323.670689 248.142391 
L 323.895363 204.106327 
L 324.120038 118.178445 
L 324.344712 252.051098 
L 324.569387 252.051098 
L 324.794061 186.992461 
L 325.018735 247.441795 
L 325.24341 256.528303 
L 325.468084 240.556148 
L 325.692759 162.528243 
L 326.142108 260.137429 
L 326.366782 239.622021 
L 326.591456 251.933153 
L 326.816131 139.639775 
L 327.040805 239.371977 
L 327.26548 182.519975 
L 327.714829 173.258908 
L 327.939503 212.513469 
L 328.164177 164.207785 
L 328.388852 164.858843 
L 328.613526 248.555199 
L 328.838201 106.574985 
L 329.062875 244.252554 
L 329.28755 231.625328 
L 329.512224 235.718031 
L 329.736898 232.186748 
L 330.186247 178.665522 
L 330.410922 163.63457 
L 330.635596 226.520655 
L 330.860271 244.332757 
L 331.084945 276.498804 
L 331.309619 208.441997 
L 331.534294 256.702862 
L 331.758968 268.671953 
L 331.983643 248.675503 
L 332.208317 157.14286 
L 332.432992 162.863208 
L 332.657666 239.721095 
L 332.88234 194.510296 
L 333.107015 235.59065 
L 333.331689 106.36976 
L 333.556364 211.737389 
L 333.781038 243.3774 
L 334.230387 211.28212 
L 334.455061 217.205334 
L 334.679736 244.035535 
L 334.90441 197.560362 
L 335.129085 187.247223 
L 335.353759 225.461506 
L 335.578433 243.023564 
L 335.803108 177.292638 
L 336.027782 187.549163 
L 336.252457 230.278393 
L 336.477131 221.154143 
L 336.701806 63.263105 
L 336.92648 235.123586 
L 337.151154 150.587459 
L 337.375829 198.06045 
L 337.600503 212.053482 
L 337.825178 182.498745 
L 338.049852 101.08581 
L 338.274527 207.472486 
L 338.499201 197.621693 
L 338.723875 280.190492 
L 338.94855 177.802162 
L 339.397899 238.428414 
L 339.622573 203.014153 
L 339.847248 231.323388 
L 340.071922 188.549339 
L 340.296596 235.166047 
L 340.521271 216.69581 
L 340.745945 248.512739 
L 340.97062 264.555661 
L 341.195294 239.553613 
L 341.419969 230.455311 
L 341.644643 145.397865 
L 341.869317 225.770523 
L 342.093992 161.299253 
L 342.318666 235.420809 
L 342.543341 239.471051 
L 342.768015 235.54819 
L 342.99269 252.518162 
L 343.217364 244.45542 
L 343.442038 226.343737 
L 343.666713 244.035535 
L 343.891387 207.547971 
L 344.116062 230.62987 
L 344.565411 212.199734 
L 344.790085 141.062196 
L 345.014759 260.713003 
L 345.239434 198.541667 
L 345.464108 247.911218 
L 345.688783 193.427558 
L 345.913457 235.420809 
L 346.138131 183.614507 
L 346.362806 221.911352 
L 346.58748 216.969443 
L 346.812155 239.846117 
L 347.036829 222.04581 
L 347.261504 235.340606 
L 347.486178 173.907608 
L 347.710852 239.355464 
L 347.935527 207.432385 
L 348.160201 213.24473 
L 348.60955 202.860824 
L 348.834225 216.830268 
L 349.058899 243.485909 
L 349.283573 235.682647 
L 349.508248 222.04581 
L 349.732922 235.045743 
L 349.957597 221.911352 
L 350.182271 177.667704 
L 350.406946 244.099225 
L 350.856294 130.048462 
L 351.080969 168.444381 
L 351.305643 231.198366 
L 351.530318 221.642437 
L 351.754992 230.938887 
L 351.979667 145.921543 
L 352.204341 163.280735 
L 352.429015 212.369576 
L 352.65369 157.069734 
L 352.878364 221.776894 
L 353.103039 193.413404 
L 353.327713 225.728062 
L 353.552388 100.668283 
L 353.777062 182.828991 
L 354.001736 166.840324 
L 354.226411 226.784852 
L 354.451085 230.679407 
L 354.67576 183.595636 
L 354.900434 211.952049 
L 355.125109 158.100576 
L 355.349783 231.497947 
L 355.574457 178.953308 
L 355.799132 177.823392 
L 356.248481 202.429144 
L 356.473155 135.039908 
L 356.69783 145.914466 
L 356.922504 217.51435 
L 357.147178 207.573919 
L 357.371853 177.95785 
L 357.596527 211.775131 
L 357.821202 168.267463 
L 358.045876 198.38362 
L 358.27055 252.475702 
L 358.719899 125.41557 
L 359.169248 212.331833 
L 359.393923 216.106083 
L 359.618597 198.06045 
L 359.843271 226.607934 
L 360.29262 152.481661 
L 360.741969 226.518296 
L 361.415992 173.575002 
L 361.640667 141.408955 
L 361.865341 213.348522 
L 362.090016 163.309041 
L 362.31469 216.967084 
L 362.539365 162.466912 
L 362.764039 193.413404 
L 362.988713 146.770749 
L 363.213388 157.069734 
L 363.438062 243.731236 
L 363.662737 221.776894 
L 363.887411 248.045675 
L 364.112086 207.573919 
L 364.33676 202.860824 
L 364.561434 192.81896 
L 364.786109 216.693451 
L 365.010783 207.998522 
L 365.235458 239.190341 
L 365.460132 145.371917 
L 365.684807 162.629676 
L 365.909481 226.084257 
L 366.134155 147.110431 
L 366.35883 172.919226 
L 366.583504 167.802758 
L 366.808179 230.290187 
L 367.032853 156.904611 
L 367.257528 226.256457 
L 367.482202 216.967084 
L 367.706876 140.854612 
L 367.931551 230.938887 
L 368.156225 162.955205 
L 368.3809 183.442307 
L 368.605574 226.520655 
L 368.830249 173.235319 
L 369.054923 156.904611 
L 369.279597 94.240263 
L 369.504272 226.079539 
L 369.728946 226.256457 
L 369.953621 152.281154 
L 370.178295 188.381857 
L 370.402969 100.11394 
L 370.627644 100.816894 
L 371.076993 145.404942 
L 371.301667 123.582699 
L 371.526342 243.500063 
L 371.751016 177.93662 
L 371.97569 207.503152 
L 372.200365 140.849894 
L 372.425039 177.490786 
L 372.649714 193.087875 
L 372.874388 270.927067 
L 373.099063 156.892816 
L 373.323737 140.677694 
L 373.548411 197.621693 
L 373.773086 226.211638 
L 373.99776 151.769272 
L 374.222435 192.34482 
L 374.447109 197.914198 
L 374.671784 197.621693 
L 374.896458 156.727693 
L 375.345807 216.65335 
L 375.570481 211.812874 
L 375.795156 171.61711 
L 376.01983 225.506325 
L 376.244505 243.431655 
L 376.693853 167.305029 
L 376.918528 187.450089 
L 377.143202 221.599976 
L 377.367877 186.997179 
L 377.592551 133.945375 
L 377.817226 139.594956 
L 378.0419 211.775131 
L 378.266574 225.947441 
L 378.715923 167.493741 
L 378.940598 130.624035 
L 379.165272 198.074603 
L 379.389947 181.484415 
L 379.614621 139.760079 
L 379.839295 196.196914 
L 380.06397 171.256197 
L 380.288644 220.302578 
L 380.513319 122.641496 
L 380.737993 156.727693 
L 380.962668 149.872711 
L 381.187342 211.135868 
L 381.412016 197.006019 
L 381.636691 106.676418 
L 381.861365 215.976344 
L 382.310714 175.848988 
L 382.535388 176.108467 
L 382.760063 209.517658 
L 382.984737 200.221208 
L 383.209412 181.743895 
L 383.434086 187.001897 
L 383.658761 166.120858 
L 383.883435 171.730337 
L 384.108109 166.281263 
L 384.332784 154.463143 
L 384.557458 122.462219 
L 384.782133 191.497972 
L 385.231482 247.347439 
L 385.68083 201.023236 
L 385.905505 201.742703 
L 386.130179 116.267731 
L 386.354854 181.944402 
L 386.579528 144.494404 
L 386.804203 220.392216 
L 387.028877 220.392216 
L 387.253551 197.366931 
L 387.478226 225.414328 
L 387.7029 215.610713 
L 387.927575 155.694492 
L 388.152249 206.750661 
L 388.376924 144.843522 
L 388.601598 144.333999 
L 388.826272 128.588299 
L 389.050947 151.045087 
L 389.275621 104.777498 
L 389.500296 192.53825 
L 389.72497 206.571384 
L 389.949645 166.583203 
L 390.174319 201.563426 
L 390.398993 206.005246 
L 390.848342 139.760079 
L 391.073017 186.445195 
L 391.297691 200.987853 
L 391.522366 181.331086 
L 391.74704 215.978702 
L 391.971714 105.350712 
L 392.196389 201.275639 
L 392.421063 176.622709 
L 392.645738 62.225186 
L 392.870412 74.906667 
L 393.095087 155.982278 
L 393.319761 181.305138 
L 393.544435 68.797099 
L 393.76911 171.393013 
L 393.993784 171.234967 
L 394.218459 116.994274 
L 394.443133 160.749628 
L 394.667807 105.157282 
L 394.892482 171.393013 
L 395.117156 186.898105 
L 395.341831 191.349361 
L 395.566505 150.530846 
L 395.79118 144.315127 
L 396.015854 149.358469 
L 396.240528 197.253704 
L 396.465203 171.57229 
L 396.689877 202.138999 
L 396.914552 140.49134 
L 397.139226 143.027165 
L 397.363901 201.563426 
L 397.588575 98.580651 
L 397.813249 90.694827 
L 398.262598 155.123636 
L 398.487273 143.428179 
L 398.487273 143.428179 
" clip-path="url(#pf18f2e43be)" style="fill: none; stroke: #1f77b4; stroke-width: 1.5; stroke-linecap: square"/>
   </g>
   <g id="patch_3">
    <path d="M 57.6 307.584 
L 57.6 41.472 
" style="fill: none; stroke: #000000; stroke-width: 0.8; stroke-linejoin: miter; stroke-linecap: square"/>
   </g>
   <g id="patch_4">
    <path d="M 414.72 307.584 
L 414.72 41.472 
" style="fill: none; stroke: #000000; stroke-width: 0.8; stroke-linejoin: miter; stroke-linecap: square"/>
   </g>
   <g id="patch_5">
    <path d="M 57.6 307.584 
L 414.72 307.584 
" style="fill: none; stroke: #000000; stroke-width: 0.8; stroke-linejoin: miter; stroke-linecap: square"/>
   </g>
   <g id="patch_6">
    <path d="M 57.6 41.472 
L 414.72 41.472 
" style="fill: none; stroke: #000000; stroke-width: 0.8; stroke-linejoin: miter; stroke-linecap: square"/>
   </g>
  </g>
 </g>
 <defs>
  <clipPath id="pf18f2e43be">
   <rect x="57.6" y="41.472" width="357.12" height="266.112"/>
  </clipPath>
 </defs>
</svg>
