<?xml version="1.0" encoding="utf-8" standalone="no"?>
<!DOCTYPE svg PUBLIC "-//W3C//DTD SVG 1.1//EN"
  "http://www.w3.org/Graphics/SVG/1.1/DTD/svg11.dtd">
<svg xmlns:xlink="http://www.w3.org/1999/xlink" width="460.8pt" height="345.6pt" viewBox="0 0 460.8 345.6" xmlns="http://www.w3.org/2000/svg" version="1.1">
 <metadata>
  <rdf:RDF xmlns:dc="http://purl.org/dc/elements/1.1/" xmlns:cc="http://creativecommons.org/ns#" xmlns:rdf="http://www.w3.org/1999/02/22-rdf-syntax-ns#">
   <cc:Work>
    <dc:type rdf:resource="http://purl.org/dc/dcmitype/StillImage"/>
    <dc:date>2025-09-09T16:46:23.555199</dc:date>
    <dc:format>image/svg+xml</dc:format>
    <dc:creator>
     <cc:Agent>
      <dc:title>Matplotlib v3.9.1, https://matplotlib.org/</dc:title>
     </cc:Agent>
    </dc:creator>
   </cc:Work>
  </rdf:RDF>
 </metadata>
 <defs>
  <style type="text/css">*{stroke-linejoin: round; stroke-linecap: butt}</style>
 </defs>
 <g id="figure_1">
  <g id="patch_1">
   <path d="M 0 345.6 
L 460.8 345.6 
L 460.8 0 
L 0 0 
z
" style="fill: #ffffff"/>
  </g>
  <g id="axes_1">
   <g id="patch_2">
    <path d="M 57.6 307.584 
L 414.72 307.584 
L 414.72 41.472 
L 57.6 41.472 
z
" style="fill: #ffffff"/>
   </g>
   <g id="matplotlib.axis_1">
    <g id="xtick_1">
     <g id="line2d_1">
      <defs>
       <path id="m99100b7615" d="M 0 0 
L 0 3.5 
" style="stroke: #000000; stroke-width: 0.8"/>
      </defs>
      <g>
       <use xlink:href="#m99100b7615" x="72.798796" y="307.584" style="stroke: #000000; stroke-width: 0.8"/>
      </g>
     </g>
     <g id="text_1">
      <!-- 0.0 -->
      <g transform="translate(64.847233 322.182437) scale(0.1 -0.1)">
       <defs>
        <path id="DejaVuSans-30" d="M 2034 4250 
Q 1547 4250 1301 3770 
Q 1056 3291 1056 2328 
Q 1056 1369 1301 889 
Q 1547 409 2034 409 
Q 2525 409 2770 889 
Q 3016 1369 3016 2328 
Q 3016 3291 2770 3770 
Q 2525 4250 2034 4250 
z
M 2034 4750 
Q 2819 4750 3233 4129 
Q 3647 3509 3647 2328 
Q 3647 1150 3233 529 
Q 2819 -91 2034 -91 
Q 1250 -91 836 529 
Q 422 1150 422 2328 
Q 422 3509 836 4129 
Q 1250 4750 2034 4750 
z
" transform="scale(0.015625)"/>
        <path id="DejaVuSans-2e" d="M 684 794 
L 1344 794 
L 1344 0 
L 684 0 
L 684 794 
z
" transform="scale(0.015625)"/>
       </defs>
       <use xlink:href="#DejaVuSans-30"/>
       <use xlink:href="#DejaVuSans-2e" x="63.623047"/>
       <use xlink:href="#DejaVuSans-30" x="95.410156"/>
      </g>
     </g>
    </g>
    <g id="xtick_2">
     <g id="line2d_2">
      <g>
       <use xlink:href="#m99100b7615" x="125.593509" y="307.584" style="stroke: #000000; stroke-width: 0.8"/>
      </g>
     </g>
     <g id="text_2">
      <!-- 0.5 -->
      <g transform="translate(117.641947 322.182437) scale(0.1 -0.1)">
       <defs>
        <path id="DejaVuSans-35" d="M 691 4666 
L 3169 4666 
L 3169 4134 
L 1269 4134 
L 1269 2991 
Q 1406 3038 1543 3061 
Q 1681 3084 1819 3084 
Q 2600 3084 3056 2656 
Q 3513 2228 3513 1497 
Q 3513 744 3044 326 
Q 2575 -91 1722 -91 
Q 1428 -91 1123 -41 
Q 819 9 494 109 
L 494 744 
Q 775 591 1075 516 
Q 1375 441 1709 441 
Q 2250 441 2565 725 
Q 2881 1009 2881 1497 
Q 2881 1984 2565 2268 
Q 2250 2553 1709 2553 
Q 1456 2553 1204 2497 
Q 953 2441 691 2322 
L 691 4666 
z
" transform="scale(0.015625)"/>
       </defs>
       <use xlink:href="#DejaVuSans-30"/>
       <use xlink:href="#DejaVuSans-2e" x="63.623047"/>
       <use xlink:href="#DejaVuSans-35" x="95.410156"/>
      </g>
     </g>
    </g>
    <g id="xtick_3">
     <g id="line2d_3">
      <g>
       <use xlink:href="#m99100b7615" x="178.388223" y="307.584" style="stroke: #000000; stroke-width: 0.8"/>
      </g>
     </g>
     <g id="text_3">
      <!-- 1.0 -->
      <g transform="translate(170.436661 322.182437) scale(0.1 -0.1)">
       <defs>
        <path id="DejaVuSans-31" d="M 794 531 
L 1825 531 
L 1825 4091 
L 703 3866 
L 703 4441 
L 1819 4666 
L 2450 4666 
L 2450 531 
L 3481 531 
L 3481 0 
L 794 0 
L 794 531 
z
" transform="scale(0.015625)"/>
       </defs>
       <use xlink:href="#DejaVuSans-31"/>
       <use xlink:href="#DejaVuSans-2e" x="63.623047"/>
       <use xlink:href="#DejaVuSans-30" x="95.410156"/>
      </g>
     </g>
    </g>
    <g id="xtick_4">
     <g id="line2d_4">
      <g>
       <use xlink:href="#m99100b7615" x="231.182937" y="307.584" style="stroke: #000000; stroke-width: 0.8"/>
      </g>
     </g>
     <g id="text_4">
      <!-- 1.5 -->
      <g transform="translate(223.231374 322.182437) scale(0.1 -0.1)">
       <use xlink:href="#DejaVuSans-31"/>
       <use xlink:href="#DejaVuSans-2e" x="63.623047"/>
       <use xlink:href="#DejaVuSans-35" x="95.410156"/>
      </g>
     </g>
    </g>
    <g id="xtick_5">
     <g id="line2d_5">
      <g>
       <use xlink:href="#m99100b7615" x="283.97765" y="307.584" style="stroke: #000000; stroke-width: 0.8"/>
      </g>
     </g>
     <g id="text_5">
      <!-- 2.0 -->
      <g transform="translate(276.026088 322.182437) scale(0.1 -0.1)">
       <defs>
        <path id="DejaVuSans-32" d="M 1228 531 
L 3431 531 
L 3431 0 
L 469 0 
L 469 531 
Q 828 903 1448 1529 
Q 2069 2156 2228 2338 
Q 2531 2678 2651 2914 
Q 2772 3150 2772 3378 
Q 2772 3750 2511 3984 
Q 2250 4219 1831 4219 
Q 1534 4219 1204 4116 
Q 875 4013 500 3803 
L 500 4441 
Q 881 4594 1212 4672 
Q 1544 4750 1819 4750 
Q 2544 4750 2975 4387 
Q 3406 4025 3406 3419 
Q 3406 3131 3298 2873 
Q 3191 2616 2906 2266 
Q 2828 2175 2409 1742 
Q 1991 1309 1228 531 
z
" transform="scale(0.015625)"/>
       </defs>
       <use xlink:href="#DejaVuSans-32"/>
       <use xlink:href="#DejaVuSans-2e" x="63.623047"/>
       <use xlink:href="#DejaVuSans-30" x="95.410156"/>
      </g>
     </g>
    </g>
    <g id="xtick_6">
     <g id="line2d_6">
      <g>
       <use xlink:href="#m99100b7615" x="336.772364" y="307.584" style="stroke: #000000; stroke-width: 0.8"/>
      </g>
     </g>
     <g id="text_6">
      <!-- 2.5 -->
      <g transform="translate(328.820802 322.182437) scale(0.1 -0.1)">
       <use xlink:href="#DejaVuSans-32"/>
       <use xlink:href="#DejaVuSans-2e" x="63.623047"/>
       <use xlink:href="#DejaVuSans-35" x="95.410156"/>
      </g>
     </g>
    </g>
    <g id="xtick_7">
     <g id="line2d_7">
      <g>
       <use xlink:href="#m99100b7615" x="389.567078" y="307.584" style="stroke: #000000; stroke-width: 0.8"/>
      </g>
     </g>
     <g id="text_7">
      <!-- 3.0 -->
      <g transform="translate(381.615515 322.182437) scale(0.1 -0.1)">
       <defs>
        <path id="DejaVuSans-33" d="M 2597 2516 
Q 3050 2419 3304 2112 
Q 3559 1806 3559 1356 
Q 3559 666 3084 287 
Q 2609 -91 1734 -91 
Q 1441 -91 1130 -33 
Q 819 25 488 141 
L 488 750 
Q 750 597 1062 519 
Q 1375 441 1716 441 
Q 2309 441 2620 675 
Q 2931 909 2931 1356 
Q 2931 1769 2642 2001 
Q 2353 2234 1838 2234 
L 1294 2234 
L 1294 2753 
L 1863 2753 
Q 2328 2753 2575 2939 
Q 2822 3125 2822 3475 
Q 2822 3834 2567 4026 
Q 2313 4219 1838 4219 
Q 1578 4219 1281 4162 
Q 984 4106 628 3988 
L 628 4550 
Q 988 4650 1302 4700 
Q 1616 4750 1894 4750 
Q 2613 4750 3031 4423 
Q 3450 4097 3450 3541 
Q 3450 3153 3228 2886 
Q 3006 2619 2597 2516 
z
" transform="scale(0.015625)"/>
       </defs>
       <use xlink:href="#DejaVuSans-33"/>
       <use xlink:href="#DejaVuSans-2e" x="63.623047"/>
       <use xlink:href="#DejaVuSans-30" x="95.410156"/>
      </g>
     </g>
    </g>
    <g id="text_8">
     <!-- 1e9 -->
     <g transform="translate(395.841875 334.860562) scale(0.1 -0.1)">
      <defs>
       <path id="DejaVuSans-65" d="M 3597 1894 
L 3597 1613 
L 953 1613 
Q 991 1019 1311 708 
Q 1631 397 2203 397 
Q 2534 397 2845 478 
Q 3156 559 3463 722 
L 3463 178 
Q 3153 47 2828 -22 
Q 2503 -91 2169 -91 
Q 1331 -91 842 396 
Q 353 884 353 1716 
Q 353 2575 817 3079 
Q 1281 3584 2069 3584 
Q 2775 3584 3186 3129 
Q 3597 2675 3597 1894 
z
M 3022 2063 
Q 3016 2534 2758 2815 
Q 2500 3097 2075 3097 
Q 1594 3097 1305 2825 
Q 1016 2553 972 2059 
L 3022 2063 
z
" transform="scale(0.015625)"/>
       <path id="DejaVuSans-39" d="M 703 97 
L 703 672 
Q 941 559 1184 500 
Q 1428 441 1663 441 
Q 2288 441 2617 861 
Q 2947 1281 2994 2138 
Q 2813 1869 2534 1725 
Q 2256 1581 1919 1581 
Q 1219 1581 811 2004 
Q 403 2428 403 3163 
Q 403 3881 828 4315 
Q 1253 4750 1959 4750 
Q 2769 4750 3195 4129 
Q 3622 3509 3622 2328 
Q 3622 1225 3098 567 
Q 2575 -91 1691 -91 
Q 1453 -91 1209 -44 
Q 966 3 703 97 
z
M 1959 2075 
Q 2384 2075 2632 2365 
Q 2881 2656 2881 3163 
Q 2881 3666 2632 3958 
Q 2384 4250 1959 4250 
Q 1534 4250 1286 3958 
Q 1038 3666 1038 3163 
Q 1038 2656 1286 2365 
Q 1534 2075 1959 2075 
z
" transform="scale(0.015625)"/>
      </defs>
      <use xlink:href="#DejaVuSans-31"/>
      <use xlink:href="#DejaVuSans-65" x="63.623047"/>
      <use xlink:href="#DejaVuSans-39" x="125.146484"/>
     </g>
    </g>
   </g>
   <g id="matplotlib.axis_2">
    <g id="ytick_1">
     <g id="line2d_8">
      <defs>
       <path id="m5717d834f4" d="M 0 0 
L -3.5 0 
" style="stroke: #000000; stroke-width: 0.8"/>
      </defs>
      <g>
       <use xlink:href="#m5717d834f4" x="57.6" y="297.860836" style="stroke: #000000; stroke-width: 0.8"/>
      </g>
     </g>
     <g id="text_9">
      <!-- 0.5 -->
      <g transform="translate(34.696875 301.660055) scale(0.1 -0.1)">
       <use xlink:href="#DejaVuSans-30"/>
       <use xlink:href="#DejaVuSans-2e" x="63.623047"/>
       <use xlink:href="#DejaVuSans-35" x="95.410156"/>
      </g>
     </g>
    </g>
    <g id="ytick_2">
     <g id="line2d_9">
      <g>
       <use xlink:href="#m5717d834f4" x="57.6" y="247.730695" style="stroke: #000000; stroke-width: 0.8"/>
      </g>
     </g>
     <g id="text_10">
      <!-- 0.6 -->
      <g transform="translate(34.696875 251.529913) scale(0.1 -0.1)">
       <defs>
        <path id="DejaVuSans-36" d="M 2113 2584 
Q 1688 2584 1439 2293 
Q 1191 2003 1191 1497 
Q 1191 994 1439 701 
Q 1688 409 2113 409 
Q 2538 409 2786 701 
Q 3034 994 3034 1497 
Q 3034 2003 2786 2293 
Q 2538 2584 2113 2584 
z
M 3366 4563 
L 3366 3988 
Q 3128 4100 2886 4159 
Q 2644 4219 2406 4219 
Q 1781 4219 1451 3797 
Q 1122 3375 1075 2522 
Q 1259 2794 1537 2939 
Q 1816 3084 2150 3084 
Q 2853 3084 3261 2657 
Q 3669 2231 3669 1497 
Q 3669 778 3244 343 
Q 2819 -91 2113 -91 
Q 1303 -91 875 529 
Q 447 1150 447 2328 
Q 447 3434 972 4092 
Q 1497 4750 2381 4750 
Q 2619 4750 2861 4703 
Q 3103 4656 3366 4563 
z
" transform="scale(0.015625)"/>
       </defs>
       <use xlink:href="#DejaVuSans-30"/>
       <use xlink:href="#DejaVuSans-2e" x="63.623047"/>
       <use xlink:href="#DejaVuSans-36" x="95.410156"/>
      </g>
     </g>
    </g>
    <g id="ytick_3">
     <g id="line2d_10">
      <g>
       <use xlink:href="#m5717d834f4" x="57.6" y="197.600553" style="stroke: #000000; stroke-width: 0.8"/>
      </g>
     </g>
     <g id="text_11">
      <!-- 0.7 -->
      <g transform="translate(34.696875 201.399772) scale(0.1 -0.1)">
       <defs>
        <path id="DejaVuSans-37" d="M 525 4666 
L 3525 4666 
L 3525 4397 
L 1831 0 
L 1172 0 
L 2766 4134 
L 525 4134 
L 525 4666 
z
" transform="scale(0.015625)"/>
       </defs>
       <use xlink:href="#DejaVuSans-30"/>
       <use xlink:href="#DejaVuSans-2e" x="63.623047"/>
       <use xlink:href="#DejaVuSans-37" x="95.410156"/>
      </g>
     </g>
    </g>
    <g id="ytick_4">
     <g id="line2d_11">
      <g>
       <use xlink:href="#m5717d834f4" x="57.6" y="147.470411" style="stroke: #000000; stroke-width: 0.8"/>
      </g>
     </g>
     <g id="text_12">
      <!-- 0.8 -->
      <g transform="translate(34.696875 151.26963) scale(0.1 -0.1)">
       <defs>
        <path id="DejaVuSans-38" d="M 2034 2216 
Q 1584 2216 1326 1975 
Q 1069 1734 1069 1313 
Q 1069 891 1326 650 
Q 1584 409 2034 409 
Q 2484 409 2743 651 
Q 3003 894 3003 1313 
Q 3003 1734 2745 1975 
Q 2488 2216 2034 2216 
z
M 1403 2484 
Q 997 2584 770 2862 
Q 544 3141 544 3541 
Q 544 4100 942 4425 
Q 1341 4750 2034 4750 
Q 2731 4750 3128 4425 
Q 3525 4100 3525 3541 
Q 3525 3141 3298 2862 
Q 3072 2584 2669 2484 
Q 3125 2378 3379 2068 
Q 3634 1759 3634 1313 
Q 3634 634 3220 271 
Q 2806 -91 2034 -91 
Q 1263 -91 848 271 
Q 434 634 434 1313 
Q 434 1759 690 2068 
Q 947 2378 1403 2484 
z
M 1172 3481 
Q 1172 3119 1398 2916 
Q 1625 2713 2034 2713 
Q 2441 2713 2670 2916 
Q 2900 3119 2900 3481 
Q 2900 3844 2670 4047 
Q 2441 4250 2034 4250 
Q 1625 4250 1398 4047 
Q 1172 3844 1172 3481 
z
" transform="scale(0.015625)"/>
       </defs>
       <use xlink:href="#DejaVuSans-30"/>
       <use xlink:href="#DejaVuSans-2e" x="63.623047"/>
       <use xlink:href="#DejaVuSans-38" x="95.410156"/>
      </g>
     </g>
    </g>
    <g id="ytick_5">
     <g id="line2d_12">
      <g>
       <use xlink:href="#m5717d834f4" x="57.6" y="97.34027" style="stroke: #000000; stroke-width: 0.8"/>
      </g>
     </g>
     <g id="text_13">
      <!-- 0.9 -->
      <g transform="translate(34.696875 101.139488) scale(0.1 -0.1)">
       <use xlink:href="#DejaVuSans-30"/>
       <use xlink:href="#DejaVuSans-2e" x="63.623047"/>
       <use xlink:href="#DejaVuSans-39" x="95.410156"/>
      </g>
     </g>
    </g>
    <g id="ytick_6">
     <g id="line2d_13">
      <g>
       <use xlink:href="#m5717d834f4" x="57.6" y="47.210128" style="stroke: #000000; stroke-width: 0.8"/>
      </g>
     </g>
     <g id="text_14">
      <!-- 1.0 -->
      <g transform="translate(34.696875 51.009347) scale(0.1 -0.1)">
       <use xlink:href="#DejaVuSans-31"/>
       <use xlink:href="#DejaVuSans-2e" x="63.623047"/>
       <use xlink:href="#DejaVuSans-30" x="95.410156"/>
      </g>
     </g>
    </g>
   </g>
   <g id="line2d_14">
    <path d="M 73.832727 53.568 
L 74.866659 54.074217 
L 75.900591 65.039622 
L 76.934522 81.515708 
L 77.968454 101.762628 
L 79.002386 101.57378 
L 80.036317 108.72726 
L 81.070249 195.198515 
L 82.104181 161.715647 
L 83.138112 162.986871 
L 84.172044 152.155233 
L 86.239907 260.402549 
L 87.273839 236.326218 
L 88.307771 251.245185 
L 89.341702 269.283636 
L 90.375634 207.667708 
L 91.409566 209.405806 
L 92.443497 264.833475 
L 93.477429 256.713899 
L 94.511361 212.242893 
L 95.545292 270.122084 
L 96.579224 167.447523 
L 98.647087 260.275776 
L 99.681019 203.863651 
L 100.714951 266.083717 
L 101.748882 240.093554 
L 102.782814 253.036615 
L 103.816746 295.488 
L 104.850677 254.055168 
L 105.884609 229.865179 
L 106.918541 183.758368 
L 107.952472 257.225361 
L 108.986404 209.772136 
L 110.020336 190.638194 
L 111.054268 192.498693 
L 112.088199 204.83237 
L 113.122131 198.231444 
L 114.156063 174.138502 
L 115.189994 184.674629 
L 116.223926 209.495859 
L 117.257858 219.613198 
L 118.291789 218.584153 
L 119.325721 212.555016 
L 120.359653 238.255787 
L 121.393584 198.881919 
L 122.427516 197.572226 
L 123.461448 175.629174 
L 124.495379 184.605559 
L 125.529311 178.693578 
L 126.563243 193.713088 
L 127.597174 193.018898 
L 128.631106 211.205979 
L 129.665038 207.139634 
L 130.698969 248.097723 
L 131.732901 215.640403 
L 132.766833 228.659527 
L 133.800764 208.488671 
L 134.834696 179.063404 
L 135.868628 205.159356 
L 136.902559 207.937865 
L 137.936491 247.700794 
L 138.970423 233.871198 
L 140.004354 198.673837 
L 141.038286 219.873738 
L 142.072218 232.272113 
L 143.106149 248.95191 
L 144.140081 223.418129 
L 145.174013 222.29466 
L 146.207944 214.558026 
L 147.241876 239.396741 
L 148.275808 204.794775 
L 149.309739 199.50092 
L 150.343671 222.709076 
L 151.377603 220.619512 
L 152.411534 204.285936 
L 153.445466 245.70303 
L 154.479398 193.355502 
L 155.513329 208.27884 
L 156.547261 221.332936 
L 157.581193 200.800122 
L 158.615124 224.227726 
L 159.649056 221.291844 
L 160.682988 239.67739 
L 161.71692 217.407352 
L 162.750851 206.85374 
L 163.784783 220.025865 
L 164.818715 211.306523 
L 165.852646 240.962603 
L 166.886578 221.172066 
L 167.92051 240.624251 
L 168.954441 232.465332 
L 169.988373 254.621711 
L 171.022305 240.671463 
L 172.056236 221.85489 
L 173.090168 215.024025 
L 174.1241 222.10931 
L 175.158031 204.108454 
L 176.191963 205.349078 
L 177.225895 240.529828 
L 178.259826 234.683418 
L 179.293758 212.571628 
L 180.32769 211.314392 
L 181.361621 209.441652 
L 182.395553 244.732563 
L 183.429485 217.550737 
L 184.463416 211.762905 
L 185.497348 212.344311 
L 186.53128 217.550737 
L 187.565211 246.479404 
L 188.599143 235.032262 
L 189.633075 204.196758 
L 190.667006 246.582571 
L 191.700938 218.993323 
L 192.73487 230.486803 
L 193.768801 217.944169 
L 194.802733 251.701567 
L 195.836665 218.050833 
L 196.870596 206.121081 
L 197.904528 208.890847 
L 198.93846 218.832453 
L 199.972391 219.035289 
L 201.006323 209.238816 
L 202.040255 217.287574 
L 203.074186 224.088713 
L 204.108118 209.951366 
L 205.14205 227.552669 
L 206.175981 229.957855 
L 207.209913 219.103484 
L 208.243845 253.991345 
L 209.277776 236.459111 
L 210.311708 231.248314 
L 211.34564 228.266968 
L 212.379572 240.670589 
L 213.413503 235.890819 
L 214.447435 241.334179 
L 215.481367 223.755607 
L 216.515298 223.352557 
L 217.54923 215.642151 
L 218.583162 233.768031 
L 219.617093 249.368948 
L 220.651025 222.327009 
L 221.684957 234.857403 
L 222.718888 250.161934 
L 223.75282 242.928893 
L 224.786752 252.315322 
L 225.820683 227.820204 
L 226.854615 214.929601 
L 227.888547 229.621251 
L 228.922478 251.094806 
L 229.95641 247.571398 
L 230.990342 234.42113 
L 232.024273 238.636979 
L 233.058205 226.844491 
L 234.092137 262.597903 
L 235.126068 213.693348 
L 236.16 240.549062 
L 237.193932 233.481263 
L 238.227863 245.821934 
L 239.261795 243.084517 
L 240.295727 239.017297 
L 241.329658 215.226861 
L 242.36359 225.786594 
L 243.397522 231.117169 
L 244.431453 219.50566 
L 245.465385 222.386461 
L 246.499317 220.606397 
L 247.533248 215.985749 
L 248.56718 235.117943 
L 249.601112 238.299501 
L 250.635043 236.238789 
L 251.668975 229.359837 
L 252.702907 236.981939 
L 253.736838 243.524287 
L 254.77077 237.367503 
L 255.804702 236.312229 
L 256.838633 250.408485 
L 257.872565 239.137076 
L 258.906497 233.982234 
L 259.940428 226.980006 
L 260.97436 224.227726 
L 262.008292 222.736179 
L 263.042224 230.361779 
L 264.076155 231.304269 
L 265.110087 228.97777 
L 266.144019 230.418608 
L 267.17795 229.395683 
L 268.211882 233.274055 
L 269.245814 251.380701 
L 270.279745 238.075682 
L 271.313677 240.23519 
L 272.347609 263.927706 
L 273.38154 225.617855 
L 274.415472 242.59054 
L 275.449404 247.330967 
L 276.483335 232.763467 
L 277.517267 225.354692 
L 278.551199 229.948237 
L 279.58513 230.50254 
L 280.619062 234.877511 
L 281.652994 220.944749 
L 282.686925 241.013313 
L 283.720857 235.167777 
L 284.754789 232.895485 
L 285.78872 225.322343 
L 286.822652 227.56491 
L 287.856584 222.640007 
L 288.890515 212.910854 
L 289.924447 218.547433 
L 290.958379 231.014003 
L 291.99231 228.420844 
L 293.026242 225.182456 
L 294.060174 243.510299 
L 295.094105 220.908029 
L 296.128037 239.737716 
L 297.161969 247.935105 
L 298.1959 244.193123 
L 299.229832 239.233248 
L 300.263764 261.769072 
L 301.297695 248.253348 
L 302.331627 284.567183 
L 303.365559 222.558697 
L 304.39949 224.088713 
L 306.467354 224.684982 
L 307.501285 224.015273 
L 308.535217 251.903529 
L 309.569149 217.729093 
L 310.60308 222.246574 
L 311.637012 221.499052 
L 312.670944 219.540632 
L 313.704876 258.291127 
L 314.738807 243.519042 
L 315.772739 225.24628 
L 316.806671 230.482431 
L 317.840602 240.977466 
L 318.874534 243.080146 
L 319.908466 230.78144 
L 320.942397 241.494175 
L 321.976329 222.237831 
L 323.010261 225.763862 
L 324.044192 220.091437 
L 326.112056 272.975783 
L 327.145987 229.859934 
L 328.179919 240.912769 
L 329.213851 236.895384 
L 330.247782 238.318736 
L 332.315646 217.91182 
L 333.349577 222.100567 
L 334.383509 235.169526 
L 335.417441 237.51963 
L 336.451372 229.672834 
L 337.485304 242.255685 
L 338.519236 226.632911 
L 339.553167 215.494395 
L 340.587099 216.896764 
L 341.621031 219.618444 
L 342.654962 229.369454 
L 343.688894 231.258805 
L 344.722826 219.634181 
L 346.790689 246.09384 
L 347.824621 239.820774 
L 348.858552 231.365469 
L 349.892484 240.652229 
L 350.926416 223.769596 
L 351.960347 223.805442 
L 352.994279 227.653213 
L 354.028211 224.033633 
L 355.062142 219.061518 
L 356.096074 228.400735 
L 357.130006 230.601336 
L 358.163937 243.210415 
L 359.197869 251.626377 
L 360.231801 223.464467 
L 361.265732 237.850114 
L 362.299664 239.393244 
L 363.333596 230.996517 
L 364.367528 243.220033 
L 365.401459 252.406248 
L 366.435391 244.931028 
L 367.469323 259.553609 
L 368.503254 249.257913 
L 369.537186 227.99244 
L 370.571118 239.283957 
L 371.605049 226.568214 
L 372.638981 232.556259 
L 373.672913 231.626883 
L 374.706844 230.511283 
L 375.740776 225.503322 
L 376.774708 225.42551 
L 377.808639 223.31234 
L 378.842571 228.927935 
L 379.876503 232.56063 
L 380.910434 225.235788 
L 381.944366 243.574996 
L 382.978298 231.217713 
L 384.012229 232.371783 
L 385.046161 224.594056 
L 386.080093 227.091042 
L 388.147956 236.245783 
L 389.181888 238.869542 
L 390.215819 239.684384 
L 391.249751 229.747149 
L 392.283683 247.06693 
L 393.317614 225.735885 
L 395.385478 231.994961 
L 396.419409 238.350211 
L 397.453341 234.666806 
L 398.487273 235.30679 
L 398.487273 235.30679 
" clip-path="url(#p6dcadd215c)" style="fill: none; stroke: #1f77b4; stroke-width: 1.5; stroke-linecap: square"/>
   </g>
   <g id="patch_3">
    <path d="M 57.6 307.584 
L 57.6 41.472 
" style="fill: none; stroke: #000000; stroke-width: 0.8; stroke-linejoin: miter; stroke-linecap: square"/>
   </g>
   <g id="patch_4">
    <path d="M 414.72 307.584 
L 414.72 41.472 
" style="fill: none; stroke: #000000; stroke-width: 0.8; stroke-linejoin: miter; stroke-linecap: square"/>
   </g>
   <g id="patch_5">
    <path d="M 57.6 307.584 
L 414.72 307.584 
" style="fill: none; stroke: #000000; stroke-width: 0.8; stroke-linejoin: miter; stroke-linecap: square"/>
   </g>
   <g id="patch_6">
    <path d="M 57.6 41.472 
L 414.72 41.472 
" style="fill: none; stroke: #000000; stroke-width: 0.8; stroke-linejoin: miter; stroke-linecap: square"/>
   </g>
  </g>
 </g>
 <defs>
  <clipPath id="p6dcadd215c">
   <rect x="57.6" y="41.472" width="357.12" height="266.112"/>
  </clipPath>
 </defs>
</svg>
