<?xml version="1.0" encoding="UTF-8" standalone="no"?>
<svg
   width="460.8pt"
   height="345.6pt"
   viewBox="0 0 460.8 345.6"
   version="1.1"
   id="svg66"
   sodipodi:docname="symm_together.svg"
   inkscape:version="1.4.2 (ebf0e940, 2025-05-08)"
   xmlns:inkscape="http://www.inkscape.org/namespaces/inkscape"
   xmlns:sodipodi="http://sodipodi.sourceforge.net/DTD/sodipodi-0.dtd"
   xmlns:xlink="http://www.w3.org/1999/xlink"
   xmlns="http://www.w3.org/2000/svg"
   xmlns:svg="http://www.w3.org/2000/svg"
   xmlns:rdf="http://www.w3.org/1999/02/22-rdf-syntax-ns#"
   xmlns:cc="http://creativecommons.org/ns#"
   xmlns:dc="http://purl.org/dc/elements/1.1/">
  <sodipodi:namedview
     id="namedview66"
     pagecolor="#ffffff"
     bordercolor="#666666"
     borderopacity="1.0"
     inkscape:showpageshadow="2"
     inkscape:pageopacity="0.0"
     inkscape:pagecheckerboard="0"
     inkscape:deskcolor="#d1d1d1"
     inkscape:document-units="pt"
     showguides="true"
     inkscape:zoom="1.3541667"
     inkscape:cx="307.19999"
     inkscape:cy="230.39999"
     inkscape:window-width="976"
     inkscape:window-height="941"
     inkscape:window-x="2240"
     inkscape:window-y="25"
     inkscape:window-maximized="0"
     inkscape:current-layer="svg66">
    <sodipodi:guide
       position="44.86154,80.307702"
       orientation="0,-1"
       id="guide66"
       inkscape:locked="false" />
  </sodipodi:namedview>
  <metadata
     id="metadata1">
    <rdf:RDF>
      <cc:Work>
        <dc:type
           rdf:resource="http://purl.org/dc/dcmitype/StillImage" />
        <dc:date>2025-09-11T12:58:37.123692</dc:date>
        <dc:format>image/svg+xml</dc:format>
        <dc:creator>
          <cc:Agent>
            <dc:title>Matplotlib v3.9.1, https://matplotlib.org/</dc:title>
          </cc:Agent>
        </dc:creator>
      </cc:Work>
    </rdf:RDF>
  </metadata>
  <defs
     id="defs1">
    <style
       type="text/css"
       id="style1">*{stroke-linejoin: round; stroke-linecap: butt}</style>
  </defs>
  <g
     id="figure_1">
    <g
       id="patch_1">
      <path
         d="M 0 345.6  L 460.8 345.6  L 460.8 0  L 0 0  z "
         style="fill: #ffffff"
         id="path1" />
    </g>
    <g
       id="axes_1">
      <g
         id="patch_2">
        <path
           d="M 57.6 307.584  L 414.72 307.584  L 414.72 41.472  L 57.6 41.472  z "
           style="fill: #ffffff"
           id="path2" />
      </g>
      <g
         id="matplotlib.axis_1">
        <g
           id="xtick_1">
          <g
             id="line2d_1">
            <defs
               id="defs2">
              <path
                 id="m1a88354580"
                 d="M 0 0  L 0 3.5  "
                 style="stroke: #000000; stroke-width: 0.8" />
            </defs>
            <g
               id="g2">
              <use
                 xlink:href="#m1a88354580"
                 x="73.725119"
                 y="307.584"
                 style="stroke: #000000; stroke-width: 0.8"
                 id="use2" />
            </g>
          </g>
          <g
             id="text_1">
            <!-- 0.0 -->
            <g
               transform="translate(65.773556 322.182437) scale(0.1 -0.1)"
               id="g5">
              <defs
                 id="defs3">
                <path
                   id="DejaVuSans-30"
                   d="M 2034 4250  Q 1547 4250 1301 3770  Q 1056 3291 1056 2328  Q 1056 1369 1301 889  Q 1547 409 2034 409  Q 2525 409 2770 889  Q 3016 1369 3016 2328  Q 3016 3291 2770 3770  Q 2525 4250 2034 4250  z M 2034 4750  Q 2819 4750 3233 4129  Q 3647 3509 3647 2328  Q 3647 1150 3233 529  Q 2819 -91 2034 -91  Q 1250 -91 836 529  Q 422 1150 422 2328  Q 422 3509 836 4129  Q 1250 4750 2034 4750  z "
                   transform="scale(0.015625)" />
                <path
                   id="DejaVuSans-2e"
                   d="M 684 794  L 1344 794  L 1344 0  L 684 0  L 684 794  z "
                   transform="scale(0.015625)" />
              </defs>
              <use
                 xlink:href="#DejaVuSans-30"
                 id="use3" />
              <use
                 xlink:href="#DejaVuSans-2e"
                 x="63.623047"
                 id="use4" />
              <use
                 xlink:href="#DejaVuSans-30"
                 x="95.410156"
                 id="use5" />
            </g>
          </g>
        </g>
        <g
           id="xtick_2">
          <g
             id="line2d_2">
            <g
               id="g6">
              <use
                 xlink:href="#m1a88354580"
                 x="128.672219"
                 y="307.584"
                 style="stroke: #000000; stroke-width: 0.8"
                 id="use6" />
            </g>
          </g>
          <g
             id="text_2">
            <!-- 0.5 -->
            <g
               transform="translate(120.720656 322.182437) scale(0.1 -0.1)"
               id="g9">
              <defs
                 id="defs6">
                <path
                   id="DejaVuSans-35"
                   d="M 691 4666  L 3169 4666  L 3169 4134  L 1269 4134  L 1269 2991  Q 1406 3038 1543 3061  Q 1681 3084 1819 3084  Q 2600 3084 3056 2656  Q 3513 2228 3513 1497  Q 3513 744 3044 326  Q 2575 -91 1722 -91  Q 1428 -91 1123 -41  Q 819 9 494 109  L 494 744  Q 775 591 1075 516  Q 1375 441 1709 441  Q 2250 441 2565 725  Q 2881 1009 2881 1497  Q 2881 1984 2565 2268  Q 2250 2553 1709 2553  Q 1456 2553 1204 2497  Q 953 2441 691 2322  L 691 4666  z "
                   transform="scale(0.015625)" />
              </defs>
              <use
                 xlink:href="#DejaVuSans-30"
                 id="use7" />
              <use
                 xlink:href="#DejaVuSans-2e"
                 x="63.623047"
                 id="use8" />
              <use
                 xlink:href="#DejaVuSans-35"
                 x="95.410156"
                 id="use9" />
            </g>
          </g>
        </g>
        <g
           id="xtick_3">
          <g
             id="line2d_3">
            <g
               id="g10">
              <use
                 xlink:href="#m1a88354580"
                 x="183.619319"
                 y="307.584"
                 style="stroke: #000000; stroke-width: 0.8"
                 id="use10" />
            </g>
          </g>
          <g
             id="text_3">
            <!-- 1.0 -->
            <g
               transform="translate(175.667757 322.182437) scale(0.1 -0.1)"
               id="g13">
              <defs
                 id="defs10">
                <path
                   id="DejaVuSans-31"
                   d="M 794 531  L 1825 531  L 1825 4091  L 703 3866  L 703 4441  L 1819 4666  L 2450 4666  L 2450 531  L 3481 531  L 3481 0  L 794 0  L 794 531  z "
                   transform="scale(0.015625)" />
              </defs>
              <use
                 xlink:href="#DejaVuSans-31"
                 id="use11" />
              <use
                 xlink:href="#DejaVuSans-2e"
                 x="63.623047"
                 id="use12" />
              <use
                 xlink:href="#DejaVuSans-30"
                 x="95.410156"
                 id="use13" />
            </g>
          </g>
        </g>
        <g
           id="xtick_4">
          <g
             id="line2d_4">
            <g
               id="g14">
              <use
                 xlink:href="#m1a88354580"
                 x="238.566419"
                 y="307.584"
                 style="stroke: #000000; stroke-width: 0.8"
                 id="use14" />
            </g>
          </g>
          <g
             id="text_4">
            <!-- 1.5 -->
            <g
               transform="translate(230.614857 322.182437) scale(0.1 -0.1)"
               id="g17">
              <use
                 xlink:href="#DejaVuSans-31"
                 id="use15" />
              <use
                 xlink:href="#DejaVuSans-2e"
                 x="63.623047"
                 id="use16" />
              <use
                 xlink:href="#DejaVuSans-35"
                 x="95.410156"
                 id="use17" />
            </g>
          </g>
        </g>
        <g
           id="xtick_5">
          <g
             id="line2d_5">
            <g
               id="g18">
              <use
                 xlink:href="#m1a88354580"
                 x="293.513519"
                 y="307.584"
                 style="stroke: #000000; stroke-width: 0.8"
                 id="use18" />
            </g>
          </g>
          <g
             id="text_5">
            <!-- 2.0 -->
            <g
               transform="translate(285.561957 322.182437) scale(0.1 -0.1)"
               id="g21">
              <defs
                 id="defs18">
                <path
                   id="DejaVuSans-32"
                   d="M 1228 531  L 3431 531  L 3431 0  L 469 0  L 469 531  Q 828 903 1448 1529  Q 2069 2156 2228 2338  Q 2531 2678 2651 2914  Q 2772 3150 2772 3378  Q 2772 3750 2511 3984  Q 2250 4219 1831 4219  Q 1534 4219 1204 4116  Q 875 4013 500 3803  L 500 4441  Q 881 4594 1212 4672  Q 1544 4750 1819 4750  Q 2544 4750 2975 4387  Q 3406 4025 3406 3419  Q 3406 3131 3298 2873  Q 3191 2616 2906 2266  Q 2828 2175 2409 1742  Q 1991 1309 1228 531  z "
                   transform="scale(0.015625)" />
              </defs>
              <use
                 xlink:href="#DejaVuSans-32"
                 id="use19" />
              <use
                 xlink:href="#DejaVuSans-2e"
                 x="63.623047"
                 id="use20" />
              <use
                 xlink:href="#DejaVuSans-30"
                 x="95.410156"
                 id="use21" />
            </g>
          </g>
        </g>
        <g
           id="xtick_6">
          <g
             id="line2d_6">
            <g
               id="g22">
              <use
                 xlink:href="#m1a88354580"
                 x="348.460619"
                 y="307.584"
                 style="stroke: #000000; stroke-width: 0.8"
                 id="use22" />
            </g>
          </g>
          <g
             id="text_6">
            <!-- 2.5 -->
            <g
               transform="translate(340.509057 322.182437) scale(0.1 -0.1)"
               id="g25">
              <use
                 xlink:href="#DejaVuSans-32"
                 id="use23" />
              <use
                 xlink:href="#DejaVuSans-2e"
                 x="63.623047"
                 id="use24" />
              <use
                 xlink:href="#DejaVuSans-35"
                 x="95.410156"
                 id="use25" />
            </g>
          </g>
        </g>
        <g
           id="xtick_7">
          <g
             id="line2d_7">
            <g
               id="g26">
              <use
                 xlink:href="#m1a88354580"
                 x="403.40772"
                 y="307.584"
                 style="stroke: #000000; stroke-width: 0.8"
                 id="use26" />
            </g>
          </g>
          <g
             id="text_7">
            <!-- 3.0 -->
            <g
               transform="translate(395.456157 322.182437) scale(0.1 -0.1)"
               id="g29">
              <defs
                 id="defs26">
                <path
                   id="DejaVuSans-33"
                   d="M 2597 2516  Q 3050 2419 3304 2112  Q 3559 1806 3559 1356  Q 3559 666 3084 287  Q 2609 -91 1734 -91  Q 1441 -91 1130 -33  Q 819 25 488 141  L 488 750  Q 750 597 1062 519  Q 1375 441 1716 441  Q 2309 441 2620 675  Q 2931 909 2931 1356  Q 2931 1769 2642 2001  Q 2353 2234 1838 2234  L 1294 2234  L 1294 2753  L 1863 2753  Q 2328 2753 2575 2939  Q 2822 3125 2822 3475  Q 2822 3834 2567 4026  Q 2313 4219 1838 4219  Q 1578 4219 1281 4162  Q 984 4106 628 3988  L 628 4550  Q 988 4650 1302 4700  Q 1616 4750 1894 4750  Q 2613 4750 3031 4423  Q 3450 4097 3450 3541  Q 3450 3153 3228 2886  Q 3006 2619 2597 2516  z "
                   transform="scale(0.015625)" />
              </defs>
              <use
                 xlink:href="#DejaVuSans-33"
                 id="use27" />
              <use
                 xlink:href="#DejaVuSans-2e"
                 x="63.623047"
                 id="use28" />
              <use
                 xlink:href="#DejaVuSans-30"
                 x="95.410156"
                 id="use29" />
            </g>
          </g>
        </g>
        <g
           id="text_8">
          <!-- 1e10 -->
          <g
             transform="translate(389.479375 334.860562) scale(0.1 -0.1)"
             id="g33">
            <defs
               id="defs29">
              <path
                 id="DejaVuSans-65"
                 d="M 3597 1894  L 3597 1613  L 953 1613  Q 991 1019 1311 708  Q 1631 397 2203 397  Q 2534 397 2845 478  Q 3156 559 3463 722  L 3463 178  Q 3153 47 2828 -22  Q 2503 -91 2169 -91  Q 1331 -91 842 396  Q 353 884 353 1716  Q 353 2575 817 3079  Q 1281 3584 2069 3584  Q 2775 3584 3186 3129  Q 3597 2675 3597 1894  z M 3022 2063  Q 3016 2534 2758 2815  Q 2500 3097 2075 3097  Q 1594 3097 1305 2825  Q 1016 2553 972 2059  L 3022 2063  z "
                 transform="scale(0.015625)" />
            </defs>
            <use
               xlink:href="#DejaVuSans-31"
               id="use30" />
            <use
               xlink:href="#DejaVuSans-65"
               x="63.623047"
               id="use31" />
            <use
               xlink:href="#DejaVuSans-31"
               x="125.146484"
               id="use32" />
            <use
               xlink:href="#DejaVuSans-30"
               x="188.769531"
               id="use33" />
          </g>
        </g>
      </g>
      <g
         id="matplotlib.axis_2">
        <g
           id="ytick_1">
          <g
             id="line2d_8">
            <defs
               id="defs33">
              <path
                 id="m7bf46b2b07"
                 d="M 0 0  L -3.5 0  "
                 style="stroke: #000000; stroke-width: 0.8" />
            </defs>
            <g
               id="g34">
              <use
                 xlink:href="#m7bf46b2b07"
                 x="57.6"
                 y="293.886555"
                 style="stroke: #000000; stroke-width: 0.8"
                 id="use34" />
            </g>
          </g>
          <g
             id="text_9">
            <!-- 0.1 -->
            <g
               transform="translate(34.696875 297.685774) scale(0.1 -0.1)"
               id="g37">
              <use
                 xlink:href="#DejaVuSans-30"
                 id="use35" />
              <use
                 xlink:href="#DejaVuSans-2e"
                 x="63.623047"
                 id="use36" />
              <use
                 xlink:href="#DejaVuSans-31"
                 x="95.410156"
                 id="use37" />
            </g>
          </g>
        </g>
        <g
           id="ytick_2">
          <g
             id="line2d_9">
            <g
               id="g38">
              <use
                 xlink:href="#m7bf46b2b07"
                 x="57.6"
                 y="256.290501"
                 style="stroke: #000000; stroke-width: 0.8"
                 id="use38" />
            </g>
          </g>
          <g
             id="text_10">
            <!-- 0.2 -->
            <g
               transform="translate(34.696875 260.08972) scale(0.1 -0.1)"
               id="g41">
              <use
                 xlink:href="#DejaVuSans-30"
                 id="use39" />
              <use
                 xlink:href="#DejaVuSans-2e"
                 x="63.623047"
                 id="use40" />
              <use
                 xlink:href="#DejaVuSans-32"
                 x="95.410156"
                 id="use41" />
            </g>
          </g>
        </g>
        <g
           id="ytick_3">
          <g
             id="line2d_10">
            <g
               id="g42">
              <use
                 xlink:href="#m7bf46b2b07"
                 x="57.6"
                 y="218.694447"
                 style="stroke: #000000; stroke-width: 0.8"
                 id="use42" />
            </g>
          </g>
          <g
             id="text_11">
            <!-- 0.3 -->
            <g
               transform="translate(34.696875 222.493666) scale(0.1 -0.1)"
               id="g45">
              <use
                 xlink:href="#DejaVuSans-30"
                 id="use43" />
              <use
                 xlink:href="#DejaVuSans-2e"
                 x="63.623047"
                 id="use44" />
              <use
                 xlink:href="#DejaVuSans-33"
                 x="95.410156"
                 id="use45" />
            </g>
          </g>
        </g>
        <g
           id="ytick_4">
          <g
             id="line2d_11">
            <g
               id="g46">
              <use
                 xlink:href="#m7bf46b2b07"
                 x="57.6"
                 y="181.098393"
                 style="stroke: #000000; stroke-width: 0.8"
                 id="use46" />
            </g>
          </g>
          <g
             id="text_12">
            <!-- 0.4 -->
            <g
               transform="translate(34.696875 184.897612) scale(0.1 -0.1)"
               id="g49">
              <defs
                 id="defs46">
                <path
                   id="DejaVuSans-34"
                   d="M 2419 4116  L 825 1625  L 2419 1625  L 2419 4116  z M 2253 4666  L 3047 4666  L 3047 1625  L 3713 1625  L 3713 1100  L 3047 1100  L 3047 0  L 2419 0  L 2419 1100  L 313 1100  L 313 1709  L 2253 4666  z "
                   transform="scale(0.015625)" />
              </defs>
              <use
                 xlink:href="#DejaVuSans-30"
                 id="use47" />
              <use
                 xlink:href="#DejaVuSans-2e"
                 x="63.623047"
                 id="use48" />
              <use
                 xlink:href="#DejaVuSans-34"
                 x="95.410156"
                 id="use49" />
            </g>
          </g>
        </g>
        <g
           id="ytick_5">
          <g
             id="line2d_12">
            <g
               id="g50">
              <use
                 xlink:href="#m7bf46b2b07"
                 x="57.6"
                 y="143.502339"
                 style="stroke: #000000; stroke-width: 0.8"
                 id="use50" />
            </g>
          </g>
          <g
             id="text_13">
            <!-- 0.5 -->
            <g
               transform="translate(34.696875 147.301558) scale(0.1 -0.1)"
               id="g53">
              <use
                 xlink:href="#DejaVuSans-30"
                 id="use51" />
              <use
                 xlink:href="#DejaVuSans-2e"
                 x="63.623047"
                 id="use52" />
              <use
                 xlink:href="#DejaVuSans-35"
                 x="95.410156"
                 id="use53" />
            </g>
          </g>
        </g>
        <g
           id="ytick_6">
          <g
             id="line2d_13">
            <g
               id="g54">
              <use
                 xlink:href="#m7bf46b2b07"
                 x="57.6"
                 y="105.906285"
                 style="stroke: #000000; stroke-width: 0.8"
                 id="use54" />
            </g>
          </g>
          <g
             id="text_14">
            <!-- 0.6 -->
            <g
               transform="translate(34.696875 109.705504) scale(0.1 -0.1)"
               id="g57">
              <defs
                 id="defs54">
                <path
                   id="DejaVuSans-36"
                   d="M 2113 2584  Q 1688 2584 1439 2293  Q 1191 2003 1191 1497  Q 1191 994 1439 701  Q 1688 409 2113 409  Q 2538 409 2786 701  Q 3034 994 3034 1497  Q 3034 2003 2786 2293  Q 2538 2584 2113 2584  z M 3366 4563  L 3366 3988  Q 3128 4100 2886 4159  Q 2644 4219 2406 4219  Q 1781 4219 1451 3797  Q 1122 3375 1075 2522  Q 1259 2794 1537 2939  Q 1816 3084 2150 3084  Q 2853 3084 3261 2657  Q 3669 2231 3669 1497  Q 3669 778 3244 343  Q 2819 -91 2113 -91  Q 1303 -91 875 529  Q 447 1150 447 2328  Q 447 3434 972 4092  Q 1497 4750 2381 4750  Q 2619 4750 2861 4703  Q 3103 4656 3366 4563  z "
                   transform="scale(0.015625)" />
              </defs>
              <use
                 xlink:href="#DejaVuSans-30"
                 id="use55" />
              <use
                 xlink:href="#DejaVuSans-2e"
                 x="63.623047"
                 id="use56" />
              <use
                 xlink:href="#DejaVuSans-36"
                 x="95.410156"
                 id="use57" />
            </g>
          </g>
        </g>
        <g
           id="ytick_7">
          <g
             id="line2d_14">
            <g
               id="g58">
              <use
                 xlink:href="#m7bf46b2b07"
                 x="57.6"
                 y="68.310231"
                 style="stroke: #000000; stroke-width: 0.8"
                 id="use58" />
            </g>
          </g>
          <g
             id="text_15">
            <!-- 0.7 -->
            <g
               transform="translate(34.696875 72.10945) scale(0.1 -0.1)"
               id="g61">
              <defs
                 id="defs58">
                <path
                   id="DejaVuSans-37"
                   d="M 525 4666  L 3525 4666  L 3525 4397  L 1831 0  L 1172 0  L 2766 4134  L 525 4134  L 525 4666  z "
                   transform="scale(0.015625)" />
              </defs>
              <use
                 xlink:href="#DejaVuSans-30"
                 id="use59" />
              <use
                 xlink:href="#DejaVuSans-2e"
                 x="63.623047"
                 id="use60" />
              <use
                 xlink:href="#DejaVuSans-37"
                 x="95.410156"
                 id="use61" />
            </g>
          </g>
        </g>
      </g>
      <g
         id="line2d_15">
        <path
           d="M 73.832727 53.568  L 73.940336 120.303228  L 74.047944 108.789241  L 74.370769 172.788258  L 74.478378 215.460826  L 74.801203 172.913496  L 74.908811 179.301267  L 75.124028 231.297804  L 75.231636 218.515049  L 75.446853 172.135187  L 75.554462 152.216513  L 75.66207 193.093135  L 75.769678 183.841948  L 75.984895 145.938898  L 76.092504 190.078254  L 76.200112 137.318489  L 76.30772 147.513875  L 76.415329 210.755566  L 76.522937 209.415327  L 76.630546 199.62057  L 76.845762 161.440817  L 76.953371 168.781967  L 77.060979 199.940548  L 77.276196 171.302455  L 77.491413 215.355915  L 77.70663 164.94419  L 77.921847 125.222901  L 78.137063 187.052882  L 78.244672 177.644328  L 78.35228 208.014765  L 78.459889 131.213321  L 78.567497 163.647227  L 78.675105 154.255722  L 78.782714 195.450355  L 78.890322 166.459499  L 78.997931 167.975464  L 79.105539 128.260731  L 79.213147 203.202626  L 79.428364 174.921886  L 79.535973 152.58239  L 79.643581 180.345787  L 79.751189 175.386118  L 79.858798 164.984843  L 79.966406 122.212609  L 80.181623 178.859985  L 80.289231 163.492484  L 80.39684 169.113749  L 80.504448 152.425024  L 80.612057 196.706665  L 80.827273 133.038118  L 80.934882 166.8339  L 81.257707 131.549037  L 81.365315 146.310677  L 81.472924 141.313633  L 81.580532 179.493385  L 81.795749 155.17566  L 81.903357 172.18043  L 82.010966 133.920682  L 82.118574 150.810049  L 82.226183 190.502488  L 82.333791 147.919094  L 82.549008 173.949492  L 82.656616 161.828988  L 82.764225 178.520991  L 82.871833 154.150155  L 82.979441 158.188574  L 83.08705 137.379468  L 83.194658 168.496085  L 83.302267 161.563432  L 83.409875 141.237572  L 83.625092 163.487894  L 83.7327 130.363542  L 84.055525 158.098089  L 84.163134 139.547848  L 84.270742 150.699893  L 84.378351 186.226707  L 84.485959 149.298675  L 84.701176 191.977144  L 85.024001 149.799625  L 85.239218 179.014073  L 85.346826 155.975607  L 85.454435 200.104472  L 85.77726 133.785609  L 85.884868 139.678987  L 85.992477 179.198323  L 86.100085 170.095978  L 86.207693 178.894737  L 86.315302 176.172295  L 86.42291 128.753813  L 86.530519 236.150596  L 86.745735 151.836866  L 86.853344 153.876075  L 86.960952 144.494404  L 87.068561 162.910883  L 87.391386 122.2231  L 87.714211 163.226272  L 87.929428 181.488007  L 88.144645 139.915693  L 88.252253 150.840211  L 88.359861 138.048276  L 88.682687 209.907098  L 88.790295 186.338175  L 88.897903 226.776794  L 89.005512 212.960665  L 89.11312 213.969778  L 89.220729 161.814562  L 89.328337 167.429926  L 89.651162 203.26295  L 89.866379 145.931686  L 90.081596 197.787249  L 90.189204 219.266474  L 90.404421 148.703304  L 90.512029 196.925011  L 90.727246 152.577145  L 90.834855 170.877566  L 90.942463 134.884552  L 91.050071 157.426658  L 91.15768 150.817262  L 91.265288 180.367425  L 91.480505 162.184374  L 91.588113 138.709216  L 91.80333 157.526979  L 91.910939 134.842588  L 92.018547 140.155677  L 92.233764 172.737114  L 92.341372 152.796802  L 92.448981 158.602973  L 92.556589 143.263011  L 92.664197 165.817575  L 92.879414 151.737201  L 92.987023 181.133276  L 93.094631 170.358256  L 93.202239 137.983362  L 93.309848 184.338309  L 93.417456 167.618766  L 93.525065 172.678757  L 93.632673 135.920549  L 93.740281 173.743604  L 93.84789 168.96884  L 93.955498 149.092787  L 94.170715 212.151538  L 94.278323 160.58448  L 94.385932 177.513189  L 94.49354 169.317014  L 94.601149 213.251137  L 94.708757 185.63855  L 94.816365 209.877591  L 95.031582 187.917087  L 95.139191 203.306226  L 95.246799 189.301912  L 95.354407 147.576166  L 95.462016 230.213287  L 95.569624 160.172049  L 95.784841 213.257039  L 95.892449 143.124659  L 96.000058 169.143255  L 96.107666 135.411075  L 96.215275 154.165236  L 96.322883 150.250742  L 96.430491 140.636956  L 96.645708 148.39644  L 96.753317 155.106812  L 96.968533 148.407586  L 97.076142 208.9688  L 97.291359 172.113549  L 97.398967 176.306712  L 97.506575 191.77519  L 97.614184 190.38643  L 97.721792 201.648631  L 97.829401 167.602374  L 97.937009 169.31308  L 98.044617 180.679536  L 98.152226 178.345265  L 98.259834 164.902226  L 98.367443 166.921763  L 98.475051 173.619022  L 98.690268 144.17377  L 98.797876 198.347867  L 99.013093 160.486126  L 99.120701 193.740961  L 99.335918 144.883231  L 99.443527 161.131329  L 99.551135 205.351335  L 99.658743 162.860394  L 99.766352 182.95086  L 99.87396 140.097976  L 99.981569 189.85663  L 100.089177 186.878467  L 100.304394 164.934355  L 100.412002 169.258001  L 100.519611 194.112084  L 100.734827 155.235984  L 100.842436 198.27902  L 101.057653 154.071471  L 101.165261 138.101387  L 101.272869 143.093186  L 101.380478 183.708842  L 101.488086 153.501673  L 101.810912 181.709631  L 101.91852 165.478581  L 102.026128 169.534048  L 102.133737 200.504445  L 102.348954 165.117949  L 102.456562 154.424891  L 102.56417 190.189066  L 102.671779 190.019897  L 102.779387 147.335527  L 102.886996 202.708889  L 102.994604 198.395077  L 103.102212 141.286093  L 103.209821 188.02462  L 103.317429 165.343508  L 103.425038 173.390185  L 103.640254 152.305032  L 103.747863 162.485993  L 103.855471 119.098718  L 103.96308 188.00036  L 104.178296 175.670033  L 104.285905 136.859503  L 104.393513 193.566546  L 104.501122 173.54165  L 104.60873 173.88589  L 104.716338 155.879876  L 105.039164 211.830904  L 105.25438 178.39772  L 105.361989 188.696707  L 105.469597 157.921707  L 105.577206 164.895013  L 105.684814 156.605073  L 105.900031 168.12824  L 106.007639 151.852603  L 106.222856 185.741494  L 106.330464 156.296897  L 106.438073 178.649507  L 106.65329 150.595637  L 106.976115 191.87879  L 107.083723 152.952857  L 107.191332 156.451641  L 107.29894 170.000903  L 107.406548 166.501463  L 107.514157 172.860384  L 107.621765 164.81633  L 107.729374 176.262125  L 107.836982 168.612798  L 107.94459 144.478668  L 108.052199 173.133809  L 108.159807 153.69707  L 108.375024 169.520279  L 108.482632 152.474856  L 108.590241 154.898302  L 108.697849 182.915452  L 108.805458 159.29932  L 108.913066 167.094867  L 109.020674 162.644015  L 109.128283 166.527691  L 109.235891 154.204577  L 109.3435 156.979475  L 109.451108 162.971207  L 109.558716 192.481373  L 109.666325 183.40919  L 109.773933 154.079996  L 109.98915 186.382107  L 110.204367 155.992655  L 110.311975 163.793447  L 110.419584 198.697352  L 110.527192 169.219971  L 110.742409 182.862341  L 110.957626 165.727744  L 111.065234 210.344446  L 111.172842 162.451241  L 111.280451 174.154724  L 111.388059 216.252905  L 111.495668 205.767701  L 111.710884 176.789303  L 111.818493 177.655475  L 111.926101 189.25667  L 112.03371 164.658963  L 112.248926 174.054403  L 112.356535 180.301856  L 112.464143 197.143357  L 112.67936 185.66281  L 112.786968 158.768208  L 113.002185 175.484472  L 113.109794 163.258401  L 113.432619 198.427862  L 113.540227 176.768976  L 113.755444 197.502022  L 113.863052 190.215294  L 113.970661 197.048282  L 114.185878 173.194788  L 114.401094 184.367159  L 114.508703 181.501776  L 114.616311 181.672257  L 114.831528 162.377804  L 115.046745 164.881243  L 115.261962 221.418462  L 115.36957 163.441339  L 115.477178 176.00247  L 115.584787 213.416372  L 115.692395 164.041299  L 115.800004 174.742226  L 115.907612 161.899147  L 116.01522 169.132108  L 116.122829 195.839838  L 116.230437 184.074064  L 116.338046 216.405681  L 116.445654 166.179518  L 116.660871 230.803411  L 116.876088 193.297056  L 117.091304 168.767542  L 117.198913 168.637715  L 117.306521 213.003285  L 117.41413 181.38244  L 117.521738 189.446165  L 117.629346 186.488329  L 117.844563 164.826821  L 118.05978 232.255773  L 118.274997 189.176675  L 118.382605 170.0409  L 118.490214 171.947658  L 118.597822 185.846405  L 118.70543 183.415747  L 118.813039 211.576495  L 119.028256 153.71084  L 119.243472 196.759776  L 119.351081 178.485583  L 119.673906 191.049337  L 119.781514 163.664275  L 120.211948 239.603481  L 120.319556 237.696723  L 120.427165 184.411091  L 120.534773 217.881649  L 120.642382 173.31937  L 120.74999 183.573114  L 120.857598 221.571239  L 120.965207 198.59113  L 121.072815 208.552434  L 121.180424 199.617947  L 121.288032 233.383567  L 121.39564 224.593333  L 121.503249 175.136954  L 121.718466 223.229489  L 121.826074 156.767685  L 122.041291 173.83868  L 122.148899 161.02773  L 122.256508 188.069208  L 122.364116 163.40921  L 122.471724 202.268262  L 122.686941 161.886689  L 122.79455 165.507431  L 122.902158 174.38225  L 123.009766 159.595694  L 123.224983 216.245036  L 123.332592 199.221908  L 123.4402 176.080498  L 123.547808 244.256942  L 123.655417 194.648442  L 123.763025 206.757144  L 123.870634 184.61829  L 123.978242 208.080334  L 124.08585 165.612998  L 124.301067 221.331911  L 124.408676 160.766108  L 124.516284 174.668133  L 124.731501 161.055269  L 124.839109 161.750304  L 125.054326 197.828558  L 125.161934 171.036899  L 125.269543 183.948826  L 125.48476 165.264824  L 125.592368 197.15057  L 125.699976 177.265337  L 125.807585 226.032581  L 125.915193 188.370827  L 126.022802 200.697219  L 126.13041 233.936973  L 126.238019 195.700175  L 126.345627 203.681283  L 126.453235 156.741458  L 126.560844 175.087777  L 126.668452 227.332167  L 126.991277 161.359511  L 127.206494 196.55061  L 127.314103 169.95107  L 127.421711 212.219075  L 127.529319 149.390472  L 127.636928 222.384955  L 127.852145 180.271694  L 128.067361 185.626747  L 128.17497 162.845313  L 128.282578 177.786614  L 128.390187 137.917793  L 128.497795 162.590248  L 128.605403 212.982958  L 128.713012 155.360566  L 128.82062 199.657944  L 128.928229 176.247044  L 129.035837 181.437518  L 129.143445 162.786301  L 129.466271 222.414462  L 129.573879 178.066595  L 129.789096 190.617235  L 129.896704 166.562443  L 130.111921 214.866112  L 130.327138 170.595617  L 130.542355 200.776558  L 130.649963 173.516734  L 130.757571 203.299669  L 130.86518 195.873278  L 131.080397 166.605063  L 131.188005 171.88799  L 131.403222 202.689218  L 131.51083 174.984833  L 131.726047 216.796475  L 131.833655 218.111142  L 131.941264 195.808364  L 132.048872 214.367129  L 132.156481 181.340475  L 132.264089 208.739307  L 132.371697 168.475103  L 132.586914 240.994208  L 132.694523 220.899153  L 132.802131 211.626983  L 132.909739 180.22055  L 133.017348 196.837148  L 133.232565 158.204311  L 133.340173 201.764689  L 133.447781 156.5736  L 133.55539 191.627659  L 133.662998 160.994289  L 133.770607 214.113375  L 133.878215 207.061386  L 133.985823 161.503108  L 134.093432 191.421116  L 134.308649 178.407556  L 134.523865 223.085237  L 134.631474 167.066672  L 134.739082 206.949918  L 134.846691 190.975899  L 134.954299 197.974122  L 135.061907 222.660347  L 135.169516 220.56147  L 135.384733 178.130853  L 135.599949 226.763024  L 135.707558 189.715655  L 135.815166 192.884625  L 135.922775 222.163331  L 136.030383 200.605422  L 136.137991 213.57046  L 136.2456 202.967232  L 136.353208 164.33964  L 136.460817 225.557203  L 136.568425 213.143604  L 136.676033 157.72631  L 136.998859 174.912707  L 137.106467 216.114553  L 137.214075 196.944682  L 137.321684 224.082547  L 137.536901 204.105517  L 137.644509 204.001261  L 137.752117 162.155523  L 137.859726 198.401634  L 137.967334 170.987066  L 138.182551 188.425249  L 138.290159 173.317403  L 138.505376 191.143757  L 138.612985 185.112027  L 138.828201 206.99975  L 138.93581 201.604044  L 139.043418 213.184257  L 139.258635 179.268482  L 139.366243 219.214019  L 139.473852 191.143757  L 139.58146 208.154428  L 139.689069 173.565911  L 139.904285 223.563238  L 140.011894 221.574518  L 140.119502 225.324432  L 140.442327 174.272749  L 140.549936 186.673891  L 140.657544 166.280495  L 140.765153 202.211872  L 140.872761 162.472879  L 141.087978 190.103171  L 141.195586 189.108483  L 141.303195 202.781015  L 141.410803 175.156625  L 141.518411 206.890905  L 141.733628 187.787915  L 141.841237 231.308951  L 142.056453 179.194389  L 142.27167 228.292759  L 142.379279 190.105793  L 142.486887 210.788351  L 142.809712 157.292896  L 142.917321 230.772594  L 143.132537 182.655142  L 143.240146 188.4541  L 143.347754 205.060207  L 143.455363 161.308367  L 143.562971 201.295212  L 143.670579 193.472782  L 143.778188 232.31413  L 144.101013 191.654543  L 144.31623 201.015886  L 144.423838 197.331542  L 144.639055 232.501659  L 144.746663 225.413606  L 144.854272 228.974025  L 145.069489 178.954405  L 145.284705 213.500957  L 145.499922 242.402639  L 145.607531 178.830479  L 145.715139 214.721859  L 145.822747 192.964619  L 146.037964 233.869437  L 146.145573 186.721101  L 146.253181 204.140269  L 146.360789 190.090712  L 146.468398 197.658077  L 146.576006 190.394954  L 146.683615 211.546989  L 146.791223 207.075155  L 146.898831 184.617634  L 147.114048 216.57485  L 147.221657 197.778069  L 147.329265 215.308705  L 147.436873 174.719933  L 147.544482 214.386144  L 147.759699 185.41627  L 147.867307 193.927178  L 147.974915 171.317536  L 148.082524 206.873201  L 148.190132 181.147701  L 148.405349 217.117109  L 148.512957 212.066954  L 148.620566 178.511156  L 148.728174 230.723416  L 148.835783 197.888882  L 148.943391 236.205674  L 149.158608 204.188134  L 149.266216 208.95962  L 149.373825 198.816033  L 149.481433 224.515961  L 149.589041 218.351126  L 149.69665 228.729451  L 149.804258 216.258806  L 149.911867 226.726306  L 150.019475 191.687983  L 150.127083 235.191316  L 150.234692 207.722325  L 150.3423 231.248627  L 150.449909 201.407992  L 150.665126 240.987651  L 150.772734 233.67404  L 150.987951 208.107218  L 151.095559 212.396768  L 151.203168 177.513845  L 151.418384 219.60678  L 151.525993 211.606001  L 151.633601 220.430987  L 151.74121 207.044993  L 151.848818 218.154417  L 151.956426 207.526273  L 152.064035 211.663046  L 152.279252 245.490302  L 152.38686 239.958867  L 152.494468 243.548136  L 152.602077 214.207795  L 152.709685 235.510639  L 153.140119 220.826371  L 153.247727 200.947039  L 153.462944 235.782096  L 153.570552 219.547767  L 153.678161 241.632198  L 153.893378 204.030768  L 154.000986 217.526262  L 154.108594 194.475338  L 154.216203 215.477219  L 154.323811 180.691994  L 154.646636 236.855467  L 154.754245 225.205751  L 154.861853 245.173602  L 154.969462 204.110762  L 155.07707 204.626138  L 155.184678 220.731295  L 155.292287 211.367984  L 155.399895 218.048195  L 155.615112 193.826201  L 155.937937 239.507094  L 156.045546 204.548766  L 156.153154 227.593789  L 156.260762 195.277908  L 156.475979 225.919802  L 156.583588 214.536298  L 156.691196 215.500168  L 156.798804 228.961567  L 156.906413 227.635098  L 157.12163 206.235867  L 157.229238 233.1167  L 157.336846 206.036536  L 157.444455 216.892206  L 157.552063 200.902451  L 157.659672 246.468598  L 157.76728 169.103913  L 158.090105 238.949098  L 158.197714 239.149085  L 158.305322 209.334677  L 158.520539 246.760381  L 158.735756 214.510726  L 158.843364 228.318331  L 158.950972 222.436099  L 159.058581 223.009176  L 159.166189 254.828697  L 159.273798 212.090559  L 159.381406 229.301872  L 159.489014 224.283845  L 159.596623 212.263662  L 159.704231 228.040972  L 159.81184 221.337812  L 159.919448 194.881869  L 160.027056 226.743354  L 160.134665 190.101859  L 160.349882 211.575183  L 160.45749 224.049107  L 160.565098 188.954395  L 160.780315 229.440223  L 160.887924 190.573303  L 160.995532 237.924904  L 161.210749 199.193713  L 161.318357 173.979654  L 161.533574 231.76597  L 161.641182 224.744798  L 161.856399 199.513036  L 162.071616 236.534177  L 162.286833 169.345864  L 162.50205 230.193616  L 162.609658 193.051171  L 162.717266 228.309151  L 162.824875 224.0714  L 162.932483 196.917143  L 163.1477 212.131868  L 163.255308 193.830135  L 163.362917 193.83407  L 163.470525 215.906043  L 163.685742 151.506396  L 163.79335 228.368163  L 163.900959 224.716603  L 164.008567 209.347135  L 164.223784 226.421408  L 164.331392 211.980402  L 164.439001 160.194998  L 164.761826 232.04923  L 164.869434 211.919423  L 164.977043 227.029892  L 165.19226 189.473704  L 165.299868 217.26923  L 165.407476 181.326706  L 165.515085 227.553136  L 165.622693 200.295279  L 165.730302 201.225709  L 165.83791 213.144259  L 166.053127 180.89657  L 166.160735 227.107264  L 166.268344 202.954118  L 166.375952 225.927015  L 166.591169 167.562376  L 166.806386 215.576884  L 166.913994 183.756708  L 167.021602 221.564026  L 167.129211 197.928879  L 167.236819 229.22909  L 167.344428 192.527927  L 167.452036 233.99533  L 167.559644 221.936461  L 167.774861 172.385662  L 167.88247 185.279885  L 167.990078 226.326988  L 168.205295 216.663369  L 168.312903 204.833993  L 168.52812 164.586181  L 168.743337 205.131022  L 168.958554 186.346699  L 169.066162 190.790338  L 169.17377 210.025123  L 169.388987 195.896883  L 169.604204 225.127068  L 169.819421 166.709318  L 169.927029 229.578575  L 170.034638 211.177833  L 170.142246 213.144259  L 170.249854 211.447323  L 170.465071 168.046279  L 170.57268 174.398643  L 170.680288 207.220064  L 170.787896 203.417038  L 170.895505 179.738615  L 171.110722 228.905177  L 171.21833 230.78833  L 171.541155 171.261802  L 171.756372 223.851743  L 171.971589 206.865333  L 172.079197 210.025778  L 172.294414 170.397597  L 172.509631 209.7058  L 172.617239 209.964799  L 172.724848 227.56166  L 172.832456 172.589583  L 172.940064 188.164283  L 173.047673 179.589117  L 173.155281 217.781327  L 173.26289 215.630651  L 173.370498 191.206704  L 173.585715 223.450458  L 173.800932 197.021398  L 173.90854 219.767425  L 174.016148 174.322582  L 174.231365 233.095062  L 174.338974 229.409406  L 174.446582 211.550923  L 174.55419 235.88504  L 174.769407 200.03628  L 174.877016 212.019088  L 175.092233 184.067507  L 175.199841 213.873391  L 175.307449 202.348912  L 175.415058 164.680601  L 175.630275 177.090267  L 175.737883 180.201535  L 175.845491 175.922475  L 176.060708 205.798519  L 176.168317 176.27196  L 176.383533 218.9124  L 176.491142 162.411244  L 176.59875 228.066544  L 176.706359 185.845749  L 176.813967 193.908819  L 176.921575 165.272037  L 177.029184 181.411946  L 177.136792 236.29157  L 177.244401 166.709318  L 177.352009 225.593922  L 177.459617 195.074643  L 177.567226 242.943586  L 177.674834 210.581151  L 177.782443 212.609869  L 177.997659 181.539151  L 178.105268 188.773423  L 178.212876 225.278533  L 178.428093 198.757021  L 178.535701 208.225898  L 178.64331 206.1821  L 178.750918 214.175666  L 178.858527 212.754777  L 178.966135 222.74821  L 179.181352 169.589127  L 179.28896 149.869128  L 179.396569 206.113908  L 179.504177 185.946726  L 179.611785 224.803155  L 179.827002 184.43404  L 180.042219 209.441555  L 180.149827 185.313981  L 180.257436 199.84285  L 180.365044 189.065207  L 180.580261 214.565148  L 180.795478 180.210715  L 181.010695 234.931661  L 181.118303 228.159653  L 181.225911 233.923203  L 181.33352 209.634985  L 181.441128 217.355126  L 181.548737 215.990627  L 181.763953 198.358359  L 181.871562 198.296723  L 181.97917 206.411593  L 182.086779 180.34382  L 182.301995 232.756724  L 182.409604 222.881316  L 182.517212 189.491408  L 182.624821 216.144715  L 182.732429 200.099226  L 182.947646 226.794498  L 183.162863 194.417637  L 183.270471 228.228501  L 183.378079 197.30597  L 183.485688 235.23328  L 183.700905 202.58234  L 183.808513 241.792843  L 184.131338 194.493698  L 184.238947 214.099605  L 184.346555 204.638596  L 184.561772 207.06532  L 184.66938 229.058609  L 184.776989 202.11483  L 184.992205 215.708679  L 185.099814 203.284588  L 185.207422 215.300181  L 185.315031 214.40188  L 185.422639 190.25857  L 185.530247 203.578339  L 185.637856 196.92829  L 185.745464 231.54369  L 185.960681 198.11903  L 186.068289 202.972478  L 186.175898 248.484201  L 186.283506 190.822467  L 186.498723 210.746386  L 186.606331 215.868668  L 186.71394 190.22054  L 186.821548 239.302517  L 186.929157 211.503057  L 187.036765 217.517083  L 187.144373 165.768398  L 187.251982 199.077655  L 187.35959 188.092813  L 187.467199 214.482531  L 187.574807 207.839039  L 187.682415 210.318218  L 187.790024 196.783381  L 187.897632 213.342934  L 188.005241 201.474217  L 188.112849 213.569149  L 188.220457 211.866967  L 188.328066 216.545344  L 188.543283 203.146236  L 188.650891 205.363138  L 188.758499 183.74884  L 188.866108 201.697153  L 188.973716 195.429373  L 189.081325 205.180199  L 189.188933 187.76431  L 189.296541 213.323919  L 189.40415 196.085723  L 189.511758 220.044128  L 189.619367 212.021055  L 189.726975 214.119276  L 189.834583 209.340578  L 189.942192 191.988291  L 190.157409 204.826125  L 190.265017 212.66298  L 190.372625 248.454695  L 190.587842 225.982093  L 190.695451 216.138814  L 190.803059 193.641951  L 191.018276 224.677917  L 191.125884 221.964  L 191.233493 240.735209  L 191.341101 198.732104  L 191.448709 221.884005  L 191.663926 195.665423  L 191.771535 222.392824  L 191.879143 193.044614  L 191.986751 225.685063  L 192.09436 200.600176  L 192.201968 222.211196  L 192.417185 191.666345  L 192.524793 226.461405  L 192.632402 186.24769  L 192.955227 222.3843  L 193.278052 159.305221  L 193.493269 207.587908  L 193.600877 216.346669  L 193.708486 213.136391  L 193.816094 216.732873  L 193.923703 201.351602  L 194.031311 211.385032  L 194.138919 201.729937  L 194.246528 220.315585  L 194.354136 209.139936  L 194.461745 211.645343  L 194.676961 177.530893  L 194.78457 211.97319  L 194.892178 211.090625  L 194.999787 209.970044  L 195.215003 185.399221  L 195.322612 215.416895  L 195.43022 181.441452  L 195.645437 202.032868  L 195.753045 191.929278  L 195.860654 194.942848  L 195.968262 181.409323  L 196.075871 189.031111  L 196.183479 223.653068  L 196.398696 176.949948  L 196.506304 179.117017  L 196.613913 231.463695  L 196.829129 186.554554  L 196.936738 215.29428  L 197.044346 201.640763  L 197.151955 215.176911  L 197.259563 211.307004  L 197.367171 192.00206  L 197.582388 210.994894  L 197.797605 202.043359  L 197.905213 213.173765  L 198.12043 201.47225  L 198.335647 217.279066  L 198.443255 209.784483  L 198.658472 215.405748  L 198.766081 182.628258  L 199.088906 214.324508  L 199.196514 199.94645  L 199.411731 233.538311  L 199.51934 191.048681  L 199.626948 217.021378  L 199.734556 183.797361  L 199.949773 206.676493  L 200.057382 219.804799  L 200.16499 203.146892  L 200.272598 210.061186  L 200.380207 194.589429  L 200.487815 194.696963  L 200.595424 190.11694  L 200.703032 211.840739  L 200.918249 176.149346  L 201.025857 219.046817  L 201.133466 204.087813  L 201.241074 220.990294  L 201.348682 206.484375  L 201.456291 217.770836  L 201.563899 194.838593  L 201.671508 219.576618  L 201.886724 195.113984  L 201.994333 244.288415  L 202.101941 177.056826  L 202.20955 216.848931  L 202.317158 210.775892  L 202.424766 234.874615  L 202.639983 185.871321  L 202.8552 206.39979  L 203.070417 180.22514  L 203.285634 224.655624  L 203.393242 226.609592  L 203.50085 219.187135  L 203.608459 186.155892  L 203.716067 220.259851  L 203.823676 219.991016  L 203.931284 230.265742  L 204.254109 187.294177  L 204.361718 215.427386  L 204.469326 213.545544  L 204.576934 236.771538  L 204.684543 210.679505  L 204.792151 213.68324  L 205.007368 189.993014  L 205.222585 217.695432  L 205.437802 183.883257  L 205.653018 220.430987  L 205.760627 216.740741  L 205.868235 223.654379  L 205.975844 248.227825  L 206.19106 198.549165  L 206.298669 217.638386  L 206.406277 179.536661  L 206.513886 209.258616  L 206.621494 183.040034  L 206.729102 233.178335  L 206.836711 222.79083  L 206.944319 178.854739  L 207.051928 220.781128  L 207.374753 199.334031  L 207.482361 214.334344  L 207.58997 192.625626  L 207.697578 209.394345  L 207.912795 177.441719  L 208.020403 218.492756  L 208.128012 195.452978  L 208.343228 216.843029  L 208.450837 212.255138  L 208.558445 212.390867  L 208.773662 164.497007  L 208.988879 199.854652  L 209.096487 204.180922  L 209.204096 189.798273  L 209.419312 212.807888  L 209.634529 170.141221  L 209.849746 220.317552  L 209.957354 199.646142  L 210.172571 201.179154  L 210.28018 168.503297  L 210.495396 223.794042  L 210.818222 191.039502  L 210.92583 219.643499  L 211.033438 190.297912  L 211.248655 216.132257  L 211.356264 212.690519  L 211.463872 197.677748  L 211.57148 213.876669  L 211.679089 206.047027  L 211.786697 163.265613  L 211.894306 204.199937  L 212.324739 174.983522  L 212.539956 221.788929  L 212.755173 177.123051  L 212.862781 186.893548  L 212.97039 183.842604  L 213.185606 204.942838  L 213.293215 186.791916  L 213.400823 233.039328  L 213.508432 201.31685  L 213.61604 207.635774  L 213.723648 202.238756  L 213.938865 181.989612  L 214.046474 189.153726  L 214.154082 212.217108  L 214.26169 190.76411  L 214.369299 207.989848  L 214.476907 182.485317  L 214.584516 202.624304  L 214.692124 200.983102  L 214.799732 189.5078  L 214.907341 201.693874  L 215.014949 188.105271  L 215.122558 193.51278  L 215.230166 206.235867  L 215.337774 197.583328  L 215.445383 223.396691  L 215.552991 203.342945  L 215.6606 230.436878  L 215.768208 225.90341  L 215.875816 197.543987  L 215.983425 230.847343  L 216.198642 196.726336  L 216.30625 203.573749  L 216.413858 220.910299  L 216.521467 209.627116  L 216.629075 215.192647  L 216.736684 190.821811  L 216.844292 217.45348  L 216.9519 213.140981  L 217.059509 201.77059  L 217.167117 211.345035  L 217.274726 193.401967  L 217.489942 236.382056  L 217.812768 186.882401  L 217.920376 190.786404  L 218.027984 216.656812  L 218.135593 190.96213  L 218.458418 219.806111  L 218.673635 180.832312  L 218.781243 215.709334  L 218.888852 205.159873  L 218.99646 211.615836  L 219.104068 196.388654  L 219.319285 207.520371  L 219.426894 207.857398  L 219.534502 196.450945  L 219.64211 209.810055  L 219.749719 189.580582  L 220.180152 222.647889  L 220.287761 204.378941  L 220.395369 219.106485  L 220.502978 208.005585  L 220.610586 214.660224  L 220.718194 195.11923  L 220.825803 239.622496  L 221.04102 202.683972  L 221.148628 231.048641  L 221.256236 210.276909  L 221.471453 225.721782  L 221.579062 203.805209  L 221.68667 210.869657  L 221.794278 228.323576  L 221.901887 187.861353  L 222.009495 257.96357  L 222.117104 197.140735  L 222.224712 228.196372  L 222.33232 203.81111  L 222.439929 235.381467  L 222.547537 197.780692  L 222.762754 209.046827  L 222.870362 191.253914  L 223.085579 214.001907  L 223.193188 190.201525  L 223.300796 228.408817  L 223.408404 225.414262  L 223.516013 200.169385  L 223.623621 218.438989  L 223.73123 217.776738  L 223.946447 238.888119  L 224.054055 194.805808  L 224.161663 225.466717  L 224.37688 190.765422  L 224.484489 221.018489  L 224.592097 184.856307  L 224.699705 228.272432  L 224.914922 177.592528  L 225.130139 224.696277  L 225.237747 204.128466  L 225.345356 205.725737  L 225.452964 194.017008  L 225.560573 215.784083  L 225.775789 205.803109  L 225.883398 209.20026  L 225.991006 185.136944  L 226.206223 207.104006  L 226.313831 207.423984  L 226.42144 231.546968  L 226.529048 197.532184  L 226.636657 236.526309  L 226.851873 209.572038  L 226.959482 207.56168  L 227.06709 189.533372  L 227.174699 195.975566  L 227.282307 187.615467  L 227.389915 227.68493  L 227.497524 216.584686  L 227.605132 219.076979  L 227.712741 212.293168  L 227.927957 238.242916  L 228.035566 182.510234  L 228.143174 227.001697  L 228.250783 222.506259  L 228.358391 212.504302  L 228.465999 218.380632  L 228.573608 193.891115  L 228.681216 228.576018  L 228.788825 203.415071  L 229.004041 250.631599  L 229.219258 213.327198  L 229.326867 218.138025  L 229.434475 207.498733  L 229.542083 236.551225  L 229.649692 206.934181  L 229.7573 216.546656  L 229.864909 198.712433  L 230.080125 229.260563  L 230.295342 209.466471  L 230.402951 225.257551  L 230.833384 198.519659  L 230.940993 238.326845  L 231.156209 212.028268  L 231.479035 253.447149  L 231.586643 198.223286  L 231.694251 221.705001  L 231.80186 218.871091  L 231.909468 220.436233  L 232.017077 210.221175  L 232.124685 238.075714  L 232.339902 229.58382  L 232.555119 236.174857  L 232.662727 210.327398  L 232.770335 223.553402  L 232.985552 208.456702  L 233.093161 251.791522  L 233.200769 235.075914  L 233.308377 244.293005  L 233.415986 226.392557  L 233.523594 230.431633  L 233.631203 222.236113  L 233.846419 234.59529  L 233.954028 222.192837  L 234.061636 224.188114  L 234.169245 236.526309  L 234.276853 219.935282  L 234.49207 231.002086  L 234.599678 230.371309  L 234.707287 222.250538  L 234.814895 199.778592  L 234.922503 247.515085  L 235.030112 220.477541  L 235.245329 230.56146  L 235.460545 211.390278  L 235.568154 238.895987  L 235.783371 202.048605  L 235.890979 247.14134  L 235.998587 196.549299  L 236.213804 235.120501  L 236.321413 219.783161  L 236.429021 222.306928  L 236.644238 233.764525  L 236.751846 238.673051  L 236.859455 235.555882  L 236.967063 216.625339  L 237.074671 224.559892  L 237.289888 202.810521  L 237.505105 221.315518  L 237.612713 214.472695  L 237.720322 179.449454  L 237.935539 218.375386  L 238.150755 216.399124  L 238.258364 216.561081  L 238.365972 217.928203  L 238.473581 229.158275  L 238.688797 226.406327  L 238.796406 230.564739  L 239.011623 218.055408  L 239.119231 235.173612  L 239.226839 183.525248  L 239.442056 218.66717  L 239.549665 217.160385  L 239.657273 204.230754  L 239.764881 227.549857  L 239.87249 220.222476  L 239.980098 191.211949  L 240.087707 226.36633  L 240.195315 211.120132  L 240.302923 215.572294  L 240.410532 202.538408  L 240.51814 211.815823  L 240.625749 209.415983  L 240.733357 209.651377  L 240.840965 201.108339  L 240.948574 215.332966  L 241.163791 202.880025  L 241.271399 204.456313  L 241.594224 236.448281  L 241.701833 198.570148  L 241.809441 209.884804  L 241.917049 198.812755  L 242.024658 226.946619  L 242.347483 197.99117  L 242.455091 220.682118  L 242.5627 217.894763  L 242.670308 202.723314  L 242.777917 206.1821  L 242.885525 218.006231  L 242.885525 218.006231  "
           clip-path="url(#p583e1d1390)"
           style="fill: none; stroke: #1f77b4; stroke-width: 1.5; stroke-linecap: square"
           id="path61" />
      </g>
      <g
         id="line2d_16">
        <path
           d="M 242.993133 249.089557  L 243.100742 251.938077  L 243.20835 266.871642  L 243.315959 241.423354  L 243.638784 264.334325  L 243.746392 247.865611  L 243.854001 250.844693  L 243.961609 245.001591  L 244.069217 247.870381  L 244.176826 255.02924  L 244.284434 244.737486  L 244.392043 247.623565  L 244.714868 235.542692  L 244.822476 250.741555  L 245.037693 242.314038  L 245.145301 246.41035  L 245.25291 240.747888  L 245.575735 255.118069  L 245.683343 271.996951  L 245.790952 234.346767  L 245.89856 237.473104  L 246.113777 270.635886  L 246.221385 245.086844  L 246.328994 249.49734  L 246.436602 248.011674  L 246.544211 259.12734  L 246.759427 245.075516  L 246.867036 243.591639  L 247.082253 249.4413  L 247.297469 241.004243  L 247.620295 251.062893  L 247.727903 242.253228  L 247.835511 242.462485  L 247.94312 263.289232  L 248.050728 243.956498  L 248.158337 264.609758  L 248.373553 248.349705  L 248.481162 249.499128  L 248.58877 270.987032  L 248.696379 239.21751  L 248.803987 243.798511  L 248.911596 236.079845  L 249.019204 252.337513  L 249.126812 235.924244  L 249.342029 247.953249  L 249.449638 240.530881  L 249.664854 249.243966  L 249.772463 240.219082  L 249.880071 244.871029  L 250.095288 265.610734  L 250.202896 247.90794  L 250.310505 249.349489  L 250.418113 259.082031  L 250.525722 250.822635  L 250.63333 268.269671  L 250.956155 246.842577  L 251.063764 253.957915  L 251.27898 243.847398  L 251.386589 271.941507  L 251.601806 260.673816  L 251.817022 245.629362  L 251.924631 246.794883  L 252.032239 246.702476  L 252.139848 254.014551  L 252.355064 240.910048  L 252.570281 261.897165  L 252.893106 247.04468  L 253.000715 261.900742  L 253.108323 249.638633  L 253.32354 256.431441  L 253.538757 242.347424  L 253.753974 256.944151  L 253.861582 241.215885  L 253.96919 252.810876  L 254.076799 239.638408  L 254.292016 263.419198  L 254.399624 252.767355  L 254.507232 266.0835  L 254.830058 248.505306  L 254.937666 245.090421  L 255.045274 251.121914  L 255.152883 249.847294  L 255.260491 252.722046  L 255.3681 251.406886  L 255.583316 268.238073  L 255.690925 251.016988  L 255.798533 265.790779  L 255.906142 249.635056  L 256.01375 258.293889  L 256.121358 253.444609  L 256.228967 267.341427  L 256.444184 248.595925  L 256.551792 248.454631  L 256.6594 266.044153  L 256.767009 245.63592  L 256.982226 252.573598  L 257.089834 246.894444  L 257.197442 247.902574  L 257.412659 252.42694  L 257.520268 250.775537  L 257.627876 253.87922  L 257.735484 266.960472  L 258.05831 243.853956  L 258.165918 240.380645  L 258.273526 268.4521  L 258.596352 244.011346  L 258.70396 239.374303  L 258.919177 262.205984  L 259.026785 262.04144  L 259.134394 248.205431  L 259.34961 251.254265  L 259.457219 262.04144  L 259.564827 258.113248  L 259.672436 250.070859  L 259.887652 263.336926  L 260.210478 237.302002  L 260.425694 244.975955  L 260.640911 238.800784  L 260.856128 253.823775  L 260.963736 240.681713  L 261.178953 250.96989  L 261.39417 245.331275  L 261.501778 258.199097  L 261.609387 246.598145  L 261.716995 253.734349  L 262.03982 242.100011  L 262.147429 256.443961  L 262.255037 242.100011  L 262.362646 248.407534  L 262.470254 242.005816  L 262.577862 246.802633  L 262.685471 245.44276  L 262.900688 254.20175  L 263.115904 242.511372  L 263.223513 245.44276  L 263.331121 244.938396  L 263.43873 240.486764  L 263.546338 251.026526  L 263.653946 237.949447  L 263.869163 256.445153  L 264.08438 249.841332  L 264.191988 255.305268  L 264.299597 271.974893  L 264.514814 242.396906  L 264.622422 239.317071  L 264.73003 248.343743  L 264.837639 244.983109  L 265.160464 255.074549  L 265.268072 240.631635  L 265.483289 251.353826  L 265.590898 239.522751  L 265.698506 255.535391  L 265.913723 246.894444  L 266.12894 251.116549  L 266.236548 242.303307  L 266.451765 255.393502  L 266.559373 252.245106  L 266.666982 258.070324  L 266.77459 237.555972  L 267.205024 249.689308  L 267.42024 245.172693  L 267.527849 246.54747  L 267.635457 256.533387  L 267.743066 240.626269  L 267.958282 264.618104  L 268.065891 275.470262  L 268.173499 252.763778  L 268.281108 255.491871  L 268.388716 265.884974  L 268.496324 263.418006  L 268.603933 252.527097  L 268.711541 264.534044  L 268.81915 262.079595  L 269.034366 237.645398  L 269.249583 243.415768  L 269.4648 236.794658  L 269.572408 252.066254  L 269.680017 243.415768  L 269.787625 257.893856  L 269.895234 254.94041  L 270.11045 239.134045  L 270.218059 243.623832  L 270.325667 243.574946  L 270.433276 240.302546  L 270.540884 243.574946  L 270.648492 242.121474  L 270.863709 258.077478  L 270.971318 263.200998  L 271.186534 257.622597  L 271.294143 246.574894  L 271.401751 250.560318  L 271.50936 258.82508  L 271.616968 256.584062  L 271.724576 244.990264  L 271.832185 258.867409  L 271.939793 256.354535  L 272.047402 243.821166  L 272.262618 259.370579  L 272.370227 252.735758  L 272.477835 258.17525  L 272.585444 251.090317  L 272.693052 265.760374  L 272.80066 249.905123  L 273.015877 265.716853  L 273.231094 255.185437  L 273.338703 263.251077  L 273.446311 243.433057  L 273.661528 252.125275  L 273.769136 239.051773  L 273.876745 254.864099  L 274.091961 252.217086  L 274.307178 257.718581  L 274.522395 241.83531  L 274.630003 241.83531  L 274.737612 241.673747  L 274.84522 246.183804  L 274.952829 240.365145  L 275.060437 260.651161  L 275.168045 244.913357  L 275.275654 246.431813  L 275.490871 241.978392  L 275.706087 257.718581  L 275.813696 252.081159  L 275.921304 255.14132  L 276.028913 252.410247  L 276.136521 267.00757  L 276.244129 250.75646  L 276.459346 261.826817  L 276.674563 244.501997  L 276.88978 260.692894  L 276.997388 263.132438  L 277.212605 253.568613  L 277.320213 250.758248  L 277.427822 253.376645  L 277.53543 271.633881  L 277.750647 247.793474  L 277.965864 260.68574  L 278.181081 251.40927  L 278.288689 244.255777  L 278.396297 251.557121  L 278.503906 239.707565  L 278.611514 240.863546  L 278.719123 236.419068  L 278.826731 257.10631  L 278.934339 255.347  L 279.149556 240.913029  L 279.257165 247.336209  L 279.364773 240.962511  L 279.472381 242.563239  L 279.57999 255.720205  L 279.687598 253.929894  L 279.795207 259.551816  L 279.902815 238.128299  L 280.010423 243.954113  L 280.118032 242.514352  L 280.440857 272.137052  L 280.656074 242.322981  L 280.763682 246.890867  L 280.871291 260.821667  L 280.978899 245.694941  L 281.194116 273.372921  L 281.301724 242.672935  L 281.409333 248.485632  L 281.516941 245.634728  L 281.624549 262.296602  L 281.839766 244.11508  L 282.054983 249.959375  L 282.162591 251.420001  L 282.2702 256.935804  L 282.377808 250.00528  L 282.485417 252.820414  L 282.593025 250.24375  L 282.808242 254.526069  L 282.91585 247.132913  L 283.131067 258.545474  L 283.238675 239.545405  L 283.453892 266.159214  L 283.561501 266.324951  L 283.669109 239.80653  L 283.991934 250.154324  L 284.099543 251.239957  L 284.207151 259.774786  L 284.314759 256.851148  L 284.422368 238.216533  L 284.637585 256.979921  L 284.745193 257.021653  L 284.96041 268.827093  L 285.068018 242.782631  L 285.175627 250.110803  L 285.283235 241.376256  L 285.498452 263.76319  L 285.713669 248.529749  L 285.821277 259.649589  L 286.036494 242.733744  L 286.144102 239.50725  L 286.251711 263.664225  L 286.466927 245.535763  L 286.574536 249.869353  L 286.682144 240.974435  L 286.789753 259.605472  L 286.897361 258.555609  L 287.004969 250.154324  L 287.112578 255.676685  L 287.220186 245.877371  L 287.327795 252.832934  L 287.435403 242.733744  L 287.543011 252.92236  L 287.65062 243.966036  L 287.865837 247.053622  L 287.973445 244.21941  L 288.081053 259.617396  L 288.403879 241.283253  L 288.511487 242.47739  L 288.619095 245.643074  L 288.941921 266.121655  L 289.049529 243.966036  L 289.157137 271.153365  L 289.372354 252.451383  L 289.587571 236.379721  L 289.695179 251.285266  L 289.802788 245.440375  L 289.910396 252.776298  L 290.018005 276.799134  L 290.125613 243.869456  L 290.233221 253.985935  L 290.34083 242.733744  L 290.448438 258.416105  L 290.556047 256.903611  L 290.663655 262.393182  L 290.771263 242.782631  L 290.878872 245.83385  L 290.98648 264.984155  L 291.201697 258.416105  L 291.309305 254.526665  L 291.416914 255.676685  L 291.632131 250.064898  L 291.739739 263.264789  L 291.847347 251.092702  L 291.954956 252.40667  L 292.062564 242.482159  L 292.170173 263.76796  L 292.385389 250.067282  L 292.600606 262.053363  L 292.708215 254.174922  L 292.923431 270.871971  L 293.03104 260.751915  L 293.138648 266.065615  L 293.246257 262.134443  L 293.353865 264.736147  L 293.569082 255.185437  L 293.67669 259.477891  L 293.784299 273.192876  L 294.107124 243.966036  L 294.214732 252.776298  L 294.322341 244.014326  L 294.537557 254.118285  L 294.645166 251.421194  L 294.860383 260.837168  L 294.967991 240.974435  L 295.075599 254.162402  L 295.183208 246.994601  L 295.290816 259.56374  L 295.506033 251.194648  L 295.613641 252.731584  L 295.72125 267.312811  L 295.828858 263.512797  L 296.044075 241.047764  L 296.259292 268.333461  L 296.474509 246.714995  L 296.582117 243.76453  L 296.797334 253.796948  L 296.904942 240.769351  L 297.012551 249.433549  L 297.120159 249.236812  L 297.227767 246.759112  L 297.442984 261.820855  L 297.550593 246.456256  L 297.658201 249.295833  L 297.76581 245.135134  L 297.981026 264.36473  L 298.088635 255.261151  L 298.196243 270.685964  L 298.519068 256.677065  L 298.626677 256.622217  L 298.734285 248.637061  L 298.841894 269.716585  L 298.949502 261.99613  L 299.05711 268.465216  L 299.164719 242.47739  L 299.272327 248.299626  L 299.379936 267.148267  L 299.595152 242.47739  L 299.917978 262.085556  L 300.025586 259.42662  L 300.133194 264.606181  L 300.240803 260.784108  L 300.45602 262.174983  L 300.563628 252.642755  L 300.671236 260.875323  L 300.778845 243.41696  L 300.886453 252.214702  L 300.994062 245.08744  L 301.10167 252.214105  L 301.209278 246.563567  L 301.316887 253.796351  L 301.424495 237.355062  L 301.639712 247.952653  L 301.74732 250.717708  L 301.854929 249.295833  L 301.962537 250.763018  L 302.070146 255.259959  L 302.285362 249.630287  L 302.392971 255.171725  L 302.500579 248.151775  L 302.608188 252.260011  L 302.715796 264.736147  L 302.823404 246.561182  L 302.931013 252.260011  L 303.038621 248.044464  L 303.14623 295.433748  L 303.253838 249.584381  L 303.469055 271.985624  L 303.576663 265.949361  L 303.684272 268.376982  L 303.79188 260.751915  L 304.007097 240.315662  L 304.114705 277.834092  L 304.222314 276.788403  L 304.329922 268.414541  L 304.43753 272.128706  L 304.545139 264.657452  L 304.652747 295.488  L 304.867964 241.763173  L 304.975572 274.313088  L 305.190789 235.791893  L 305.298398 268.51589  L 305.406006 258.386296  L 305.513614 269.723739  L 305.728831 248.341358  L 305.83644 252.451383  L 305.944048 249.432357  L 306.051656 267.262732  L 306.159265 264.436867  L 306.266873 281.978694  L 306.48209 260.540869  L 306.589698 277.657624  L 306.697307 243.317399  L 306.912524 270.767044  L 307.020132 265.716257  L 307.12774 270.61025  L 307.235349 268.336442  L 307.342957 270.71935  L 307.450566 263.006645  L 307.558174 283.098309  L 307.665782 283.068501  L 307.773391 265.743681  L 307.880999 269.479308  L 307.988608 246.454467  L 308.096216 284.310928  L 308.311433 263.133034  L 308.419041 262.05694  L 308.52665 273.119547  L 308.634258 263.348849  L 308.741866 265.626831  L 308.849475 261.919224  L 308.957083 275.491128  L 309.064692 269.475135  L 309.1723 256.446942  L 309.279908 280.980103  L 309.387517 270.859451  L 309.495125 290.125414  L 309.602734 252.597445  L 309.710342 258.011302  L 309.81795 270.649598  L 309.925559 260.716741  L 310.033167 282.21776  L 310.140776 251.000891  L 310.248384 279.117059  L 310.355992 276.687053  L 310.571209 262.104634  L 310.678818 261.972283  L 310.786426 288.313641  L 310.894034 272.071473  L 311.001643 273.474867  L 311.109251 252.451383  L 311.324468 269.516271  L 311.432076 249.71852  L 311.647293 291.045907  L 311.754902 249.672615  L 311.86251 279.140906  L 311.970118 240.755043  L 312.077727 255.078722  L 312.185335 246.590395  L 312.292944 249.614786  L 312.50816 278.849973  L 312.615769 262.27037  L 312.723377 278.043349  L 312.830986 260.84611  L 312.938594 267.483317  L 313.046202 261.092927  L 313.153811 276.664995  L 313.261419 272.06253  L 313.369028 285.313692  L 313.476636 279.979723  L 313.584244 287.296568  L 313.799461 255.392906  L 314.014678 281.131531  L 314.122286 242.674127  L 314.337503 268.347769  L 314.445112 256.708066  L 314.55272 288.22183  L 314.983154 238.894383  L 315.19837 278.912571  L 315.305979 265.910013  L 315.413587 270.758698  L 315.628804 255.217631  L 315.736412 280.092996  L 315.844021 278.848184  L 315.951629 256.409383  L 316.059238 283.109637  L 316.166846 265.671544  L 316.274454 275.457146  L 316.382063 273.084373  L 316.489671 259.346136  L 316.59728 275.614536  L 316.704888 273.304957  L 316.812496 249.765618  L 317.027713 273.269783  L 317.24293 270.657944  L 317.350538 270.839777  L 317.458147 269.675449  L 317.565755 275.535841  L 317.673364 263.417409  L 317.780972 268.272651  L 317.88858 263.257635  L 317.996189 269.405382  L 318.103797 289.937023  L 318.319014 257.709042  L 318.426622 260.522984  L 318.534231 269.675449  L 318.749448 251.386019  L 318.857056 245.091613  L 319.072273 274.392379  L 319.179881 268.422887  L 319.28749 273.234609  L 319.395098 265.987516  L 319.502706 271.955219  L 319.610315 258.013687  L 319.717923 270.694311  L 319.825532 256.838628  L 319.93314 258.013687  L 320.040748 255.218823  L 320.148357 269.41671  L 320.363574 249.488993  L 320.686399 271.222521  L 320.794007 271.077054  L 320.901616 274.655292  L 321.009224 272.153745  L 321.116832 256.894072  L 321.224441 277.933653  L 321.547266 251.0462  L 321.654874 270.000364  L 321.762483 267.324735  L 321.870091 270.705638  L 322.085308 256.493443  L 322.192917 254.030052  L 322.300525 288.340468  L 322.408133 255.447754  L 322.62335 277.845419  L 322.730959 256.66693  L 322.946175 272.145399  L 323.053784 256.89288  L 323.161392 279.052672  L 323.376609 275.467877  L 323.484217 277.900863  L 323.591826 264.616912  L 323.807043 286.418999  L 323.914651 255.186033  L 324.022259 255.273075  L 324.129868 251.104029  L 324.237476 264.527486  L 324.345085 255.130589  L 324.452693 256.579292  L 324.560301 269.519848  L 324.66791 253.76535  L 324.775518 260.837168  L 324.883127 248.206623  L 324.990735 264.527486  L 325.205952 249.639825  L 325.31356 249.364393  L 325.528777 266.995646  L 325.636385 268.040144  L 325.743994 266.881181  L 325.851602 237.469527  L 325.959211 263.013203  L 326.066819 252.463306  L 326.174427 260.672624  L 326.282036 260.537292  L 326.497253 267.08388  L 326.604861 265.877224  L 326.712469 262.04919  L 326.820078 268.509333  L 326.927686 259.357464  L 327.142903 267.242463  L 327.465728 248.064733  L 327.680945 265.793759  L 327.788553 245.404605  L 327.896162 263.516374  L 328.00377 259.70086  L 328.111379 265.877224  L 328.218987 263.344676  L 328.326595 245.297293  L 328.434204 263.184901  L 328.541812 260.672624  L 328.649421 285.407888  L 328.757029 264.696799  L 328.864637 269.531771  L 328.972246 262.13802  L 329.079854 271.886659  L 329.187463 263.224845  L 329.295071 286.390979  L 329.402679 260.675605  L 329.510288 273.28111  L 329.617896 268.471774  L 329.725505 292.092192  L 329.833113 253.654462  L 330.04833 265.838473  L 330.263547 256.721182  L 330.371155 253.76535  L 330.478763 265.838473  L 330.586372 264.618104  L 330.69398 270.879721  L 330.801589 259.313347  L 330.909197 272.029741  L 331.016805 251.104029  L 331.124414 276.843251  L 331.339631 250.672399  L 331.447239 241.716671  L 331.662456 252.127064  L 331.770064 252.025118  L 331.985281 259.259691  L 332.200498 261.882857  L 332.308106 273.22507  L 332.415715 264.375461  L 332.523323 277.648682  L 332.630931 265.810452  L 332.73854 266.881181  L 332.846148 266.559843  L 332.953757 258.91391  L 333.061365 259.176227  L 333.168973 249.248139  L 333.38419 272.953214  L 333.491799 275.433895  L 333.707015 257.982686  L 333.814624 257.886702  L 333.922232 278.566194  L 334.029841 260.623141  L 334.137449 271.68396  L 334.245057 265.620869  L 334.352666 276.241115  L 334.460274 268.178456  L 334.567883 269.249185  L 334.675491 264.296766  L 334.890708 271.447279  L 334.998316 254.725191  L 335.105925 261.326627  L 335.213533 255.283806  L 335.321141 273.470097  L 335.42875 259.794459  L 335.643967 278.656812  L 335.751575 275.174559  L 335.859183 255.745245  L 335.966792 271.508685  L 336.0744 270.258507  L 336.182009 262.681134  L 336.397225 273.868342  L 336.720051 258.501358  L 336.827659 259.889847  L 337.042876 270.344356  L 337.150484 259.836191  L 337.258093 266.373241  L 337.365701 252.929514  L 337.473309 271.169461  L 337.688526 258.332044  L 337.903743 279.625595  L 338.226568 253.063653  L 338.441785 266.450743  L 338.549393 263.994506  L 338.657002 270.221545  L 338.872219 263.846655  L 338.979827 263.810884  L 339.087435 266.595614  L 339.195044 257.023442  L 339.302652 264.02193  L 339.410261 261.553173  L 339.517869 264.95375  L 339.625477 259.794459  L 339.733086 269.222357  L 339.840694 260.11222  L 340.055911 276.214883  L 340.163519 267.753384  L 340.271128 285.966503  L 340.486345 266.373241  L 340.593953 271.472318  L 340.701561 286.023736  L 340.916778 265.201759  L 341.024387 270.233468  L 341.131995 263.926542  L 341.239603 282.856263  L 341.45482 262.681134  L 341.670037 281.782553  L 341.777645 266.545535  L 341.885254 269.248588  L 341.992862 258.642055  L 342.208079 280.553242  L 342.423296 273.947633  L 342.530904 272.739784  L 342.638513 258.472741  L 342.853729 274.017981  L 342.961338 278.525654  L 343.176555 255.473985  L 343.391771 274.840702  L 343.606988 250.954389  L 343.714597 272.337963  L 343.929813 256.88513  L 344.037422 268.775226  L 344.14503 262.334161  L 344.252639 267.18523  L 344.360247 251.328787  L 344.467855 259.577452  L 344.575464 256.842205  L 344.683072 276.976794  L 344.790681 247.116817  L 345.113506 269.072121  L 345.328723 248.06533  L 345.436331 250.811904  L 345.543939 256.731913  L 345.759156 292.597152  L 345.974373 249.804966  L 346.081981 287.74966  L 346.18959 259.439736  L 346.404807 273.888612  L 346.620024 268.466408  L 346.727632 268.657184  L 346.83524 268.619029  L 346.942849 267.848772  L 347.050457 268.08903  L 347.265674 262.337142  L 347.373282 275.18529  L 347.480891 264.683683  L 347.588499 290.760935  L 347.696108 289.728362  L 347.803716 253.731965  L 348.018933 282.526578  L 348.126541 259.482064  L 348.341758 285.740553  L 348.449366 274.801354  L 348.556975 278.1912  L 348.664583 253.877431  L 348.772192 273.59589  L 348.8798 253.866104  L 348.987408 292.697309  L 349.095017 245.183424  L 349.740667 275.887583  L 350.063492 247.735645  L 350.171101 250.720093  L 350.278709 273.452808  L 350.493926 245.135134  L 350.601534 253.877431  L 350.709143 274.590309  L 350.816751 267.413565  L 350.92436 279.238678  L 351.139576 253.553709  L 351.247185 258.124576  L 351.354793 257.909953  L 351.462402 261.832182  L 351.785227 237.263251  L 352.000444 286.76955  L 352.21566 281.412925  L 352.430877 249.235619  L 352.646094 269.581254  L 352.861311 254.055091  L 352.968919 250.674188  L 353.076528 253.821391  L 353.184136 282.663102  L 353.399353 243.240492  L 353.506961 270.036731  L 353.61457 267.258559  L 353.722178 256.514309  L 353.829786 267.297311  L 353.937395 256.688392  L 354.045003 285.828191  L 354.152612 256.688392  L 354.26022 279.096193  L 354.475437 261.95559  L 354.583045 276.780652  L 354.690654 269.687373  L 354.798262 272.218132  L 354.90587 245.027226  L 355.013479 267.336062  L 355.228696 255.036394  L 355.336304 249.421626  L 355.443912 269.848936  L 355.551521 246.223748  L 355.766738 267.130978  L 355.874346 260.635661  L 355.981954 263.220672  L 356.089563 255.036394  L 356.197171 260.552197  L 356.30478 247.735645  L 356.412388 267.247232  L 356.519996 243.338265  L 356.627605 247.782743  L 356.842822 285.670801  L 356.95043 286.666412  L 357.165647 254.904043  L 357.273255 250.630071  L 357.380864 285.682128  L 357.488472 249.098499  L 357.59608 264.268746  L 357.703689 253.419569  L 358.026514 285.787651  L 358.241731 258.989028  L 358.349339 282.409132  L 358.779773 246.211824  L 358.887381 249.133077  L 358.99499 246.36683  L 359.102598 249.284506  L 359.317815 243.245262  L 359.425423 287.654272  L 359.64064 268.30246  L 359.748248 281.43558  L 359.855857 248.18218  L 359.963465 291.507942  L 360.071074 263.058513  L 360.178682 275.887583  L 360.28629 267.386141  L 360.393899 282.712585  L 360.501507 264.683683  L 360.716724 282.526578  L 360.824332 276.872463  L 360.931941 283.480457  L 361.039549 282.55758  L 361.147158 275.634209  L 361.254766 282.55758  L 361.362374 274.590309  L 361.469983 280.145459  L 361.577591 257.964205  L 361.6852 275.749271  L 361.900416 264.603796  L 362.008025 276.995871  L 362.115633 260.646988  L 362.223242 282.526578  L 362.33085 272.356444  L 362.438458 274.464516  L 362.546067 284.684729  L 362.653675 283.522189  L 362.868892 250.675976  L 363.084109 284.51005  L 363.191717 268.067568  L 363.406934 285.641588  L 363.514542 281.604893  L 363.622151 261.884646  L 363.837368 286.553735  L 363.944976 281.368808  L 364.052584 284.480241  L 364.160193 256.099968  L 364.267801 281.305614  L 364.483018 265.794952  L 364.590626 264.596642  L 364.698235 274.517575  L 364.805843 262.309122  L 364.913452 262.473666  L 365.02106 283.62652  L 365.128668 247.743396  L 365.236277 282.539098  L 365.343885 279.347778  L 365.451494 280.38214  L 365.559102 279.489667  L 365.881927 262.164251  L 366.097144 282.559368  L 366.204752 290.688798  L 366.312361 273.488579  L 366.527578 288.710693  L 366.635186 283.656925  L 366.742794 260.52358  L 366.850403 261.969302  L 366.958011 281.393848  L 367.06562 269.967574  L 367.173228 280.349947  L 367.280836 247.691528  L 367.496053 282.317918  L 367.71127 274.206372  L 367.818878 275.703366  L 367.926487 282.48425  L 368.141704 268.131954  L 368.35692 282.228491  L 368.464529 265.6161  L 368.572137 268.208265  L 368.679746 279.007363  L 368.787354 276.701361  L 368.894962 236.797043  L 369.002571 280.231904  L 369.110179 258.866812  L 369.325396 274.401321  L 369.433004 266.931856  L 369.540613 246.356098  L 369.648221 273.243551  L 369.75583 270.753928  L 369.863438 291.621811  L 369.971046 265.744873  L 370.186263 281.067144  L 370.293872 272.116782  L 370.40148 279.271468  L 370.509088 268.461042  L 370.616697 280.242635  L 370.724305 275.574592  L 370.939522 287.670369  L 371.154739 279.052076  L 371.262347 257.555229  L 371.369956 277.868074  L 371.477564 261.574039  L 371.692781 281.330653  L 371.800389 280.339216  L 371.907998 284.628092  L 372.015606 282.590369  L 372.123215 278.012944  L 372.230823 282.48425  L 372.338431 273.262629  L 372.44604 279.096193  L 372.661257 274.438284  L 372.768865 256.459461  L 372.876473 286.699201  L 372.984082 270.986436  L 373.09169 283.463764  L 373.199299 269.693931  L 373.306907 280.307022  L 373.414515 267.213846  L 373.522124 276.892733  L 373.629732 275.643748  L 373.737341 281.425445  L 373.844949 276.926715  L 373.952557 280.286752  L 374.060166 264.76059  L 374.167774 281.301441  L 374.275383 273.233416  L 374.382991 274.702389  L 374.598208 272.078031  L 374.813425 282.345342  L 374.921033 280.373198  L 375.028641 276.926715  L 375.13625 280.212231  L 375.243858 276.892733  L 375.351467 265.710891  L 375.459075 282.500347  L 375.674292 253.675924  L 375.889509 279.239871  L 375.997117 276.824769  L 376.104725 279.174291  L 376.212334 257.68758  L 376.319942 262.074825  L 376.427551 274.481209  L 376.535159 260.505099  L 376.642767 276.858751  L 376.750376 269.690353  L 376.857984 277.857343  L 376.965593 246.250576  L 377.073201 267.01532  L 377.180809 262.974452  L 377.396026 279.108712  L 377.503635 267.209077  L 377.611243 274.375686  L 377.718851 260.765627  L 377.82646 279.315585  L 378.041677 265.750239  L 378.256893 271.968931  L 378.364502 254.937429  L 378.47211 257.685791  L 378.579719 275.781464  L 378.687327 273.269187  L 378.794935 265.784221  L 378.902544 274.330973  L 379.010152 263.335137  L 379.225369 284.617361  L 379.440586 252.505038  L 379.655803 274.47167  L 379.763411 275.425549  L 379.871019 270.864817  L 379.978628 278.079716  L 380.193845 259.34554  L 380.409061 278.057061  L 380.839495 256.547099  L 380.947103 274.728621  L 381.054712 262.081979  L 381.16232 275.643152  L 381.269929 261.869145  L 381.377537 269.690353  L 381.485145 257.902203  L 381.592754 260.505099  L 381.700362 282.407344  L 381.807971 276.858751  L 381.915579 283.497746  L 382.130796 272.078031  L 382.238404 269.540118  L 382.346013 275.573996  L 382.453621 273.376498  L 382.561229 281.259708  L 382.668838 257.548671  L 382.776446 261.910281  L 382.884055 277.947365  L 382.991663 257.988052  L 383.099271 264.510793  L 383.20688 263.217691  L 383.314488 279.010344  L 383.422097 260.463367  L 383.529705 277.990886  L 383.637313 275.643152  L 383.744922 256.406998  L 383.85253 279.174291  L 383.960139 261.992553  L 384.067747 267.170325  L 384.175355 278.057657  L 384.498181 244.626001  L 384.713397 277.990886  L 384.821006 259.294865  L 384.928614 268.418714  L 385.036223 246.110475  L 385.143831 246.288135  L 385.359048 257.557018  L 385.466656 252.041811  L 385.574265 282.348919  L 385.681873 265.778855  L 385.789481 273.251302  L 385.89709 256.405806  L 386.219915 289.280635  L 386.435132 256.362285  L 386.650349 277.979558  L 386.757957 259.165496  L 386.973174 270.827854  L 387.080782 270.753928  L 387.188391 260.418654  L 387.403607 275.563861  L 387.511216 274.340512  L 387.618824 264.181705  L 387.834041 282.33163  L 388.049258 263.091898  L 388.264475 276.814038  L 388.479691 254.660804  L 388.5873 256.088641  L 388.802517 277.912787  L 389.125342 253.821391  L 389.23295 270.868394  L 389.340559 266.675501  L 389.448167 256.130373  L 389.555775 270.393839  L 389.663384 264.09049  L 389.770992 276.486142  L 389.878601 251.803938  L 389.986209 260.418654  L 390.093817 258.686172  L 390.201426 274.16941  L 390.309034 270.598327  L 390.416643 247.769031  L 390.524251 275.392759  L 390.739468 265.251241  L 390.847076 265.31682  L 390.954685 273.760434  L 391.385118 262.792619  L 391.492727 264.210321  L 391.600335 262.833159  L 391.707943 259.846326  L 391.815552 251.758628  L 392.030769 275.48457  L 392.138377 283.321279  L 392.353594 271.613611  L 392.461202 271.795444  L 392.568811 250.193075  L 392.676419 266.791755  L 392.784027 257.326895  L 392.999244 276.508797  L 393.106853 270.689541  L 393.214461 277.778052  L 393.322069 275.300352  L 393.429678 260.157529  L 393.537286 273.061122  L 393.752503 257.286355  L 393.860111 253.306893  L 393.96772 258.98247  L 394.075328 247.289111  L 394.290545 273.015813  L 394.398153 262.909469  L 394.61337 272.872731  L 394.828587 256.130373  L 395.043804 271.604669  L 395.151412 266.63675  L 395.259021 275.393355  L 395.366629 247.433981  L 395.474238 271.677402  L 395.581846 265.446786  L 395.689454 236.534726  L 395.797063 239.739758  L 396.01228 266.630192  L 396.119888 238.195667  L 396.227496 264.125068  L 396.335105 264.085124  L 396.442713 250.376697  L 396.550322 261.43513  L 396.65793 247.385095  L 396.873147 268.043721  L 396.980755 269.168701  L 397.195972 257.281585  L 397.30358 258.556206  L 397.411189 270.660925  L 397.518797 264.170377  L 397.626406 271.895602  L 397.734014 256.315187  L 397.841622 256.956074  L 397.949231 271.750135  L 398.164448 243.729951  L 398.379664 260.013255  L 398.487273 257.057424  L 398.487273 257.057424  "
           clip-path="url(#p583e1d1390)"
           style="fill: none; stroke: #ff7f0e; stroke-width: 1.5; stroke-linecap: square"
           id="path62" />
      </g>
      <g
         id="patch_3">
        <path
           d="M 57.6 307.584  L 57.6 41.472  "
           style="fill: none; stroke: #000000; stroke-width: 0.8; stroke-linejoin: miter; stroke-linecap: square"
           id="path63" />
      </g>
      <g
         id="patch_4">
        <path
           d="M 414.72 307.584  L 414.72 41.472  "
           style="fill: none; stroke: #000000; stroke-width: 0.8; stroke-linejoin: miter; stroke-linecap: square"
           id="path64" />
      </g>
      <g
         id="patch_5">
        <path
           d="M 57.6 307.584  L 414.72 307.584  "
           style="fill: none; stroke: #000000; stroke-width: 0.8; stroke-linejoin: miter; stroke-linecap: square"
           id="path65" />
      </g>
      <g
         id="patch_6">
        <path
           d="M 57.6 41.472  L 414.72 41.472  "
           style="fill: none; stroke: #000000; stroke-width: 0.8; stroke-linejoin: miter; stroke-linecap: square"
           id="path66" />
      </g>
    </g>
  </g>
  <defs
     id="defs66">
    <clipPath
       id="p583e1d1390">
      <rect
         x="57.6"
         y="41.472"
         width="357.12"
         height="266.112"
         id="rect66" />
    </clipPath>
  </defs>
</svg>
